<svg xmlns="http://www.w3.org/2000/svg" xmlns:xlink="http://www.w3.org/1999/xlink" viewBox="0 0 500 130.89"><defs><style>.cls-1{fill:url(#linear-gradient);}.cls-2{fill:#fff;}.cls-3{fill:#a8754a;}.cls-4{fill:#231f20;}.cls-5{fill:#231f1f;}</style><linearGradient id="linear-gradient" y1="56.55" x2="104.05" y2="56.55" gradientUnits="userSpaceOnUse"><stop offset="0" stop-color="orange"/><stop offset="1" stop-color="#e76d2c"/></linearGradient></defs><g id="Layer_2" data-name="Layer 2"><g id="Layer_1-2" data-name="Layer 1"><path class="cls-1" d="M104,29.53A3,3,0,0,0,102.46,27L53.45.36a3,3,0,0,0-2.85,0L1.59,27A3,3,0,0,0,0,29.53c-.4,20.71,3.82,38.28,12.54,52.23,8.45,13.54,21.34,24,38.3,31.1a2.9,2.9,0,0,0,2.31,0c17-7.1,29.85-17.56,38.3-31.1C100.2,67.81,104.42,50.24,104,29.53ZM78.27,57.62A24.41,24.41,0,0,1,53.89,82H50.16A24.41,24.41,0,0,1,25.78,57.62V31.1l10.69,7.45a2.35,2.35,0,0,0,1.35.43h.48a2.38,2.38,0,0,0,1-.2,32.68,32.68,0,0,1,25.55,0,2.38,2.38,0,0,0,1,.2h.48a2.35,2.35,0,0,0,1.35-.43L78.27,31.1Z"/><path class="cls-2" d="M78.27,31.1,67.58,38.55a2.35,2.35,0,0,1-1.35.43h-.48a2.38,2.38,0,0,1-1-.2,32.68,32.68,0,0,0-25.55,0,2.38,2.38,0,0,1-1,.2h-.48a2.35,2.35,0,0,1-1.35-.43L25.78,31.1V57.62A24.41,24.41,0,0,0,50.16,82h3.73A24.41,24.41,0,0,0,78.27,57.62Z"/><path class="cls-3" d="M51.74,36.19a31.78,31.78,0,0,0-12.49,2.59,2.38,2.38,0,0,1-1,.2h-.48a2.35,2.35,0,0,1-1.35-.43L25.78,31.1V57.62c0,.57,0,1.14.09,1.71a19.07,19.07,0,0,0,25.87-9.95Z"/><path class="cls-4" d="M66.23,39h-.48a2.38,2.38,0,0,1-1-.2A32.15,32.15,0,0,0,52,36.18h-.28V49A19.06,19.06,0,0,0,78.18,59.31c0-.56.09-1.12.09-1.69V31.1L67.58,38.55A2.35,2.35,0,0,1,66.23,39Z"/><path class="cls-5" d="M142.61,130.55v-17H150a6.54,6.54,0,0,1,4.25,1.23,4.16,4.16,0,0,1,1.49,3.38,3.89,3.89,0,0,1-.65,2.24,3.68,3.68,0,0,1-1.79,1.38,3.85,3.85,0,0,1,2,1.37,4.19,4.19,0,0,1,.78,2.64,4.29,4.29,0,0,1-1.49,3.46,6.4,6.4,0,0,1-4.25,1.26Zm3.92-10.2h3.23a2.4,2.4,0,0,0,1.47-.44,1.5,1.5,0,0,0,.59-1.28,1.47,1.47,0,0,0-.59-1.26,2.39,2.39,0,0,0-1.47-.43h-3.23Zm0,6.86h3.66a2.08,2.08,0,0,0,1.47-.54,2,2,0,0,0,0-2.86,2.16,2.16,0,0,0-1.47-.52h-3.66Z"/><path class="cls-5" d="M164.62,130.55v-6.92l-5.83-10h4.39l3.39,6.4,3.35-6.4h4.36l-5.92,10v6.94Z"/><path class="cls-5" d="M196.13,130.55V117.12h-4.79v-3.53h13.57v3.53h-4.8v13.43Z"/><path class="cls-5" d="M209.3,130.55v-17h4v17Z"/><path class="cls-5" d="M226.35,130.89a8.4,8.4,0,0,1-4.31-1.07,7.14,7.14,0,0,1-2.79-3,11.82,11.82,0,0,1,0-9.38,7.2,7.2,0,0,1,2.76-3.06,7.82,7.82,0,0,1,4.18-1.09,8.34,8.34,0,0,1,3.72.8,6.18,6.18,0,0,1,2.52,2.21,5.72,5.72,0,0,1,.91,3.21h-4.07a2.85,2.85,0,0,0-.93-2,3.06,3.06,0,0,0-2.15-.77,3.27,3.27,0,0,0-2.84,1.44,6.61,6.61,0,0,0-1,3.86,6.52,6.52,0,0,0,1.06,4,3.44,3.44,0,0,0,2.94,1.45,3.06,3.06,0,0,0,2.09-.73,3.9,3.9,0,0,0,1.15-2.3h-3.13v-3.23h4.12a3.15,3.15,0,0,1,2.4.77,3,3,0,0,1,.72,2.17,7.28,7.28,0,0,1-.38,2.21,6.66,6.66,0,0,1-1.25,2.22,6.42,6.42,0,0,1-2.27,1.7A8.26,8.26,0,0,1,226.35,130.89Z"/><path class="cls-5" d="M238.68,130.55v-17h11.53V117h-7.6v3.19h7.13v3.28h-7.13v3.67h7.6v3.41Z"/><path class="cls-5" d="M255.26,130.55v-17H262a8,8,0,0,1,4.86,1.28,4.3,4.3,0,0,1,1.7,3.65,4.06,4.06,0,0,1-.75,2.44,4.79,4.79,0,0,1-2.12,1.61,3.41,3.41,0,0,1,2.1,1.48,5.17,5.17,0,0,1,.54,2.5v4h-3.89V127c0-1.74-.81-2.6-2.44-2.6h-2.81v6.19Zm3.93-9.52H262a2.73,2.73,0,0,0,1.84-.55,2,2,0,0,0,.65-1.58,1.73,1.73,0,0,0-.65-1.43A2.9,2.9,0,0,0,262,117h-2.81Z"/><path class="cls-5" d="M272.45,130.55l4.88-13.84a16.3,16.3,0,0,1,.78-1.88,3.14,3.14,0,0,1,1-1.17,2.73,2.73,0,0,1,1.55-.41,2.81,2.81,0,0,1,1.58.41,3.25,3.25,0,0,1,1,1.16,11.18,11.18,0,0,1,.78,1.84l4.75,13.89h-4L283.67,127h-6.09l-1.15,3.59Zm8.16-12.94-1.94,6h3.93l-1.85-6s0-.08-.07-.08S280.63,117.56,280.61,117.61Z"/><path class="cls-5" d="M171,91.83a34.15,34.15,0,0,1-17.51-4.29A28.91,28.91,0,0,1,142.1,75.32a41.11,41.11,0,0,1-4-18.77,41.54,41.54,0,0,1,4-18.78,28.74,28.74,0,0,1,11.28-12.21,33.33,33.33,0,0,1,17.19-4.3,34.35,34.35,0,0,1,15.42,3.26,24.82,24.82,0,0,1,14.21,22.35h-16.4a14,14,0,0,0-4.15-8.33,12.33,12.33,0,0,0-8.9-3.25,13.62,13.62,0,0,0-11.6,5.79q-4.23,5.79-4.24,15.56,0,9.58,4.24,15.47T171.17,78a12.9,12.9,0,0,0,7.22-1.81,11.48,11.48,0,0,0,4.15-4.75,19.62,19.62,0,0,0,1.77-6.29h16.3a28.83,28.83,0,0,1-4.14,14.39,24.79,24.79,0,0,1-10.25,9.14A34.36,34.36,0,0,1,171,91.83Z"/><path class="cls-5" d="M204.71,90.48l20.13-55.37a57.38,57.38,0,0,1,3.22-7.51,12.44,12.44,0,0,1,4.1-4.71,11.41,11.41,0,0,1,6.38-1.63,11.86,11.86,0,0,1,6.52,1.63,13.17,13.17,0,0,1,4.24,4.66,44.27,44.27,0,0,1,3.22,7.37l19.56,55.56H255.5l-4.57-14.39H225.87l-4.76,14.39Zm33.64-51.76-8,24h16.21l-7.64-24c-.06-.24-.15-.36-.28-.36S238.41,38.48,238.35,38.72Z"/><path class="cls-5" d="M280,90.48V22.62h16.4V76.45h30.66v14Z"/><path class="cls-5" d="M335.26,90.48V22.62h16.49V90.48Z"/><path class="cls-5" d="M395.83,91.83a34.16,34.16,0,0,1-17.52-4.29,28.91,28.91,0,0,1-11.37-12.22,41.11,41.11,0,0,1-4-18.77,41.54,41.54,0,0,1,4-18.78,28.74,28.74,0,0,1,11.28-12.21,33.33,33.33,0,0,1,17.19-4.3,34.35,34.35,0,0,1,15.42,3.26A24.77,24.77,0,0,1,425,46.87h-16.4a14,14,0,0,0-4.15-8.33,12.31,12.31,0,0,0-8.89-3.25A13.59,13.59,0,0,0,384,41.08q-4.24,5.79-4.24,15.56,0,9.58,4.24,15.47T396,78a12.9,12.9,0,0,0,7.22-1.81,11.41,11.41,0,0,0,4.15-4.75,19.62,19.62,0,0,0,1.77-6.29h16.31a28.83,28.83,0,0,1-4.15,14.39,24.66,24.66,0,0,1-10.25,9.14A34.35,34.35,0,0,1,395.83,91.83Z"/><path class="cls-5" d="M467,91.83a34.28,34.28,0,0,1-17.47-4.29,29.16,29.16,0,0,1-11.46-12.17Q434,67.5,434,56.64a41,41,0,0,1,4.05-18.82,29,29,0,0,1,11.46-12.26,37.74,37.74,0,0,1,35,0A29.2,29.2,0,0,1,496,37.82,41,41,0,0,1,500,56.64Q500,67.5,496,75.37a29.32,29.32,0,0,1-11.42,12.17A34.21,34.21,0,0,1,467,91.83Zm0-14a14.15,14.15,0,0,0,11.84-5.7q4.38-5.7,4.38-15.47T478.85,41a15.07,15.07,0,0,0-23.67,0q-4.38,5.74-4.38,15.61t4.38,15.47A14.13,14.13,0,0,0,467,77.81Z"/></g></g></svg>