<svg xmlns="http://www.w3.org/2000/svg" xmlns:xlink="http://www.w3.org/1999/xlink" viewBox="0 0 225.74 207.67"><defs><style>.cls-1,.cls-5{fill:none;}.cls-2{fill:url(#linear-gradient);}.cls-3{clip-path:url(#clip-path);}.cls-4{opacity:0.5;}.cls-5{stroke:#fff;stroke-linecap:square;stroke-width:1.8px;}.cls-20,.cls-5{stroke-miterlimit:10;}.cls-20,.cls-6{fill:#fff;}.cls-21,.cls-7{fill:#231f1f;}.cls-8{fill:#366ba3;}.cls-9{fill:#1b335f;}.cls-10{fill:#764d29;}.cls-11{fill:#5f3917;}.cls-12{fill:#f59120;}.cls-13{fill:#f27827;}.cls-14{fill:#3b2417;}.cls-15{fill:#5f3d1b;}.cls-16{fill:#57391a;}.cls-17{fill:#533417;}.cls-18{fill:#e5e6e6;}.cls-19{fill:#a6a7aa;}.cls-20{stroke:#231f1f;stroke-width:4.5px;}.cls-21{opacity:0.08;}</style><linearGradient id="linear-gradient" x1="100.86" y1="205.33" x2="100.86" y2="8.28" gradientUnits="userSpaceOnUse"><stop offset="0" stop-color="#0b8ec4"/><stop offset="1" stop-color="#b4dde6"/></linearGradient><clipPath id="clip-path"><circle id="SVGID" class="cls-1" cx="100.86" cy="106.81" r="98.53"/></clipPath></defs><g id="Layer_2" data-name="Layer 2"><g id="Layer_1-2" data-name="Layer 1"><circle class="cls-2" cx="100.86" cy="106.81" r="98.53"/><g class="cls-3"><g id="_8" data-name="8" class="cls-4"><polyline class="cls-5" points="56.11 133.23 56.11 155.21 23.12 155.21 23.12 129.99 56.11 129.99 56.11 129.99"/><path class="cls-5" d="M30 128v-1.76a9.66 9.66.0 019.66-9.65h0a9.65 9.65.0 019.65 9.65V130H30v-2"/><path class="cls-5" d="M44.52 130h-9.8v-3.8a4.9 4.9.0 019.8.0v1"/><path class="cls-5" d="M41.61 145.32v-.68a4 4 0 10-4 0v3.47h4"/></g><g class="cls-4"><path class="cls-5" d="M179.61 90.6l5.19 6.32a3.35 3.35.0 01-2.9 5.46 3.38 3.38.0 01-2.27-1.21l-7.14-8.69"/><circle class="cls-5" cx="163.5" cy="76.15" r="13.5" transform="translate(71.82 231.47) rotate(-84.42)"/><circle class="cls-5" cx="163.5" cy="76.15" r="18.3" transform="translate(71.82 231.47) rotate(-84.42)"/></g><g class="cls-4"><path class="cls-6" d="M29 97.57A7.56 7.56.0 1136.54 90 7.56 7.56.0 0129 97.57zm0-13.22A5.67 5.67.0 1034.65 90 5.67 5.67.0 0029 84.35z"/><path class="cls-6" d="M31.45 107H26.51a1 1 0 01-.92-.72l-.92-3.7a14.48 14.48.0 01-1.53-.63l-3.29 2a.93.93.0 01-1.15-.14l-3.5-3.49a1 1 0 01-.14-1.16l2-3.29a10.25 10.25.0 01-.63-1.53l-3.71-.92a.93.93.0 01-.71-.91V87.54a.93.93.0 01.71-.91l3.71-.92A10.7 10.7.0 0117 84.18l-2-3.29a1 1 0 01.14-1.15l3.5-3.5a.93.93.0 011.15-.14l3.29 2a14.48 14.48.0 011.53-.63l.92-3.7a.94.94.0 01.92-.72h4.94a.93.93.0 01.92.72l.92 3.7a11.94 11.94.0 011.54.64l3.28-2a.93.93.0 011.15.14l3.5 3.5a.92.92.0 01.14 1.15l-2 3.29a11.2 11.2.0 01.63 1.53l3.71.92a.94.94.0 01.72.91v4.95a.94.94.0 01-.72.91l-3.71.92a10.68 10.68.0 01-.64 1.54l2 3.28a.94.94.0 01-.14 1.16l-3.5 3.49a.93.93.0 01-1.15.14l-3.29-2a12.13 12.13.0 01-1.54.63l-.91 3.7A.94.94.0 0131.45 107zm-4.2-1.89h3.46l.87-3.5a1 1 0 01.69-.7h.06a10.4 10.4.0 002.07-.86.93.93.0 01.94.0l3.11 1.86 2.45-2.46L39 96.38a.93.93.0 010-.94 10.4 10.4.0 00.89-2.12.93.93.0 01.69-.7l3.51-.87V88.28l-3.51-.87a.93.93.0 01-.68-.65.24.24.0 010-.08A11.15 11.15.0 0039 84.6a1 1 0 010-.94l1.86-3.11-2.41-2.45L35.35 80a.91.91.0 01-.94.0 10.82 10.82.0 00-2.13-.89 1 1 0 01-.7-.69l-.87-3.5H27.25l-.87 3.5a1 1 0 01-.63.68h-.1a10.62 10.62.0 00-2.08.87.93.93.0 01-.94.0L19.51 78.1l-2.45 2.45 1.86 3.11a1 1 0 010 .94 10.09 10.09.0 00-.88 2.12.93.93.0 01-.69.69l-3.51.87v3.47l3.51.87a.94.94.0 01.69.67v.07a9.87 9.87.0 00.87 2.07 1 1 0 010 .94l-1.86 3.11 2.45 2.46 3.12-1.86a.93.93.0 01.94.0 10.65 10.65.0 002.12.88 1 1 0 01.69.68z"/><path class="cls-6" d="M51.65 88.12a5.67 5.67.0 115.67-5.67 5.67 5.67.0 01-5.67 5.67zm0-9.44a3.78 3.78.0 103.78 3.77 3.78 3.78.0 00-3.78-3.77z"/><path class="cls-6" d="M53.37 95.68H49.53a.93.93.0 01-.91-.71l-.69-2.72-.51-.19a.94.94.0 01.71-1.75 7.75 7.75.0 00.81.28 1 1 0 01.69.69l.64 2.51h2.37l.63-2.51a.93.93.0 01.63-.67h.1a8.33 8.33.0 001.57-.64.94.94.0 01.92.0l2.29 1.35 1.67-1.64-1.36-2.22a.93.93.0 010-1 7.13 7.13.0 00.67-1.58 1 1 0 01.69-.68L63 83.6V81.31l-2.56-.63a.94.94.0 01-.67-.61v-.11a7.9 7.9.0 00-.65-1.53 1 1 0 010-1l1.36-2.23-1.67-1.64L56.51 75a1 1 0 01-.94.0 7.74 7.74.0 00-1.6-.66.94.94.0 01-.7-.69l-.63-2.51H50.27l-.64 2.51a.91.91.0 01-.63.67h-.1a8.24 8.24.0 00-1.56.64 1 1 0 01-.93.0l-2.28-1.35-1.67 1.64.83 1.37a.95.95.0 11-1.62 1l-1.22-2a1 1 0 01.15-1.17l2.72-2.67a.94.94.0 011.14-.14l2.46 1.45a7.92 7.92.0 011-.41l.69-2.72a.93.93.0 01.91-.71h3.84a.94.94.0 01.92.71L55 72.66a8.69 8.69.0 011 .41l2.45-1.45a1 1 0 011.15.14l2.72 2.67a1 1 0 01.14 1.17L61 78c.15.32.28.64.4 1l2.77.68a.94.94.0 01.72.92v3.78a.94.94.0 01-.72.91l-2.77.68a8 8 0 01-.41 1l1.47 2.4a1 1 0 01-.14 1.17l-2.72 2.67a1 1 0 01-1.15.14L56 91.84a8.74 8.74.0 01-1 .41L54.29 95A.94.94.0 0153.37 95.68z"/></g><g class="cls-4"><path class="cls-6" d="M169.64 139a7.55 7.55.0 118.85-6A7.56 7.56.0 01169.64 139zm2.48-13a5.67 5.67.0 104.51 6.64A5.68 5.68.0 00172.12 126z"/><path class="cls-6" d="M170.3 148.76l-4.86-.93a1 1 0 01-.77-.88l-.2-3.8a13.3 13.3.0 01-1.39-.91l-3.6 1.31a.94.94.0 01-1.1-.35l-2.78-4.09a1 1 0 01.07-1.16l2.55-2.86a11.48 11.48.0 01-.33-1.63l-3.47-1.6a.94.94.0 01-.53-1l.93-4.85a.94.94.0 01.87-.77l3.82-.21a11.26 11.26.0 01.9-1.38L159.1 120a1 1 0 01.35-1.11l4.09-2.78a1 1 0 011.16.08l2.87 2.55a12.25 12.25.0 011.62-.34l1.59-3.46a1 1 0 011-.54l4.86.93a.94.94.0 01.76.88l.21 3.81A11.92 11.92.0 01179 121l3.59-1.33a1 1 0 011.11.36l2.78 4.09a1 1 0 01-.08 1.16l-2.55 2.86a11.35 11.35.0 01.33 1.62l3.47 1.6a.93.93.0 01.53 1l-.92 4.85a1 1 0 01-.88.77l-3.81.2a12 12 0 01-.92 1.4l1.33 3.59a1 1 0 01-.36 1.11l-4.09 2.77a1 1 0 01-1.16-.07l-2.86-2.55a11.07 11.07.0 01-1.62.33l-1.6 3.46A.94.94.0 01170.3 148.76zm-3.78-2.65 3.41.65 1.5-3.28a.94.94.0 01.81-.54h.06a9.48 9.48.0 002.19-.46.94.94.0 01.92.2l2.71 2.41 2.87-2-1.26-3.4a1 1 0 01.16-.93 10 10 0 001.27-1.92 1 1 0 01.81-.55l3.61-.2.65-3.4L183 131.21a.94.94.0 01-.55-.76v-.09a10.89 10.89.0 00-.46-2.2.94.94.0 01.19-.92l2.41-2.71-1.95-2.87-3.39 1.25a.94.94.0 01-.93-.15 10.52 10.52.0 00-1.92-1.28.94.94.0 01-.56-.81l-.19-3.6-3.41-.65-1.51 3.28a1 1 0 01-.75.54h-.1a10.75 10.75.0 00-2.2.46 1 1 0 01-.93-.19l-2.7-2.41-2.88 2 1.25 3.41a1 1 0 01-.16.92A10.52 10.52.0 00161 126.3a.94.94.0 01-.8.56l-3.61.2-.65 3.4 3.28 1.51a1 1 0 01.54.79.17.17.0 010 .07 9.79 9.79.0 00.46 2.2.94.94.0 01-.2.92l-2.41 2.7 2 2.88 3.41-1.25a1 1 0 01.93.16 10.18 10.18.0 001.91 1.26 1 1 0 01.55.81z"/></g></g><path class="cls-7" d="M100.86 207.67A100.87 100.87.0 11201.73 106.81 101 101 0 01100.86 207.67zm0-197a96.19 96.19.0 1096.19 96.19A96.3 96.3.0 00100.86 10.62z"/><path class="cls-8" d="M148.27 170.26c-4.32 6.88-23.75 12.08-47.08 12.08s-42.76-5.2-47.08-12.08c-5.59 2.16-8.84 4.72-8.84 7.48.0 7.66 25 13.87 55.92 13.87s55.93-6.21 55.93-13.87C157.12 175 153.86 172.42 148.27 170.26z"/><path class="cls-9" d="M101.19 182.34c23.33.0 42.76-5.2 47.08-12.08-10-3.84-27.31-6.39-47.08-6.39s-37.13 2.55-47.08 6.39C58.43 177.14 77.86 182.34 101.19 182.34z"/><path class="cls-10" d="M140.79 135A79 79 0 01151 126.94c16.41-11.07 11.91-28.45 7.93-42.55-2.83-10 10.76-12.75 16 16.36 5.15 28.64-26.55 51.11-35 51.11"/><path class="cls-7" d="M139.86 153.31a1.46 1.46.0 110-2.91c4 0 14.79-6.15 23.17-16.18 6.17-7.37 13-19.12 10.45-33.22-2.61-14.51-7.37-20.91-10.65-22a1.91 1.91.0 00-2 .3c-.68.66-1.16 2.23-.48 4.67 3.85 13.61 9.11 32.26-8.52 44.15a77.2 77.2.0 00-10 7.89 1.46 1.46.0 01-2-2.08 81.14 81.14.0 0110.41-8.23c15.88-10.71 10.95-28.18 7.35-40.94-.88-3.12-.41-6 1.26-7.56a4.77 4.77.0 014.94-1c5.49 1.78 10.21 10.84 12.62 24.23 2.73 15.21-4.52 27.75-11.08 35.6C156.65 146.39 145.17 153.31 139.86 153.31z"/><path class="cls-11" d="M164.67 79c3.44 8.21 11.76 31 .15 45.66s-19.39 13.88-19.39 13.88l1.12 11.09c12.24-6.31 32.56-25.56 28.36-48.92C172.15 85.37 168.44 80.26 164.67 79z"/><path class="cls-7" d="M139.86 153.31a1.46 1.46.0 110-2.91c4 0 14.79-6.15 23.17-16.18 6.17-7.37 13-19.12 10.45-33.22-2.61-14.51-7.37-20.91-10.65-22a1.91 1.91.0 00-2 .3c-.68.66-1.16 2.23-.48 4.67 3.85 13.61 9.11 32.26-8.52 44.15a77.2 77.2.0 00-10 7.89 1.46 1.46.0 01-2-2.08 81.14 81.14.0 0110.41-8.23c15.88-10.71 10.95-28.18 7.35-40.94-.88-3.12-.41-6 1.26-7.56a4.77 4.77.0 014.94-1c5.49 1.78 10.21 10.84 12.62 24.23 2.73 15.21-4.52 27.75-11.08 35.6C156.65 146.39 145.17 153.31 139.86 153.31z"/><path class="cls-12" d="M148.61 136c0 29.67-21.52 46.3-48.06 46.3S52.49 165.71 52.49 136 74 60.09 100.55 60.09s48.06 46.28 48.06 75.91z"/><path class="cls-7" d="M100.55 183.72C71 183.72 51.11 164.56 51.11 136c0-30.54 22.15-77.33 49.44-77.33S150 105.5 150 136c0 28.56-19.88 47.72-49.45 47.72zm0-122.25c-6.69.0-19.83 3.4-32.78 26.15-8.57 15.06-13.9 33.61-13.9 48.42.0 26.87 18.76 44.92 46.68 44.92s46.67-18.05 46.67-44.92c0-14.81-5.32-33.36-13.89-48.42-12.95-22.75-26.1-26.15-32.78-26.15z"/><path class="cls-13" d="M100.55 60.09c-.32.0-.64.0-1 0 20.64 1.09 45.35 47.69 45.35 74.77.0 27.41-20.63 42.77-46.08 42.77-9.53.0-18.19-.14-25.37-2.28a53 53 0 0027.06 6.94c26.54.0 48.06-16.63 48.06-46.3s-21.48-75.9-48.02-75.9z"/><path class="cls-13" d="M137.71 100.58l-7.55 6.72s8.54-1.82 8.88-3.36S137.71 100.58 137.71 100.58z"/><path class="cls-13" d="M139.65 106.22l-8.79 6.72s9.93-1.82 10.33-3.36S139.65 106.22 139.65 106.22z"/><path class="cls-13" d="M141.69 112.05l-10.28 7.76s11.61-2.11 12.08-3.88S141.69 112.05 141.69 112.05z"/><path class="cls-13" d="M141.25 157.62l-11-6.68s6.26 10 8.08 9.79S141.25 157.62 141.25 157.62z"/><path class="cls-13" d="M146.08 152l-12.25-4s8.39 8.31 10.11 7.67S146.08 152 146.08 152z"/><path class="cls-13" d="M61.38 100.58l8.95 6.72s-10.12-1.82-10.52-3.36 1.57-3.36 1.57-3.36z"/><path class="cls-13" d="M59.09 106.22l10.4 6.72s-11.76-1.82-12.23-3.36 1.83-3.36 1.83-3.36z"/><path class="cls-13" d="M56.67 112.05l12.18 7.76s-13.76-2.11-14.31-3.88S56.67 112.05 56.67 112.05z"/><path class="cls-6" d="M122.06 128.68c0 14.38-8 26.93-22.76 26.93s-22.77-12.55-22.77-26.93 8-34.88 22.77-34.88 22.76 20.5 22.76 34.88z"/><path class="cls-7" d="M99.3 157c-14.2.0-24.11-11.62-24.11-28.27a50.47 50.47.0 016-23.49c4.57-8.21 11-12.73 18.08-12.73s13.5 4.52 18.07 12.73a50.47 50.47.0 016 23.49C123.4 145.33 113.49 157 99.3 157zm0-61.8c-13.8.0-21.42 19.83-21.42 33.53.0 17.67 10.75 25.58 21.42 25.58s21.42-7.91 21.42-25.58c0-13.73-7.63-33.58-21.42-33.58z"/><path class="cls-10" d="M142.87 42.65c-.19 2.41-4.69-.74-6.23 1L105.2 24.43a39.79 39.79.0 013.15-6.34c6.63-10.85 20.89-21.87 28-13.92C141.25 9.59 143.93 28.63 142.87 42.65z"/><path class="cls-14" d="M136.92 4.92l-7.55 6.72s8.54-1.82 8.88-3.36S136.92 4.92 136.92 4.92z"/><path class="cls-7" d="M136.92 45.53l-1-.64L103.4 25l.44-1.14a42.68 42.68.0 013.27-6.56c5.13-8.37 15-17.3 23.16-17.3a9.28 9.28.0 017.19 3.19c5.36 6 7.92 25.65 6.86 39.57a2.41 2.41.0 01-2.61 2.3 10.08 10.08.0 01-1.92-.27 10 10 0 00-1.64-.24.93.93.0 00-.42.06zm1.23-3.89a11.42 11.42.0 012.22.3c.38.07.77.15 1.07.18 1-14.43-1.94-32.29-6.15-37a6.39 6.39.0 00-5-2.23c-6.85.0-15.89 8.11-20.67 15.94a38.52 38.52.0 00-2.58 5l29.6 18.09A3.83 3.83.0 01138.15 41.64z"/><path class="cls-7" d="M132.9 33.11c-.06.8-13.26-7-13.26-7a14.23 14.23.0 011-2.11c2.21-3.61 6.85-9.22 9.35-5.95C130.7 19 133.25 28.44 132.9 33.11z"/><path class="cls-7" d="M132.8 34.62c-.41.0-1.63.0-13.9-7.21l-1.07-.63.45-1.16a15.91 15.91.0 011.16-2.34c1.1-1.79 5-7.63 8.76-7.63a3.67 3.67.0 013 1.56c1.07 1.39 3.52 11.33 3.16 16a1.52 1.52.0 01-1.56 1.41zm-11.3-9.06c3.79 2.2 7.76 4.41 9.94 5.49a49.44 49.44.0 00-2.61-12.14.71.71.0 00-.63-.35c-1.38.0-4.13 2.74-6.27 6.24C121.78 25.05 121.64 25.3 121.5 25.56z"/><path class="cls-12" d="M57.46 43.62c.19 2.41 4.69-.74 6.22 1L95.13 25.4A40.21 40.21.0 0092 19.06C85.35 8.21 71.09-2.81 64 5.14c-4.92 5.42-7.6 24.46-6.54 38.48z"/><path class="cls-13" d="M62.42 8.28l9 6.72s-10.12-1.82-10.53-3.36 1.53-3.36 1.53-3.36z"/><path class="cls-13" d="M59.26 14.41l6.83 4.83s-7.71-1.31-8-2.42S59.26 14.41 59.26 14.41z"/><path class="cls-7" d="M63.42 46.48l-.83-.9a1.19 1.19.0 00-.41.0 9.89 9.89.0 00-1.64.23 10.08 10.08.0 01-1.92.27h0A2.4 2.4.0 0156 43.73c-1-13.92 1.5-33.59 6.87-39.57A9.32 9.32.0 0170.06 1c8.16.0 18 8.93 23.16 17.33a42.78 42.78.0 013.27 6.57L96.93 26zM70.06 3.89a6.38 6.38.0 00-5 2.22c-4.21 4.69-7.17 22.57-6.15 37 .3.0.69-.12 1.07-.19a7 7 0 013.75.0L93.31 24.8a38.52 38.52.0 00-2.58-5C86 12 76.9 3.89 70.06 3.89z"/><path class="cls-7" d="M67.43 34.08c.06.8 13.26-7 13.26-7a13.81 13.81.0 00-1-2.11c-2.2-3.61-6.84-9.22-9.34-6C69.63 19.94 67.08 29.41 67.43 34.08z"/><path class="cls-7" d="M67.54 35.59h0A1.52 1.52.0 0166 34.19c-.36-4.68 2.09-14.62 3.16-16a3.66 3.66.0 013-1.56c3.8.0 7.66 5.84 8.76 7.63a15.91 15.91.0 011.16 2.34l.45 1.16-1.07.63C69.2 35.57 67.94 35.59 67.54 35.59zm4.59-16.06c-.13.0-.36.0-.67.42A49.89 49.89.0 0068.89 32c2.18-1.09 6.15-3.3 9.93-5.5q-.19-.39-.42-.75C76.26 22.28 73.51 19.53 72.13 19.53z"/><path class="cls-1" d="M100.55 41.3c-.61 26.15-9.5 48.46-22.87 57.23 13.37-8.77 22.87-31.08 22.87-57.23z"/><path class="cls-15" d="M113.14 101.27a32.57 32.57.0 013.2 4.85c9.46-2.53 17.1-7.23 21.38-13.09-.32-.68-.65-1.34-1-2a57.66 57.66.0 01-23.59 10.23z"/><path class="cls-15" d="M82.49 105.69a33 33 0 013.22-4.75 57.49 57.49.0 01-21.56-9.5c-.38.73-.72 1.46-1.08 2.2C67.18 98.92 74.06 103.19 82.49 105.69z"/><path class="cls-16" d="M100.17 102.51a66.06 66.06.0 01-14.46-1.57h0a33 33 0 00-3.22 4.75h0a61.57 61.57.0 0017.67 2.51 62.3 62.3.0 0016.17-2.08h0a32.57 32.57.0 00-3.2-4.85A67.85 67.85.0 01100.17 102.51z"/><path class="cls-7" d="M99.3 157c-14.2.0-24.11-11.62-24.11-28.27a50.47 50.47.0 016-23.49c4.57-8.21 11-12.73 18.08-12.73s13.5 4.52 18.07 12.73a50.47 50.47.0 016 23.49C123.4 145.33 113.49 157 99.3 157zm0-61.8c-13.8.0-21.42 19.83-21.42 33.53.0 17.67 10.75 25.58 21.42 25.58s21.42-7.91 21.42-25.58c0-13.73-7.63-33.58-21.42-33.58z"/><path class="cls-17" d="M140.48 87.89A47.74 47.74.0 01136.74 91c.33.66.66 1.32 1 2A19.74 19.74.0 00140.48 87.89z"/><path class="cls-7" d="M100.55 183.72C71 183.72 51.11 164.56 51.11 136c0-30.54 22.15-77.33 49.44-77.33S150 105.5 150 136c0 28.56-19.88 47.72-49.45 47.72zm0-122.25c-6.69.0-19.83 3.4-32.78 26.15-8.57 15.06-13.9 33.61-13.9 48.42.0 26.87 18.76 44.92 46.68 44.92s46.67-18.05 46.67-44.92c0-14.81-5.32-33.36-13.89-48.42-12.95-22.75-26.1-26.15-32.78-26.15z"/><path class="cls-12" d="M136.28 55.74A19.61 19.61.0 01144.64 40C135.21 29 119 21.75 100.55 21.75c-.62.0-1.24.0-1.85.0a72.43 72.43.0 011.85 19.51c0 26.15-9.5 48.46-22.87 57.23a66.26 66.26.0 0022.87 4c23.4.0 43.23-11.67 50.13-27.82C142.25 71.7 136.28 64.35 136.28 55.74z"/><path class="cls-7" d="M100.55 104A67.33 67.33.0 0177.18 99.9a1.47 1.47.0 01-.3-2.59c13.29-8.71 22.21-31.22 22.21-56a70.79 70.79.0 00-1.8-19.15 1.45 1.45.0 011.37-1.82h.27c.54.0 1.08.0 1.62.0 18.22.0 35.11 7 45.19 18.73a1.47 1.47.0 01-.24 2.13 18.11 18.11.0 00-7.76 14.59c0 7.78 5.27 14.68 13.43 17.58a1.42 1.42.0 01.84.79 1.4 1.4.0 010 1.15C144.68 92.43 124 104 100.55 104zM80.81 98.06a64.86 64.86.0 0019.74 3c21.66.0 40.78-10.21 48.17-25.56-8.49-3.6-13.89-11.2-13.89-19.75a20.79 20.79.0 017.69-16c-9.64-10.41-25.19-16.58-42-16.58h0A77.79 77.79.0 01102 41.33C102 66 93.77 87.82 80.81 98.06z"/><path class="cls-10" d="M100.55 41.3A102.54 102.54.0 0098.7 21.79c-28.27.74-50.9 18.51-50.9 40.34.0 16 12.2 29.88 29.88 36.4 13.37-8.77 22.26-31.08 22.87-57.23z"/><path class="cls-7" d="M77.68 1e2a1.43 1.43.0 01-.5-.09C58.45 93 46.34 78.16 46.34 62.13c0-22.66 23-41 52.32-41.8a1.47 1.47.0 011.47 1.18A104.23 104.23.0 01102 41.3c-.62 26.55-9.85 49.48-23.53 58.45A1.44 1.44.0 0177.68 1e2zM97.5 23.29c-27.15 1.2-48.24 18.08-48.24 38.84.0 14.6 11.05 28.19 28.23 34.77 12.57-8.74 21-30.45 21.6-55.64A101.86 101.86.0 0097.5 23.29z"/><path class="cls-14" d="M52.08 47.44l9 6.71s-10.12-1.82-10.52-3.36 1.52-3.35 1.52-3.35z"/><path class="cls-14" d="M49.79 53.08l10.4 6.71S48.43 58 48 56.44s1.79-3.36 1.79-3.36z"/><path class="cls-13" d="M133 73.29c0-5.7-4.26-10.32-9.52-10.32a9.49 9.49.0 00-8.55 5.8c8.31 2.28 13.89 6.6 13.89 12.34.0.26.0.52-.07.77A10.55 10.55.0 00133 73.29z"/><path class="cls-10" d="M98.7 21.79a102.54 102.54.0 011.85 19.51A72.43 72.43.0 0098.7 21.79z"/><path class="cls-7" d="M100.55 42.76h0a1.46 1.46.0 01-1.44-1.46 100.79 100.79.0 00-1.82-19.23 1.46 1.46.0 012.84-.65A74 74 0 01102 41.33a1.47 1.47.0 01-1.45 1.43z"/><path class="cls-10" d="M144.64 40a19.61 19.61.0 00-8.36 15.77c0 8.61 6 16 14.4 18.95a31.78 31.78.0 002.61-12.56A33.89 33.89.0 00144.64 40z"/><path class="cls-7" d="M151.48 76.52l-1.29-.46c-9.33-3.31-15.36-11.28-15.36-20.32a21 21 0 018.95-16.94l1.08-.8.88 1a35.25 35.25.0 019 23.11A33.3 33.3.0 01152 75.26zM144.42 42a18 18 0 00-6.68 13.75c0 7.36 4.71 13.93 12.12 17.07a30.14 30.14.0 002-10.68A32.1 32.1.0 00144.42 42z"/><ellipse class="cls-7" cx="85.66" cy="49.25" rx="12.28" ry="10.58" transform="translate(-5.56 11.28) rotate(-7.3)"/><ellipse class="cls-6" cx="86.19" cy="50.81" rx="8.93" ry="7.69" transform="translate(-5.75 11.36) rotate(-7.3)"/><ellipse class="cls-7" cx="86.19" cy="51.19" rx="3.35" ry="2.95" transform="translate(-5.79 11.33) rotate(-7.28)"/><path class="cls-7" d="M76.14 41.48a1.15 1.15.0 01-.36-.07l-3.39-1.33a1 1 0 01.71-1.81l3.39 1.33A1 1 0 0177 40.86 1 1 0 0176.14 41.48z"/><path class="cls-7" d="M78.83 39.18a1 1 0 01-.56-.18l-4.06-2.85A1 1 0 0174 34.8a1 1 0 011.36-.24l4.06 2.85a1 1 0 01-.56 1.77z"/><ellipse class="cls-7" cx="117.68" cy="49.25" rx="10.58" ry="12.28" transform="translate(53.88 159.72) rotate(-82.7)"/><ellipse class="cls-6" cx="117.14" cy="50.81" rx="7.69" ry="8.93" transform="matrix(0.13, -0.99, 0.99, 0.13, 51.87, 160.55)"/><ellipse class="cls-7" cx="117.14" cy="51.19" rx="2.95" ry="3.35" transform="translate(51.52 160.91) rotate(-82.72)"/><path class="cls-7" d="M127.2 41.48a1 1 0 01-.36-1.88l3.39-1.33a1 1 0 11.71 1.81l-3.39 1.33A1 1 0 01127.2 41.48z"/><path class="cls-7" d="M124.5 39.18a1 1 0 01-.79-.41 1 1 0 01.24-1.36L128 34.56a1 1 0 011.12 1.59L125.06 39A1 1 0 01124.5 39.18z"/><path class="cls-6" d="M128.79 81.11c0 8.68-12.7 15.71-28.37 15.71s-28.37-7-28.37-15.71S84.75 67 100.42 67s28.37 5.44 28.37 14.11z"/><path class="cls-18" d="M100.58 93.8c-10.28.06-19.89-2.59-28.53-12.69.7 10.59 13.63 15.25 28.15 15.25 15.67.0 27-6 28.37-15.25C120.48 89.94 115.11 93.72 100.58 93.8z"/><path class="cls-7" d="M100.92 92.18c-8.65.0-16.53-4.51-20.15-11.56a1 1 0 011.73-.89C85.79 86.14 93 90.24 100.92 90.24h.26c7.71-.09 14.79-4.14 18-10.33a1 1 0 011.72.91c-3.64 6.91-11.21 11.26-19.74 11.36z"/><path class="cls-7" d="M100.42 98.28c-16.72.0-29.82-7.54-29.82-17.17.0-9.18 12.26-15.6 29.82-15.6s29.83 6.42 29.83 15.6c0 9.63-13.1 17.17-29.83 17.17zm0-29.86c-15.59.0-26.91 5.34-26.91 12.69.0 7.73 12.32 14.25 26.91 14.25s26.91-6.52 26.91-14.25C127.33 73.76 116 68.42 100.42 68.42z"/><rect class="cls-7" x="99.73" y="72.89" width="2.27" height="18.81"/><path class="cls-7" d="M109.17 67.91c0 4.59-8.31 7.42-8.31 7.42s-8.31-2.83-8.31-7.42 3.72-4.07 8.31-4.07S109.17 63.32 109.17 67.91z"/><ellipse class="cls-19" cx="100.86" cy="66.85" rx="5.4" ry=".93"/><path class="cls-13" d="M129 163.87c0 4.08-1.85 21.46-12.28 20.18-5.63-.7-13.63-9.5-10.25-11.78 3.58-2.43-3.59-14.93 1.24-11.75S129 159.79 129 163.87z"/><path class="cls-6" d="M123.39 179.25c0 4.08-3.85 5.53-9.9 5.53s-10.94-3.31-10.94-7.39 2.72-7.48 7.87-4.31S123.39 175.17 123.39 179.25z"/><path class="cls-18" d="M112.84 180.89a27.82 27.82.0 01-9.89-6.25 5.76 5.76.0 00-.4 2.06c0 4.46 5.3 8.08 11.83 8.08a15.09 15.09.0 008-2.18A27.75 27.75.0 01112.84 180.89z"/><path class="cls-7" d="M114.38 186c-7.19.0-13-4.17-13-9.29.0-3.25 2.32-6.21 6.12-7.89a48.5 48.5.0 01-1-8.25 1.22 1.22.0 112.43-.09 45.6 45.6.0 001.14 8.8l.25 1.06-1 .36c-3.39 1.23-5.51 3.53-5.51 6 0 3.78 4.77 6.86 10.62 6.86 4.67.0 8.86-2 10.19-5a77.57 77.57.0 005.09-18.49 1.21 1.21.0 112.4.35 79.07 79.07.0 01-5.26 19.1C125 183.42 120.06 186 114.38 186z"/><path class="cls-10" d="M71.31 163.87c0 4.08 1.85 21.46 12.27 20.18 5.63-.7 13.64-9.5 10.26-11.78-3.58-2.43 2.2-14.93-2.63-11.75S71.31 159.79 71.31 163.87z"/><path class="cls-6" d="M76.9 179.25c0 4.08 3.85 5.53 9.89 5.53s10.95-3.31 10.95-7.39-2.73-7.48-7.87-4.31S76.9 175.17 76.9 179.25z"/><path class="cls-18" d="M88.5 181.27a28 28 0 009.55-6.75 5.68 5.68.0 01.51 2c.23 4.46-4.88 8.34-11.4 8.68A15.11 15.11.0 0179 183.46a28 28 0 009.5-2.19z"/><path class="cls-7" d="M85.91 186c-5.68.0-10.67-2.57-12.41-6.39a79.93 79.93.0 01-5.28-19.14 1.22 1.22.0 012.41-.35 77 77 0 005.1 18.53c1.32 2.88 5.51 4.92 10.18 4.92 5.85.0 10.61-3.08 10.61-6.86.0-2.48-2.11-4.78-5.51-6l-1-.36.25-1.06a44.84 44.84.0 001.14-8.8 1.24 1.24.0 011.26-1.17 1.21 1.21.0 011.17 1.26 48.5 48.5.0 01-1 8.25c3.81 1.68 6.12 4.63 6.12 7.89C99 181.82 93.1 186 85.91 186z"/><circle class="cls-18" cx="117.87" cy="75.89" r="1.41"/><circle class="cls-18" cx="115.1" cy="72.42" r="1.41"/><circle class="cls-18" cx="114.18" cy="77.39" r="1.41"/><circle class="cls-18" cx="84.19" cy="76.01" r="1.41"/><circle class="cls-18" cx="87.91" cy="77.39" r="1.41"/><circle class="cls-18" cx="87.31" cy="72.89" r="1.41"/><path class="cls-7" d="M139.06 77.1h0l-20.19-.24a1 1 0 010-1.94l20.19.24a1 1 0 010 1.94z"/><path class="cls-7" d="M116.1 73.32a1 1 0 01-.36-1.87l19-7.47a1 1 0 01.71 1.81l-19 7.47A1.12 1.12.0 01116.1 73.32z"/><path class="cls-7" d="M63.31 77.1a1 1 0 01-1-1 1 1 0 011-1l20.19-.24h0a1 1 0 010 1.94l-20.19.24z"/><path class="cls-7" d="M86.27 73.32a1.12 1.12.0 01-.35-.06l-19-7.47A1 1 0 0167.64 64l19 7.47a1 1 0 01-.36 1.87z"/><path class="cls-20" d="M211.35 160.29c0-.45.0-.88.0-1.21a20.71 20.71.0 00-20.71-20.71 20.33 20.33.0 00-12.2 4.22 23.08 23.08.0 00-6.16 6.95 11.72 11.72.0 00-5.44-1.32 11.15 11.15.0 00-8.32 4 14.2 14.2.0 00-3.15 6 15.11 15.11.0 005.53 29.17v0h49v0a13.57 13.57.0 0013.55-13.55 13.73 13.73.0 00-12.1-13.55z"/><path class="cls-21" d="M209.94 187.38v0c7.47.0 14.08-6.1 13.55-13.55-.41-5.86-3.3-7.95-7.47-11.38L173.1 187.31C173 187.38 209.94 187.38 209.94 187.38z"/></g></g></svg>