<svg xmlns="http://www.w3.org/2000/svg" xmlns:xlink="http://www.w3.org/1999/xlink" id="Layer_1" viewBox="0 0 213 207.7" style="enable-background:new 0 0 213 207.7;"><style>.st0{fill:url(#SVGID_1_);}
.st1{clip-path:url(#SVGID_3_);}
.st2{fill:#FFFFFF;}
.st3{fill:#242020;}
.st4{fill:#534F50;}
.st5{fill:#764E29;}
.st6{fill:#603A17;}
.st7{fill:#F69320;}
.st8{fill:#F37828;}
.st9{fill:#3C2517;}
.st10{fill:none;}
.st11{fill:#603E1B;}
.st12{fill:#58391A;}
.st13{fill:#533518;}
.st14{fill:#E6E7E7;}
.st15{fill:#A7A8AB;}
.st16{fill:#0F90C5;}
.st17{fill:#273981;}
.st18{fill:none;stroke:#242020;stroke-width:4.5;stroke-miterlimit:10;}</style><g id="Layer_2_1_"><g id="Layer_1-2"><linearGradient id="SVGID_1_" gradientUnits="userSpaceOnUse" x1="101.4811" y1="4.66" x2="101.4811" y2="201.72" gradientTransform="matrix(1 0 0 -1 0 210)"><stop offset="0" style="stop-color:#6D6264"/><stop offset="1" style="stop-color:#D3D3D3"/></linearGradient><circle class="st0" cx="101.5" cy="106.8" r="98.5"/><g><defs><circle id="SVGID_2_" cx="101.5" cy="106.8" r="98.5"/></defs><clipPath id="SVGID_3_"><use xlink:href="#SVGID_2_" style="overflow:visible;"/></clipPath><g class="st1"><path class="st2" d="M53 100.8v12.4h-7.2V76.7l-7.6-3.3L14.3 83v66.9H3.5v-19.6H-7.7v20h-10.8V1e2h-14.4v13.6h-9.6V161l1.2 1.2v-47.5h9.6v-13.6h12v49.1h-9.6v12.4h10.8v-11.2h12v-20h8.7V151h13.2V83.8L37 75.1v77.2h-7.6v10.4h8.8v-9.2h7.6v-39.1h8.4V102h8v40.7l1.2-1.2v-40.8H53zm-72.7 60.6h-8.4v-10h8.4v10zm56.8.0h-6.4v-8h6.4v8zM44.6 152.2h-6.4V74.6l6.4 2.8v74.8z"/><path class="st2" d="M203 162.2v-47.5h-9.6v-13.6h-12v49.1h9.6v12.4h-10.8v-11.2h-10.6v-15.6h-12.8V151h-5.7V83.8l-21.6-8.7v77.2h-1.2v-79l24 9.7v66.9h3.3v-15.2h15.1v15.6h9.5V1e2h14.4v13.6h9.6V161M189.8 151.4h-8.4v10h8.4v-10z"/><polygon class="st2" points="146.8,129.9 146.8,130 148,129.9 148,88.7 146.8,88.7 146.8,129.9"/><rect x="20.8" y="87.5" class="st2" width="3" height="1.9"/><rect x="20.8" y="92.9" class="st2" width="3" height="1.9"/><rect x="20.8" y="98.4" class="st2" width="3" height="1.9"/><rect x="20.8" y="103.8" class="st2" width="3" height="1.9"/><rect x="20.8" y="109.3" class="st2" width="3" height="1.9"/><rect x="20.8" y="114.7" class="st2" width="3" height="1.9"/><rect x="20.8" y="120.2" class="st2" width="3" height="1.9"/><rect x="20.8" y="125.6" class="st2" width="3" height="1.9"/><rect x="20.8" y="131.1" class="st2" width="3" height="1.9"/><rect x="20.8" y="136.5" class="st2" width="3" height="1.9"/><rect x="20.8" y="142" class="st2" width="3" height="1.9"/><rect x="29.4" y="87.5" class="st2" width="3" height="1.9"/><rect x="29.4" y="92.9" class="st2" width="3" height="1.9"/><rect x="29.4" y="98.4" class="st2" width="3" height="1.9"/><rect x="29.4" y="103.8" class="st2" width="3" height="1.9"/><rect x="29.4" y="109.3" class="st2" width="3" height="1.9"/><rect x="29.4" y="114.7" class="st2" width="3" height="1.9"/><rect x="29.4" y="120.2" class="st2" width="3" height="1.9"/><rect x="29.4" y="125.6" class="st2" width="3" height="1.9"/><rect x="29.4" y="131.1" class="st2" width="3" height="1.9"/><rect x="29.4" y="136.5" class="st2" width="3" height="1.9"/><rect x="29.4" y="142" class="st2" width="3" height="1.9"/><rect x="185.6" y="119.2" class="st2" width="3.9" height="3.9"/><rect x="185.6" y="112.5" class="st2" width="3.9" height="3.9"/><rect x="185.6" y="105.8" class="st2" width="3.9" height="3.9"/><rect x="185.6" y="132.6" class="st2" width="3.9" height="3.9"/><rect x="185.6" y="125.9" class="st2" width="3.9" height="3.9"/></g></g><path class="st3" d="M101.5 207.7c-55.7.0-100.9-45.2-100.9-100.9C.6 51.1 45.8 5.9 101.5 5.9s100.9 45.2 100.9 100.9C202.3 162.5 157.2 207.6 101.5 207.7zm0-197c-53.1.0-96.2 43.1-96.2 96.2s43.1 96.2 96.2 96.2 96.2-43.1 96.2-96.2C197.6 53.7 154.6 10.7 101.5 10.7z"/><path class="st4" d="M148.9 170.3c-4.3 6.9-23.8 12.1-47.1 12.1s-42.8-5.2-47.1-12.1c-5.6 2.2-8.8 4.7-8.8 7.5.0 7.7 25 13.9 55.9 13.9s55.9-6.2 55.9-13.9C157.7 175 154.5 172.4 148.9 170.3z"/><path class="st3" d="M101.8 182.3c23.3.0 42.8-5.2 47.1-12.1-10-3.8-27.3-6.4-47.1-6.4s-37.1 2.6-47.1 6.4C59.1 177.1 78.5 182.3 101.8 182.3z"/><path class="st5" d="M141.4 135c3.2-3 6.6-5.7 10.2-8.1 16.4-11.1 11.9-28.4 7.9-42.6-2.8-10 10.8-12.8 16 16.4 5.1 28.6-26.6 51.1-35 51.1"/><path class="st3" d="M140.5 153.3c-.8.1-1.5-.5-1.6-1.3s.5-1.5 1.3-1.6c.1.0.2.0.2.0 4 0 14.8-6.1 23.2-16.2 6.2-7.4 13-19.1 10.4-33.2-2.6-14.5-7.4-20.9-10.6-22-.7-.3-1.4-.2-2 .3-.7.7-1.2 2.2-.5 4.7 3.9 13.6 9.1 32.3-8.5 44.1-3.5 2.4-6.9 5-10 7.9-.7.5-1.6.3-2-.4-.4-.5-.4-1.2.0-1.7 3.2-3 6.7-5.8 10.4-8.2 15.9-10.7 10.9-28.2 7.4-40.9-.9-3.1-.4-6 1.3-7.6 1.3-1.2 3.2-1.6 4.9-1 5.5 1.8 10.2 10.8 12.6 24.2 2.7 15.2-4.5 27.8-11.1 35.6C157.3 146.4 145.8 153.3 140.5 153.3z"/><path class="st6" d="M165.3 79c3.4 8.2 11.8 31 .1 45.7S146 138.6 146 138.6l1.1 11.1c12.2-6.3 32.6-25.6 28.4-48.9C172.8 85.4 169.1 80.3 165.3 79z"/><path class="st3" d="M140.5 153.3c-.8.1-1.5-.5-1.6-1.3s.5-1.5 1.3-1.6c.1.0.2.0.2.0 4 0 14.8-6.1 23.2-16.2 6.2-7.4 13-19.1 10.4-33.2-2.6-14.5-7.4-20.9-10.6-22-.7-.3-1.4-.2-2 .3-.7.7-1.2 2.2-.5 4.7 3.9 13.6 9.1 32.3-8.5 44.1-3.5 2.4-6.9 5-10 7.9-.7.5-1.6.3-2-.4-.4-.5-.4-1.2.0-1.7 3.2-3 6.7-5.8 10.4-8.2 15.9-10.7 10.9-28.2 7.4-40.9-.9-3.1-.4-6 1.3-7.6 1.3-1.2 3.2-1.6 4.9-1 5.5 1.8 10.2 10.8 12.6 24.2 2.7 15.2-4.5 27.8-11.1 35.6C157.3 146.4 145.8 153.3 140.5 153.3z"/><path class="st7" d="M149.2 136c0 29.7-21.5 46.3-48.1 46.3s-48-16.6-48-46.3 21.5-75.9 48.1-75.9 48 46.3 48 75.9z"/><path class="st3" d="M101.2 183.7c-29.6.0-49.4-19.2-49.4-47.7.0-30.5 22.2-77.3 49.4-77.3s49.4 46.8 49.4 77.3c0 28.6-19.9 47.7-49.4 47.7zm0-122.2c-6.7.0-19.8 3.4-32.8 26.2-8.6 15.1-13.9 33.6-13.9 48.4.0 26.9 18.8 44.9 46.7 44.9s46.7-18.1 46.7-44.9c0-14.8-5.3-33.4-13.9-48.4-13-22.8-26.1-26.2-32.8-26.2z"/><path class="st8" d="M101.2 60.1c-.3.0-.6.0-1 0 20.6 1.1 45.3 47.7 45.3 74.8.0 27.4-20.6 42.8-46.1 42.8-9.5.0-18.2-.1-25.4-2.3 8.2 4.7 17.6 7.1 27.1 6.9 26.5.0 48.1-16.6 48.1-46.3s-21.5-75.9-48-75.9z"/><path class="st8" d="M138.3 100.6l-7.6 6.7s8.5-1.8 8.9-3.4S138.3 100.6 138.3 100.6z"/><path class="st8" d="M140.3 106.2l-8.8 6.7s9.9-1.8 10.3-3.4-1.5-3.3-1.5-3.3z"/><path class="st8" d="M142.3 112.1l-10.3 7.8s11.6-2.1 12.1-3.9S142.3 112.1 142.3 112.1z"/><path class="st8" d="M141.9 157.6l-11-6.7s6.3 10 8.1 9.8S141.9 157.6 141.9 157.6z"/><path class="st8" d="M146.7 152l-12.2-4s8.4 8.3 10.1 7.7S146.7 152 146.7 152z"/><path class="st8" d="M62 100.6l9 6.7s-10.1-1.8-10.5-3.4 1.5-3.3 1.5-3.3z"/><path class="st8" d="M59.7 106.2l10.4 6.7s-11.8-1.8-12.2-3.4 1.8-3.3 1.8-3.3z"/><path class="st8" d="M57.3 112.1l12.2 7.8s-13.8-2.1-14.3-3.9S57.3 112.1 57.3 112.1z"/><path class="st2" d="M122.7 128.7c0 14.4-8 26.9-22.8 26.9S77.1 143 77.1 128.7s8-34.9 22.8-34.9 22.8 20.5 22.8 34.9z"/><path class="st3" d="M99.9 157c-14.2.0-24.1-11.6-24.1-28.3.1-8.2 2.1-16.3 6-23.5 4.6-8.2 11-12.7 18.1-12.7s13.5 4.5 18.1 12.7c3.9 7.2 5.9 15.3 6 23.5C124 145.3 114.1 157 99.9 157zm0-61.8c-13.8.0-21.4 19.8-21.4 33.5.0 17.7 10.8 25.6 21.4 25.6s21.4-7.9 21.4-25.6C121.3 115 113.7 95.2 99.9 95.2z"/><path class="st5" d="M143.5 42.7c-.2 2.4-4.7-.7-6.2 1l-31.4-19.2c.9-2.2 1.9-4.3 3.2-6.3 6.6-10.9 20.9-21.9 28-13.9C141.9 9.6 144.6 28.6 143.5 42.7z"/><path class="st9" d="M137.5 4.9l-7.6 6.7s8.5-1.8 8.9-3.4S137.5 4.9 137.5 4.9z"/><path class="st3" d="M137.5 45.5l-1-.6L104 25l.4-1.1c.9-2.3 2-4.5 3.3-6.6 5.1-8.4 15-17.3 23.2-17.3 2.8-.1 5.4 1.1 7.2 3.2 5.4 6 7.9 25.6 6.9 39.6-.1 1.3-1.2 2.4-2.5 2.3h-.1c-.6.0-1.3-.1-1.9-.3-.5-.1-1.1-.2-1.6-.2-.1.0-.3.0-.4.1L137.5 45.5zM138.8 41.6c.7.0 1.5.1 2.2.3.4.1.8.2 1.1.2 1-14.4-1.9-32.3-6.1-37-1.2-1.5-3.1-2.3-5-2.2-6.8.0-15.9 8.1-20.7 15.9-1 1.6-1.8 3.3-2.6 5l29.6 18.1C137.7 41.7 138.3 41.6 138.8 41.6z"/><path class="st3" d="M133.5 33.1c-.1.8-13.3-7-13.3-7 .3-.7.6-1.4 1-2.1 2.2-3.6 6.8-9.2 9.3-6C131.3 19 133.9 28.4 133.5 33.1z"/><path class="st3" d="M133.4 34.6c-.4.0-1.6.0-13.9-7.2l-1.1-.6.4-1.2c.3-.8.7-1.6 1.2-2.3 1.1-1.8 5-7.6 8.8-7.6 1.2.0 2.3.6 3 1.6 1.1 1.4 3.5 11.3 3.2 16C134.9 34 134.2 34.6 133.4 34.6zm-11.3-9c3.8 2.2 7.8 4.4 9.9 5.5-.4-4.1-1.2-8.2-2.6-12.1-.1-.2-.4-.4-.6-.4-1.4.0-4.1 2.7-6.3 6.2C122.4 25 122.3 25.3 122.1 25.6z"/><path class="st7" d="M58.1 43.6c.2 2.4 4.7-.7 6.2 1l31.4-19.2c-.9-2.2-1.9-4.3-3.1-6.3C86 8.2 71.7-2.8 64.6 5.1 59.7 10.6 57 29.6 58.1 43.6z"/><path class="st8" d="M63 8.3l9 6.7s-10.1-1.8-10.5-3.4S63 8.3 63 8.3z"/><path class="st8" d="M59.9 14.4l6.8 4.8s-7.7-1.3-8-2.4 1.2-2.4 1.2-2.4z"/><path class="st3" d="M64 46.5l-.8-.9c-.1.0-.3.0-.4.0-.6.0-1.1.1-1.6.2-.6.2-1.3.2-1.9.3-1.3.1-2.5-.8-2.6-2.2.0-.1.0-.1.0-.2-1-13.9 1.5-33.6 6.9-39.6 1.8-2.1 4.4-3.2 7.2-3.2 8.2.0 18 8.9 23.2 17.3 1.3 2.1 2.4 4.3 3.3 6.6l.4 1.1L64 46.5zM70.7 3.9c-1.9.0-3.8.8-5 2.2-4.2 4.7-7.2 22.6-6.2 37 .3.0.7-.1 1.1-.2 1.2-.3 2.5-.3 3.8.0L94 24.8c-.7-1.7-1.6-3.4-2.6-5C86.6 12 77.5 3.9 70.7 3.9z"/><path class="st3" d="M68.1 34.1c.1.8 13.3-7 13.3-7-.3-.7-.6-1.4-1-2.1-2.2-3.6-6.8-9.2-9.3-6C70.3 19.9 67.7 29.4 68.1 34.1z"/><path class="st3" d="M68.2 35.6c-.8.0-1.5-.6-1.5-1.4-.4-4.7 2.1-14.6 3.2-16 .7-1 1.8-1.6 3-1.6 3.8.0 7.7 5.8 8.8 7.6.5.7.8 1.5 1.2 2.3l.4 1.2-1.1.6c-12.4 7.3-13.6 7.3-14 7.3zM72.8 19.5c-.1.0-.4.0-.7.4-1.4 3.9-2.2 7.9-2.6 12 2.2-1.1 6.2-3.3 9.9-5.5-.1-.3-.3-.5-.4-.8C76.9 22.3 74.1 19.5 72.8 19.5z"/><path class="st10" d="M101.2 41.3c-.6 26.1-9.5 48.5-22.9 57.2 13.4-8.7 22.9-31.1 22.9-57.2z"/><path class="st11" d="M113.8 101.3c1.2 1.5 2.3 3.1 3.2 4.8 9.5-2.5 17.1-7.2 21.4-13.1-.3-.7-.6-1.3-1-2C130.3 96.2 122.3 99.7 113.8 101.3z"/><path class="st11" d="M83.1 105.7c.9-1.7 2-3.3 3.2-4.8-7.8-1.6-15.1-4.9-21.6-9.5-.4.7-.7 1.5-1.1 2.2C67.8 98.9 74.7 103.2 83.1 105.7z"/><path class="st12" d="M100.8 102.5c-4.9.0-9.7-.5-14.5-1.6-1.2 1.5-2.3 3.1-3.2 4.8 5.7 1.7 11.7 2.5 17.7 2.5 5.5.0 10.9-.7 16.2-2.1-.9-1.7-2-3.3-3.2-4.8C109.5 102.1 105.1 102.5 100.8 102.5z"/><path class="st3" d="M99.9 157c-14.2.0-24.1-11.6-24.1-28.3.1-8.2 2.1-16.3 6-23.5 4.6-8.2 11-12.7 18.1-12.7s13.5 4.5 18.1 12.7c3.9 7.2 5.9 15.3 6 23.5C124 145.3 114.1 157 99.9 157zm0-61.8c-13.8.0-21.4 19.8-21.4 33.5.0 17.7 10.8 25.6 21.4 25.6s21.4-7.9 21.4-25.6C121.3 115 113.7 95.2 99.9 95.2z"/><path class="st13" d="M141.1 87.9c-1.2 1.1-2.4 2.1-3.7 3.1.3.7.7 1.3 1 2C139.5 91.4 140.4 89.7 141.1 87.9z"/><path class="st3" d="M101.2 183.7c-29.6.0-49.4-19.2-49.4-47.7.0-30.5 22.2-77.3 49.4-77.3s49.4 46.8 49.4 77.3c0 28.6-19.9 47.7-49.4 47.7zm0-122.2c-6.7.0-19.8 3.4-32.8 26.2-8.6 15.1-13.9 33.6-13.9 48.4.0 26.9 18.8 44.9 46.7 44.9s46.7-18.1 46.7-44.9c0-14.8-5.3-33.4-13.9-48.4-13-22.8-26.1-26.2-32.8-26.2z"/><path class="st7" d="M136.9 55.7c.1-6.3 3.2-12.1 8.4-15.7-9.4-11-25.6-18.2-44.1-18.2-.6.0-1.2.0-1.8.0 1.5 6.4 2.1 13 1.8 19.5.0 26.2-9.5 48.5-22.9 57.2 7.3 2.7 15.1 4 22.9 4 23.4.0 43.2-11.7 50.1-27.8C142.9 71.7 136.9 64.3 136.9 55.7z"/><path class="st3" d="M101.2 104c-8 0-15.9-1.4-23.4-4.1C77 99.6 76.7 98.8 77 98c.1-.3.3-.5.5-.7 13.3-8.7 22.2-31.2 22.2-56 .3-6.4-.3-12.9-1.8-19.1-.2-.8.3-1.6 1-1.8.1.0.2.0.3.0h.3c.5.0 1.1.0 1.6.0 18.2.0 35.1 7 45.2 18.7.5.6.5 1.5-.2 2.1l-.1.1c-4.8 3.3-7.7 8.8-7.8 14.6.0 7.8 5.3 14.7 13.4 17.6.4.1.7.4.8.8.2.4.2.8.0 1.2C145.3 92.4 124.6 104 101.2 104zM81.4 98.1c6.4 2 13 3 19.7 3 21.7.0 40.8-10.2 48.2-25.6-8.5-3.6-13.9-11.2-13.9-19.8.0-6.2 2.9-12.1 7.7-16-9.6-10.4-25.2-16.6-42-16.6 1.2 6 1.7 12.1 1.5 18.2C102.6 66 94.4 87.8 81.4 98.1z"/><path class="st5" d="M101.2 41.3c0-6.5-.6-13.1-1.9-19.5-28.3.7-50.9 18.5-50.9 40.3.0 16 12.2 29.9 29.9 36.4 13.4-8.7 22.3-31.1 22.9-57.2z"/><path class="st3" d="M78.3 1e2c-.2.0-.3.0-.5-.1C59.1 93 47 78.2 47 62.1c0-22.7 23-41 52.3-41.8.7.0 1.3.5 1.5 1.2 1.3 6.5 1.9 13.1 1.9 19.8-.6 26.5-9.8 49.5-23.5 58.5C78.9 99.9 78.6 1e2 78.3 1e2zM98.1 23.3C71 24.5 49.9 41.4 49.9 62.1c0 14.6 11 28.2 28.2 34.8 12.6-8.7 21-30.5 21.6-55.6C99.7 35.2 99.2 29.2 98.1 23.3z"/><path class="st9" d="M52.7 47.4l9 6.7s-10.1-1.8-10.5-3.4 1.5-3.3 1.5-3.3z"/><path class="st9" d="M50.4 53.1l10.4 6.7S49 58 48.6 56.4s1.8-3.3 1.8-3.3z"/><path class="st8" d="M133.6 73.3c0-5.7-4.3-10.3-9.5-10.3-3.7.1-7.1 2.3-8.6 5.8 8.3 2.3 13.9 6.6 13.9 12.3.0.3.0.5-.1.8C132.1 79.9 133.7 76.7 133.6 73.3z"/><path class="st5" d="M99.3 21.8c1.2 6.4 1.9 13 1.8 19.5C101.4 34.7 100.8 28.2 99.3 21.8z"/><path class="st3" d="M101.2 42.8c-.8.0-1.4-.7-1.4-1.5.0-6.5-.6-12.9-1.8-19.2-.1-.8.4-1.5 1.2-1.7.7-.1 1.4.3 1.6 1 1.5 6.5 2.2 13.2 1.9 19.9C102.6 42.1 102 42.7 101.2 42.8z"/><path class="st5" d="M145.3 40c-5.2 3.6-8.3 9.5-8.4 15.8.0 8.6 6 16 14.4 19 1.7-4 2.6-8.2 2.6-12.6C153.8 54 150.7 46.1 145.3 40z"/><path class="st3" d="M152.1 76.5l-1.3-.5c-9.3-3.3-15.4-11.3-15.4-20.3.1-6.8 3.4-13.1 8.9-16.9l1.1-.8.9 1c5.7 6.4 8.9 14.6 9 23.1.0 4.5-.9 9-2.7 13.2L152.1 76.5zM145 42c-4.2 3.4-6.6 8.4-6.7 13.8.0 7.4 4.7 13.9 12.1 17.1 1.3-3.4 2-7 2-10.7C152.4 54.8 149.8 47.7 145 42z"/><ellipse transform="matrix(0.9919 -0.1271 0.1271 0.9919 -5.5581 11.3629)" class="st3" cx="86.3" cy="49.2" rx="12.3" ry="10.6"/><ellipse transform="matrix(0.9919 -0.1271 0.1271 0.9919 -5.752 11.4434)" class="st2" cx="86.8" cy="50.8" rx="8.9" ry="7.7"/><ellipse transform="matrix(0.9919 -0.1267 0.1267 0.9919 -5.7863 11.4134)" class="st3" cx="86.8" cy="51.2" rx="3.3" ry="3"/><path class="st3" d="M76.8 41.5c-.1.0-.2.0-.4-.1L73 40.1c-.5-.3-.6-.9-.2-1.4.2-.3.6-.5 1-.4l3.4 1.3c.5.2.7.8.5 1.3C77.5 41.2 77.1 41.5 76.8 41.5z"/><path class="st3" d="M79.5 39.2c-.2.0-.4-.1-.6-.2l-4.1-2.8c-.4-.3-.5-.9-.2-1.4.3-.4.9-.5 1.4-.2l4.1 2.8c.4.4.5 1 .1 1.4C80 39 79.8 39.2 79.5 39.2z"/><ellipse transform="matrix(0.1271 -0.9919 0.9919 0.1271 54.4198 160.3395)" class="st3" cx="118.3" cy="49.3" rx="10.6" ry="12.3"/><ellipse transform="matrix(0.1271 -0.9919 0.9919 0.1271 52.405 161.1777)" class="st2" cx="117.8" cy="50.8" rx="7.7" ry="8.9"/><ellipse transform="matrix(0.1267 -0.9919 0.9919 0.1267 52.0513 161.5258)" class="st3" cx="117.8" cy="51.2" rx="2.9" ry="3.3"/><path class="st3" d="M127.8 41.5c-.5-.1-.9-.5-.9-1.1.0-.3.2-.6.5-.8l3.4-1.3c.5-.3 1.1-.2 1.4.2.3.5.2 1.1-.2 1.4-.1.1-.3.1-.4.2l-3.4 1.3C128.1 41.5 127.9 41.5 127.8 41.5z"/><path class="st3" d="M125.1 39.2c-.3.0-.6-.2-.8-.4-.3-.4-.2-1 .2-1.4l4.1-2.8c.5-.2 1.1.0 1.3.6.1.3.1.7-.2 1l-4.1 2.8C125.5 39.1 125.3 39.2 125.1 39.2z"/><path class="st2" d="M129.4 81.1c0 8.7-12.7 15.7-28.4 15.7s-28.4-7-28.4-15.7S85.4 67 101 67 129.4 72.4 129.4 81.1z"/><path class="st14" d="M101.2 93.8c-10.3.1-19.9-2.6-28.5-12.7.7 10.6 13.6 15.2 28.2 15.2 15.7.0 27-6 28.4-15.2C121.1 89.9 115.7 93.7 101.2 93.8z"/><path class="st3" d="M101.5 92.2c-8.7.0-16.5-4.5-20.2-11.6-.1-.5.2-1.1.7-1.2.4-.1.8.0 1 .3 3.3 6.4 10.5 10.5 18.4 10.5h.3c7.7-.1 14.8-4.1 18-10.3.4-.4 1-.5 1.4-.1.3.2.4.6.3 1-3.6 6.9-11.2 11.3-19.7 11.4H101.5z"/><path class="st3" d="M101 98.3c-16.7.0-29.8-7.5-29.8-17.2.0-9.2 12.3-15.6 29.8-15.6s29.8 6.4 29.8 15.6C130.9 90.7 117.8 98.3 101 98.3zm0-29.9c-15.6.0-26.9 5.3-26.9 12.7.0 7.7 12.3 14.2 26.9 14.2S128 88.8 128 81.1c0-7.3-11.4-12.7-27-12.7z"/><rect x="100.4" y="72.9" class="st3" width="2.3" height="18.8"/><path class="st3" d="M109.8 67.9c0 4.6-8.3 7.4-8.3 7.4s-8.3-2.8-8.3-7.4 3.7-4.1 8.3-4.1S109.8 63.3 109.8 67.9z"/><ellipse class="st15" cx="101.5" cy="66.8" rx="5.4" ry=".9"/><path class="st8" d="M129.6 163.9c0 4.1-1.8 21.5-12.3 20.2-5.6-.7-13.6-9.5-10.2-11.8 3.6-2.4-3.6-14.9 1.2-11.8S129.6 159.8 129.6 163.9z"/><path class="st2" d="M124 179.2c0 4.1-3.8 5.5-9.9 5.5s-10.9-3.3-10.9-7.4 2.7-7.5 7.9-4.3S124 175.2 124 179.2z"/><path class="st14" d="M113.5 180.9c-3.7-1.4-7.1-3.5-9.9-6.2-.3.7-.4 1.4-.4 2.1.0 4.5 5.3 8.1 11.8 8.1 2.8.0 5.6-.7 8-2.2C119.7 182.6 116.5 182 113.5 180.9z"/><path class="st3" d="M115 186c-7.2.0-13-4.2-13-9.3.0-3.2 2.3-6.2 6.1-7.9-.6-2.7-.9-5.5-1-8.2-.1-.7.4-1.3 1.1-1.4s1.3.4 1.4 1.1c0 .1.0.1.0.2.1 3 .5 5.9 1.1 8.8l.2 1.1-1 .4c-3.4 1.2-5.5 3.5-5.5 6 0 3.8 4.8 6.9 10.6 6.9 4.7.0 8.9-2 10.2-5 2.5-5.9 4.2-12.1 5.1-18.5.1-.7.7-1.1 1.4-1s1.1.7 1 1.4c-.9 6.6-2.7 13-5.3 19.1C125.6 183.4 120.7 186 115 186z"/><path class="st5" d="M71.9 163.9c0 4.1 1.8 21.5 12.3 20.2 5.6-.7 13.6-9.5 10.3-11.8-3.6-2.4 2.2-14.9-2.6-11.8S71.9 159.8 71.9 163.9z"/><path class="st2" d="M77.5 179.2c0 4.1 3.8 5.5 9.9 5.5s10.9-3.3 10.9-7.4-2.7-7.5-7.9-4.3S77.5 175.2 77.5 179.2z"/><path class="st14" d="M89.1 181.3c3.6-1.6 6.9-3.9 9.6-6.8.3.6.5 1.3.5 2 .2 4.5-4.9 8.3-11.4 8.7-2.8.2-5.7-.4-8.2-1.7C82.9 183.3 86.1 182.5 89.1 181.3z"/><path class="st3" d="M86.5 186c-5.7.0-10.7-2.6-12.4-6.4-2.5-6.1-4.3-12.6-5.3-19.1-.1-.7.4-1.3 1.1-1.3.6-.1 1.2.4 1.3 1 .9 6.4 2.6 12.6 5.1 18.5 1.3 2.9 5.5 4.9 10.2 4.9 5.8.0 10.6-3.1 10.6-6.9.0-2.5-2.1-4.8-5.5-6l-1-.4.2-1.1c.7-2.9 1.1-5.8 1.1-8.8.0-.7.6-1.2 1.3-1.2s1.2.6 1.2 1.2c-.1 2.8-.4 5.5-1 8.2 3.8 1.7 6.1 4.6 6.1 7.9C99.6 181.8 93.7 186 86.5 186z"/><circle class="st14" cx="118.5" cy="75.9" r="1.4"/><circle class="st14" cx="115.7" cy="72.4" r="1.4"/><circle class="st14" cx="114.8" cy="77.4" r="1.4"/><circle class="st14" cx="84.8" cy="76" r="1.4"/><circle class="st14" cx="88.5" cy="77.4" r="1.4"/><circle class="st14" cx="87.9" cy="72.9" r="1.4"/><path class="st3" d="M139.7 77.1l-20.2-.2c-.5-.1-.9-.7-.7-1.2.1-.4.4-.6.7-.7l20.2.2c.5.1.9.7.7 1.2C140.3 76.7 140 77 139.7 77.1z"/><path class="st3" d="M116.7 73.3c-.5-.1-.9-.6-.9-1.1.0-.3.2-.6.5-.8l19-7.5c.5-.1 1.1.3 1.1.9.1.4-.1.7-.4 1l-19 7.5C117 73.3 116.8 73.3 116.7 73.3z"/><path class="st3" d="M63.9 77.1c-.6.0-1-.4-1-1s.4-1 1-1l20.2-.2c.5.1.9.7.7 1.2-.1.4-.4.6-.7.7L63.9 77.1z"/><path class="st3" d="M86.9 73.3c-.1.0-.2.0-.3-.1l-19-7.5c-.4-.3-.5-1-.2-1.4.2-.3.6-.4.9-.4l19 7.5c.5.3.7.9.4 1.4C87.5 73.1 87.2 73.3 86.9 73.3z"/><path class="st16" d="M182.4 139.6 154 155.9s-2.4 38.6 28.3 47.8c30.6-8.6 28.3-47.8 28.3-47.8l-28.2-16.3z"/><path class="st17" d="M182.4 139.6v64.1c30.6-8.6 28.3-47.8 28.3-47.8l-28.3-16.3z"/><path class="st18" d="M182.4 139.6 154 155.9s-2.4 38.6 28.3 47.8c30.6-8.6 28.3-47.8 28.3-47.8l-28.2-16.3z"/><polygon class="st2" points="193.1,158.8 177.5,174.4 171.6,168.5 166.6,173.5 172.5,179.4 177.5,184.4 182.5,179.4 198.1,163.8"/></g></g></svg>