<svg xmlns="http://www.w3.org/2000/svg" xmlns:xlink="http://www.w3.org/1999/xlink" viewBox="0 0 500 108.03"><defs><style>.cls-1{fill:url(#linear-gradient);}.cls-2{fill:#fff;}</style><linearGradient id="linear-gradient" y1="54.01" x2="132.4" y2="54.01" gradientUnits="userSpaceOnUse"><stop offset="0" stop-color="orange"/><stop offset="1" stop-color="#e76d2c"/></linearGradient></defs><g id="Layer_2" data-name="Layer 2"><g id="Layer_1-2" data-name="Layer 1"><path class="cls-1" d="M112.46,37l-1.19-8.15L88.08,17.73l-9.41,5.14-1.75,5.22-6.41-5.46L82.39,16,64.1,12,46.85,0l-6,9.73,6.09,19.08L39,18.76,16.22,31.89,0,50.49,17,43,7,62.84,18.12,73.52,32.84,36.64l-5.69,45L55.4,108l2.69-8L39,68.61l7.44-28,11.23-8.23L48.75,59.75,59.2,84.68l21.68,6.57,8.63,5.46-2.06,3.48,9.26,6.73,10.53-2.14,5.77-8,.11-10.5-2.72,4.88h-4l1.35-5.7-6.89,6.1S92.12,87.21,87.37,81.2l1.9-7.28,8.94-8.15-6-7.84,10.37-11.55,12.26,6.56-10.68-3.16L102,52.47l13.77,6-15.11-3.71-.32,3.32,15,5.06-14.57-1.9,7,7.13h0l-1.11,8.18,6.49-8.11,2,0L113.49,76l5.42-7.52c.45-.12,6.38-1.9,6.77-8.37l6.72-7ZM51.76,24.83,47.6,11.77l1.72-3.08L59.89,18ZM73.2,65.53,59.59,59.2l6-28.81,6.72,3.88-3.4,3.4L66.79,54l10.93,6.65s3.4,17.73,3.32,18S73.2,65.53,73.2,65.53ZM99,41.15l-7.67.32-7.36-7,13,1.18,7.75,8.15Zm25.73,16a20.7,20.7,0,0,0-4.36-2.38V52.37l8.15.93Z"/><path class="cls-2" d="M173.16,86.46V35.06H153.89V21.57h54.52V35.06H189.15v51.4Z"/><path class="cls-2" d="M217,86.46V21.57H233V86.46Z"/><path class="cls-2" d="M276.38,87.76a34.74,34.74,0,0,1-17.31-4.11A27.63,27.63,0,0,1,247.85,72a38.36,38.36,0,0,1-3.91-17.91,38.58,38.58,0,0,1,3.91-18,28.14,28.14,0,0,1,11.08-11.73,33,33,0,0,1,16.81-4.15,34.54,34.54,0,0,1,14.95,3.07,24.6,24.6,0,0,1,10.13,8.44,21.39,21.39,0,0,1,3.64,12.28H288.1a10.78,10.78,0,0,0-3.72-7.53,12.66,12.66,0,0,0-8.64-2.94c-4.9,0-8.71,1.83-11.4,5.5s-4,8.58-4,14.75q0,9.6,4.27,15.14a14.08,14.08,0,0,0,11.81,5.54,12.78,12.78,0,0,0,8.4-2.81q3.42-2.82,4.59-8.78H276.83V50.55h16.54q6.72,0,9.63,2.94c1.94,2,2.91,4.73,2.91,8.31a26.16,26.16,0,0,1-1.54,8.48,25.24,25.24,0,0,1-14.13,15A34.3,34.3,0,0,1,276.38,87.76Z"/><path class="cls-2" d="M316.81,86.46V21.57h46.35V34.63H332.62v12.2h28.63V59.38H332.62v14h30.54V86.46Z"/><path class="cls-2" d="M374.33,86.46V21.57h27.08q12.72,0,19.54,4.88t6.81,14a15.06,15.06,0,0,1-3,9.34,18.94,18.94,0,0,1-8.54,6.15q6.27,1.9,8.45,5.66a18.83,18.83,0,0,1,2.18,9.57V86.46H411.22V72.7q0-9.95-9.81-10H390.14V86.46ZM390.14,50h11.27c3.21,0,5.68-.7,7.41-2.12a7.33,7.33,0,0,0,2.59-6,6.5,6.5,0,0,0-2.59-5.5q-2.6-1.93-7.41-1.94H390.14Z"/><path class="cls-2" d="M434.3,86.46l19.63-52.95a52.91,52.91,0,0,1,3.14-7.18,11.82,11.82,0,0,1,4-4.5,11.28,11.28,0,0,1,6.23-1.56,11.7,11.7,0,0,1,6.36,1.56,12.63,12.63,0,0,1,4.13,4.45,41.36,41.36,0,0,1,3.14,7L500,86.46H483.83L479.37,72.7H454.93L450.3,86.46ZM467.11,37,459.29,59.9H475.1L467.65,37c-.06-.23-.15-.35-.27-.35S467.17,36.74,467.11,37Z"/></g></g></svg>