<svg id="Layer_1" data-name="Layer 1" xmlns="http://www.w3.org/2000/svg" xmlns:xlink="http://www.w3.org/1999/xlink" viewBox="0 0 672.68 546.73"><defs><style>.cls-1,.cls-12,.cls-2,.cls-20,.cls-23,.cls-6{fill:none;}.cls-2,.cls-23,.cls-6{stroke:#000;}.cls-2{stroke-width:1.44px;}.cls-3{fill:#f58536;}.cls-4{opacity:0.3;}.cls-5{fill:#fff;}.cls-6{stroke-miterlimit:10;}.cls-12,.cls-20,.cls-23,.cls-6{stroke-width:0.72px;}.cls-7{fill:#f58534;}.cls-8{fill:#0079d6;}.cls-9{fill:#505050;}.cls-10{font-size:8.63px;}.cls-10,.cls-15{fill:#ff8000;}.cls-10,.cls-13,.cls-14,.cls-15{font-family:Helvetica, Helvetica;}.cls-11{fill:#7d7d7d;}.cls-12{stroke:#666;}.cls-13,.cls-14,.cls-15,.cls-16{font-size:9.35px;}.cls-13{fill:#999;}.cls-16,.cls-19,.cls-22{font-family:OpenSans, Open Sans;}.cls-17{clip-path:url(#clip-path);}.cls-18{font-size:12.22px;fill:#777;font-family:OpenSans-Bold, Open Sans;font-weight:700;}.cls-19{font-size:7px;}.cls-20{stroke:#777;}.cls-21{clip-path:url(#clip-path-2);}.cls-22{font-size:7.19px;}</style><clipPath id="clip-path"><rect class="cls-1" x="246.05" y="0.52" width="202.78" height="71.19"/></clipPath><clipPath id="clip-path-2"><rect class="cls-1" x="441.02" y="89.69" width="223.63" height="81.97"/></clipPath></defs><title>Artboard 1</title><path class="cls-2" d="M379.88,180.64H521.1a4.92,4.92,0,0,1,4.9,4.9V298a4.9,4.9,0,0,1-4.9,4.89H379.88A4.88,4.88,0,0,1,375,298V185.54a4.9,4.9,0,0,1,4.89-4.9Z"/><path class="cls-2" d="M9.92,58h211.7a9.2,9.2,0,0,1,9.2,9.2V430a9.2,9.2,0,0,1-9.2,9.2H9.92a8.87,8.87,0,0,1-6.51-2.7A8.86,8.86,0,0,1,.72,430V67.24a8.86,8.86,0,0,1,2.69-6.5A8.87,8.87,0,0,1,9.92,58Z"/><path class="cls-3" d="M9.38,32.88C4.5,32.88.74,29,.74,25.49V24a8.78,8.78,0,0,1,5.53-8.72,11.69,11.69,0,0,1,4-9.23A10.61,10.61,0,0,1,22.18,4.8a11.06,11.06,0,0,1,5,5.47A5.44,5.44,0,0,1,33,10a5.75,5.75,0,0,1,2.81,4.85,8.41,8.41,0,0,1,6,3.65,10.82,10.82,0,0,1,1.64,5.29v1.53c0,3.84-4,7.57-8.61,7.57Z"/><path class="cls-4" d="M43.5,23.78v1.53c0,3.83-4,7.57-8.61,7.57H9.38C4.5,32.88.74,29,.74,25.49V24c0,3.23,3.57,7.28,8.57,7.28H34.5C39.84,31.29,43.5,27.44,43.5,23.78Z"/><path class="cls-5" d="M33.12,19.54H31.54c0-.79-.17-1.3-.66-1.56a1.68,1.68,0,0,0-1.47,0,1.44,1.44,0,0,0-.61,1.38c0,1.1.8,1.5,1.56,1.82a5.57,5.57,0,0,1,2.35,1.15,3.23,3.23,0,0,1,.59,3.22A2.66,2.66,0,0,1,31,27.36a3.89,3.89,0,0,1-2.85-.52,3.32,3.32,0,0,1-1-2.85h1.58A2.56,2.56,0,0,0,29,25.6a1.69,1.69,0,0,0,1.83.46,1.42,1.42,0,0,0,1-1.47,1.67,1.67,0,0,0-1.2-1.74c-1.28-.44-2.23-.65-2.92-1.47a3.06,3.06,0,0,1-.49-2.53,2.57,2.57,0,0,1,1.54-2,4.13,4.13,0,0,1,3.15,0C32.71,17.26,33.18,18.09,33.12,19.54Zm-6.87-2.66-2,10.41h-1.9l-1.3-8.07-1.29,8.07H17.93L16,16.88h1.58l1.37,8.28,1.3-8.28h1.71l1.36,8.34,1.31-8.34Zm-12.75,0,2.67,10.41h-1.7l-.61-2.54H10.94l-.67,2.54H8.57l2.86-10.41Zm-2.31,6.54h2.36L12.4,18.27Z"/><path class="cls-5" d="M276.84,230.62c-20.13,0-25.17,18.33-9.06,22-16.11,8.07,2,25.67,15.1,18.34,9.06,14.67,39.26,14.67,49.32,0,20.14,0,20.14-14.67,7.56-22,12.58-14.66-7.56-29.33-25.17-22C302,216,281.87,216,276.84,230.62Z"/><path class="cls-6" d="M276.84,230.62c-20.13,0-25.17,18.33-9.06,22-16.11,8.07,2,25.67,15.1,18.34,9.06,14.67,39.26,14.67,49.32,0,20.14,0,20.14-14.67,7.56-22,12.58-14.66-7.56-29.33-25.17-22C302,216,281.87,216,276.84,230.62Z"/><path class="cls-3" d="M230.93,274.84A24.78,24.78,0,0,1,206,250.34v-2.8a24.81,24.81,0,0,1,49.62.1v2.43A24.8,24.8,0,0,1,230.93,274.84Z"/><path class="cls-4" d="M206,247.54a24.81,24.81,0,1,0,49.62.1v2.43a24.81,24.81,0,0,1-49.62.27Z"/><path class="cls-5" d="M230.82,270.28l-5.06-8.84h3V234.59h-3l5.07-8.82,5.06,8.82h-3v26.85h3Zm4.25-22.39,8.72-5.06v3.1h9.06V250h-9.06v3Zm-8.5,0L217.84,253v-3h-9.06v-4.08h9.06v-3.11Z"/><path d="M36.15,89.52a14.66,14.66,0,0,1,9.12-3.07h11.5v1.44H45.27A13.25,13.25,0,0,0,37,90.67Zm-4,4.6q.38-.66.81-1.29l1.18.83c-.26.38-.51.76-.74,1.16ZM30.2,110v-8.48a15.46,15.46,0,0,1,.32-3.1l1.41.3a13.86,13.86,0,0,0-.29,2.8V110Zm0,5.75V114.3h1.44v1.44Zm0,15.82V120.05h1.44v11.51Zm0,5.75v-1.44h1.44v1.44Zm0,15.82v-11.5h1.44v11.5Zm0,5.75v-1.43h1.44v1.43Zm0,15.82V163.2h1.44v11.5Zm0,5.76V179h1.44v1.44Zm0,15.82V184.77h1.44v11.51Zm0,5.75v-1.44h1.44V202Zm.09,15.83a14.12,14.12,0,0,1-.09-1.59v-9.93h1.44v9.93a13.9,13.9,0,0,0,.08,1.44Zm1.84,5.79c-.24-.44-.46-.88-.67-1.34l1.32-.58c.18.42.39.82.61,1.22ZM46,231.34h-.76A14.55,14.55,0,0,1,35,227.26l1-1a13.14,13.14,0,0,0,9.32,3.69H46Zm5.75,0H50.34V229.9h1.44Zm15.82,0H56.09V229.9H67.6Zm5.75,0H71.91V229.9h1.44Zm15.82,0H77.67V229.9h11.5Zm5.75,0H93.49V229.9h1.43Zm15.82,0H99.24V229.9h11.5Zm5.76,0h-1.44V229.9h1.44Zm15.82,0H120.81V229.9h11.51Zm5.75,0h-1.44V229.9h1.44Zm15.82,0H142.38V229.9h11.51Zm5.75,0H158.2V229.9h1.44Zm13.71-8a14.46,14.46,0,0,1-9.29,7.47l-.38-1.38a13.09,13.09,0,0,0,8.4-6.77Zm1.69-5.83a14.6,14.6,0,0,1-.19,1.48l-1.42-.25c.08-.45.14-.89.18-1.34Zm.05-15.83v11.51h-1.44V201.65Zm0-5.75v1.44h-1.44V195.9Zm0-15.82v11.51h-1.44V180.08Zm0-5.75v1.44h-1.44v-1.44Zm0-15.82V170h-1.44V158.51Zm0-5.75v1.44h-1.44v-1.44Zm0-15.82v11.5h-1.44v-11.5Zm0-5.75v1.43h-1.44v-1.43Zm0-15.82v11.5h-1.44v-11.5Zm0-5.76v1.44h-1.44v-1.44ZM173,93.78a14.83,14.83,0,0,1,2.13,7.73v3.79h-1.44v-3.79a13.34,13.34,0,0,0-1.93-7Zm-4.13-4.5q.61.45,1.2,1l-1,1.08q-.52-.46-1.08-.87Zm-15.7-2.83H160a15,15,0,0,1,4.74.76l-.45,1.37a13.61,13.61,0,0,0-4.29-.69h-6.9Zm-5.76,0h1.44v1.44h-1.44Zm-15.81,0h11.5v1.44h-11.5Zm-5.76,0h1.44v1.44H125.8Zm-15.82,0h11.51v1.44H110Zm-5.75,0h1.44v1.44h-1.44Zm-15.82,0H99.92v1.44H88.41Zm-5.75,0H84.1v1.44H82.66Zm-15.82,0h11.5v1.44H66.84Zm-5.75,0h1.44v1.44H61.09Z"/><path d="M34.35,252.75a14.66,14.66,0,0,1,9.12-3.08H55v1.44H43.47a13.31,13.31,0,0,0-8.25,2.78Zm-4,4.6a13.37,13.37,0,0,1,.82-1.29l1.17.83a12.57,12.57,0,0,0-.73,1.16ZM28.4,273.22v-8.48a14.71,14.71,0,0,1,.33-3.1l1.4.3a13.86,13.86,0,0,0-.29,2.8v8.48Zm0,5.75v-1.44h1.44V279Zm0,15.82V283.28h1.44v11.51Zm0,5.75V299.1h1.44v1.44Zm0,15.82V304.85h1.44v11.51Zm0,5.75v-1.44h1.44v1.44Zm0,15.82v-11.5h1.44v11.5Zm0,5.75v-1.43h1.44v1.43Zm0,15.82V348h1.44v11.5Zm0,5.76v-1.44h1.44v1.44Zm.09,15.83a14.12,14.12,0,0,1-.09-1.59v-9.93h1.44v9.93a13.9,13.9,0,0,0,.08,1.44Zm1.85,5.79c-.25-.44-.47-.89-.67-1.34L31,385c.19.41.39.82.61,1.21Zm13.89,7.68h-.76a14.6,14.6,0,0,1-10.31-4.07l1-1.05a13.15,13.15,0,0,0,9.32,3.68h.76Zm5.75,0H48.54v-1.44H50Zm15.82,0H54.3v-1.44H65.8Zm5.75,0H70.12v-1.44h1.43Zm15.82,0H75.87v-1.44h11.5Zm5.76,0H91.69v-1.44h1.44Zm15.81,0H97.44v-1.44h11.5Zm5.76,0h-1.44v-1.44h1.44Zm15.82,0H119v-1.44h11.51Zm5.75,0h-1.44v-1.44h1.44Zm15.82,0H140.58v-1.44h11.51Zm5.75,0H156.4v-1.44h1.44Zm13.71-8a14.48,14.48,0,0,1-9.29,7.48l-.38-1.38a13.12,13.12,0,0,0,8.4-6.77Zm1.69-5.82a14.6,14.6,0,0,1-.19,1.48l-1.42-.26a12,12,0,0,0,.18-1.34Zm0-15.83v11.51h-1.44V364.88Zm0-5.75v1.44h-1.44v-1.44Zm0-15.82v11.51h-1.44V343.31Zm0-5.75V339h-1.44v-1.44Zm0-15.82v11.5h-1.44v-11.5Zm0-5.75v1.43h-1.44V316Zm0-15.82v11.5h-1.44v-11.5Zm0-5.76v1.44h-1.44v-1.44Zm0-15.81v11.5h-1.44V278.6Zm0-5.76v1.44h-1.44v-1.44ZM171.16,257a14.83,14.83,0,0,1,2.13,7.73v3.79h-1.44v-3.79a13.4,13.4,0,0,0-1.93-7Zm-4.13-4.5q.61.45,1.2,1l-1,1.08a12.84,12.84,0,0,0-1.08-.87Zm-15.7-2.84h6.9a15,15,0,0,1,4.74.77l-.45,1.37a13.3,13.3,0,0,0-4.29-.7h-6.9Zm-5.75,0H147v1.44h-1.43Zm-15.82,0h11.5v1.44h-11.5Zm-5.76,0h1.44v1.44H124Zm-15.82,0h11.51v1.44H108.18Zm-5.75,0h1.44v1.44h-1.44Zm-15.82,0H98.12v1.44H86.61Zm-5.75,0H82.3v1.44H80.86Zm-15.82,0H76.55v1.44H65Zm-5.75,0h1.44v1.44H59.29Z"/><rect class="cls-2" x="44.94" y="104.06" width="115.05" height="71.19" rx="2.85" ry="2.85"/><rect class="cls-2" x="44.94" y="189.63" width="115.05" height="28.76" rx="1.15" ry="1.15"/><rect class="cls-2" x="43.5" y="267.29" width="115.05" height="71.19" rx="2.85" ry="2.85"/><rect class="cls-2" x="43.5" y="351.42" width="115.05" height="28.76" rx="1.15" ry="1.15"/><path class="cls-7" d="M78.77,167.34a2.42,2.42,0,0,1-2.49-2.41V143.31a2.4,2.4,0,0,1,2.37-2.47H98.19a2.42,2.42,0,0,1,2.48,2.46v21.57a2.47,2.47,0,0,1-2.48,2.47Zm-4.92-9.41h-4.6a2.4,2.4,0,0,1-2.39-2.45V133.84a2.41,2.41,0,0,1,2.39-2.41H88.82a2.38,2.38,0,0,1,2.41,2.39v6.52H78.65a4.91,4.91,0,0,0-4.8,4.86Zm-9.42-9.4H60a2.4,2.4,0,0,1-2.42-2.36V124.43A2.39,2.39,0,0,1,60,122H79.53a2.44,2.44,0,0,1,2.36,2.41v6.49H69.2a4.93,4.93,0,0,0-4.77,4.89Z"/><path class="cls-4" d="M76.28,162.93a2.42,2.42,0,0,0,2.4,2.45H98.25a2.53,2.53,0,0,0,2.42-2.5v2a2.48,2.48,0,0,1-2.48,2.47H78.77a2.43,2.43,0,0,1-2.49-2.41Zm-2.43-7v2h-4.6a2.4,2.4,0,0,1-2.39-2.45v-1.93A2.39,2.39,0,0,0,69.23,156ZM91.23,138.3v2H78.65a4.91,4.91,0,0,0-4.8,4.86v-2a4.9,4.9,0,0,1,4.94-4.9Zm-26.8,8.27v2H60a2.4,2.4,0,0,1-2.42-2.36V144.1A2.41,2.41,0,0,0,60,146.57ZM81.89,129v2H69.2a4.93,4.93,0,0,0-4.77,4.89v-2.07A4.91,4.91,0,0,1,69.25,129Z"/><path class="cls-7" d="M78.77,335.6a2.42,2.42,0,0,1-2.49-2.41V311.57a2.39,2.39,0,0,1,2.37-2.46H98.19a2.41,2.41,0,0,1,2.48,2.45v21.58a2.47,2.47,0,0,1-2.48,2.46Zm-4.92-9.41h-4.6a2.41,2.41,0,0,1-2.39-2.44V302.11a2.41,2.41,0,0,1,2.39-2.41H88.82a2.38,2.38,0,0,1,2.41,2.39v6.51H78.65a4.91,4.91,0,0,0-4.8,4.85Zm-9.42-9.4H60a2.4,2.4,0,0,1-2.42-2.37V292.68A2.39,2.39,0,0,1,60,290.3H79.53a2.44,2.44,0,0,1,2.36,2.41v6.5H69.2a4.92,4.92,0,0,0-4.77,4.88Z"/><path class="cls-4" d="M76.28,331.19a2.41,2.41,0,0,0,2.4,2.44H98.25a2.52,2.52,0,0,0,2.42-2.49v2a2.48,2.48,0,0,1-2.48,2.46H78.77a2.42,2.42,0,0,1-2.49-2.41Zm-2.43-7v2h-4.6a2.41,2.41,0,0,1-2.39-2.44v-1.94a2.4,2.4,0,0,0,2.37,2.42Zm17.38-17.66v2H78.65a4.92,4.92,0,0,0-4.8,4.85v-2a4.89,4.89,0,0,1,4.94-4.89Zm-26.8,8.26v2H60a2.41,2.41,0,0,1-2.42-2.37v-2.05A2.4,2.4,0,0,0,60,314.83Zm17.46-17.59v2H69.2a4.93,4.93,0,0,0-4.77,4.88V302a4.91,4.91,0,0,1,4.82-4.78Z"/><path class="cls-7" d="M155.34,376.23c-6.59,0-10.8-5.08-10.8-9.83v-1.2c0-4.7,4.13-9.82,10.91-9.82,6.16,0,10.67,4.81,10.67,9.8v1.1C166.11,371.52,161.47,376.23,155.34,376.23Z"/><path class="cls-4" d="M144.53,365.2c0,5.93,5,10.17,10.69,10.17s10.89-4,10.89-10.19v1.1c0,5.26-4.63,10-10.77,10-6.57,0-10.8-5.05-10.8-9.83Z"/><path class="cls-5" d="M148.47,371.89V368.2l2.38,1.8Zm2.45-2.38h7.31v-3.58h-7.38l.71-.59-.64-.5h7.31v-3.58h-7.38l.71-.56-.64-.49h8.43v4.63h2.1V363.1l3,2.24-3,2.33v-1.74h-2.1v4.64h-8.5l.7-.57Zm-2.45-2.29v-3.66l2.38,1.77Zm0-4.64v-3.69l2.38,1.81Z"/><path class="cls-7" d="M155.34,214.8c-6.59,0-10.8-5.08-10.8-9.83v-1.2c0-4.7,4.13-9.82,10.91-9.82,6.16,0,10.67,4.81,10.67,9.8v1.1C166.11,210.09,161.47,214.8,155.34,214.8Z"/><path class="cls-4" d="M144.53,203.77c0,5.93,5,10.17,10.69,10.17s10.89-4,10.89-10.19v1.1c0,5.26-4.63,10-10.77,10-6.57,0-10.8-5.05-10.8-9.83Z"/><path class="cls-5" d="M148.47,210.46v-3.69l2.38,1.8Zm2.45-2.38h7.31V204.5h-7.38l.71-.59-.64-.5h7.31v-3.58h-7.38l.71-.56-.64-.5h8.43v4.64h2.1v-1.74l3,2.24-3,2.33V204.5h-2.1v4.64h-8.5l.7-.57Zm-2.45-2.29v-3.66l2.38,1.77Zm0-4.64v-3.69l2.38,1.81Z"/><path class="cls-7" d="M467.42,271.24a2.41,2.41,0,0,1-2.48-2.41V247.21a2.39,2.39,0,0,1,2.36-2.46h19.54a2.41,2.41,0,0,1,2.48,2.45v21.58a2.46,2.46,0,0,1-2.48,2.46Zm-4.92-9.41h-4.59a2.39,2.39,0,0,1-2.39-2.44V237.75a2.4,2.4,0,0,1,2.39-2.41h19.57a2.39,2.39,0,0,1,2.41,2.39v6.52H467.3a4.92,4.92,0,0,0-4.8,4.85Zm-9.42-9.39H448.6a2.41,2.41,0,0,1-2.42-2.37V228.33a2.4,2.4,0,0,1,2.42-2.39h19.58a2.45,2.45,0,0,1,2.37,2.41v6.5H457.86a4.92,4.92,0,0,0-4.78,4.88Z"/><path class="cls-4" d="M464.94,266.84a2.41,2.41,0,0,0,2.39,2.44h19.58a2.52,2.52,0,0,0,2.41-2.5v2a2.47,2.47,0,0,1-2.48,2.46H467.42a2.42,2.42,0,0,1-2.48-2.41Zm-2.44-7v2h-4.59a2.39,2.39,0,0,1-2.39-2.44v-1.94a2.38,2.38,0,0,0,2.36,2.42Zm17.39-17.66v2H467.3a4.91,4.91,0,0,0-4.8,4.85v-2a4.9,4.9,0,0,1,4.94-4.9Zm-26.81,8.26v2H448.6a2.42,2.42,0,0,1-2.42-2.37V248a2.41,2.41,0,0,0,2.44,2.46Zm17.47-17.58v2H457.86a4.94,4.94,0,0,0-4.78,4.88v-2.07a4.91,4.91,0,0,1,4.82-4.77Z"/><path class="cls-7" d="M231.1,167.7a24.72,24.72,0,0,1-24.72-24.38v-3a24.81,24.81,0,0,1,49.62.17v2.86A24.82,24.82,0,0,1,231.1,167.7Z"/><path class="cls-4" d="M206.37,140.35a24.75,24.75,0,0,0,24.31,25.23c15.73,0,25.31-12.38,25.31-25.06v2.86a24.81,24.81,0,0,1-49.61-.06Z"/><path class="cls-5" d="M220.59,150.14c-4,0-7.84-2.76-8.09-6.53a8.22,8.22,0,0,1,4.56-7.84,10,10,0,0,1,14.47-8.52,9.85,9.85,0,0,1,4.23,3.94,5.47,5.47,0,0,1,5.38.51,5.62,5.62,0,0,1,2.28,3.58c3.61.66,7.13,4.45,6.35,8.9-.47,3-4.06,6-7.92,6Zm21.3-2.62c3.06-.06,5.24-2.17,5.45-4.21.3-2.21-1.79-5.25-4.84-5.57l-1.44-.11-.09-1.54a3,3,0,0,0-2-2.61c-1.8-.51-2.55.29-4.16,1.39l-.85-1.76a7.7,7.7,0,0,0-6.82-4.37,7.56,7.56,0,0,0-7.51,7.53v1.39l-1.25.35a5.5,5.5,0,0,0-3.33,5c0,2.67,3,4.48,5.48,4.48Z"/><path class="cls-7" d="M26,72.42c-4.55,0-8.07-3.56-8.07-6.86V64.19a8.17,8.17,0,0,1,5.16-8.1,10.81,10.81,0,0,1,3.78-8.56A9.93,9.93,0,0,1,38,46.35a10.33,10.33,0,0,1,4.65,5.09,5.07,5.07,0,0,1,5.49-.26,5.28,5.28,0,0,1,2.62,4.5,7.91,7.91,0,0,1,5.61,3.38A10.12,10.12,0,0,1,57.89,64V65.4c0,3.56-3.7,7-8,7Z"/><path class="cls-4" d="M57.89,64V65.4c0,3.56-3.7,7-8,7H26c-4.55,0-8.07-3.56-8.07-6.86V64.19c0,3,3.33,6.76,8,6.76H49.48C54.47,71,57.89,67.38,57.89,64Z"/><path class="cls-5" d="M47.56,60.57H46.09a2.89,2.89,0,0,0-.28-1.46,1.12,1.12,0,0,0-1.23-.59c-.38,0-.9.11-1.19,1.08a15.18,15.18,0,0,0-.19,4.46A2.74,2.74,0,0,0,44,66,1.43,1.43,0,0,0,45.5,66a2.89,2.89,0,0,0,.59-2.24h1.47a5.22,5.22,0,0,1-.4,2.23A2.52,2.52,0,0,1,45,67.4a2.7,2.7,0,0,1-2.68-1,6.91,6.91,0,0,1-.76-3.75,8.18,8.18,0,0,1,.73-4.23,2.63,2.63,0,0,1,2.51-1.12,2.47,2.47,0,0,1,2.39,1.33A4.2,4.2,0,0,1,47.56,60.57ZM36.5,67.26H35v-9.7h3a2.3,2.3,0,0,1,2.2,1.22,4.11,4.11,0,0,1,.25,2.38,2.54,2.54,0,0,1-1,1.69,2.83,2.83,0,0,1-1.56.44H36.5Zm0-5.15h1.11a1.35,1.35,0,0,0,1.28-.8,2.72,2.72,0,0,0,0-1.71,1.35,1.35,0,0,0-1.35-.86H36.5Zm-4.82,5.15H29.81l-2.21-9.7h1.58l1.59,7.79,1.7-7.79h1.6Z"/><path class="cls-3" d="M375.17,274.84a24.75,24.75,0,0,1-25-24.45V247.6a24.81,24.81,0,0,1,49.61.27V250A24.75,24.75,0,0,1,375.17,274.84Z"/><path class="cls-4" d="M375.11,272.72a24.77,24.77,0,0,0,24.68-24.85V250a24.81,24.81,0,0,1-49.62.36V247.6A24.9,24.9,0,0,0,375.11,272.72Z"/><polygon class="cls-5" points="374.98 270.26 369.93 261.44 372.94 261.44 372.94 250.09 361.61 250.09 361.61 253.11 352.8 248.06 361.61 242.9 361.61 246 372.94 246 372.94 234.57 369.93 234.57 374.98 225.75 380.05 234.57 377.03 234.57 377.03 246 388.37 246 388.37 242.9 397.19 248.06 388.37 253.12 388.37 250.09 377.03 250.09 377.03 261.44 380.05 261.44 374.98 270.26"/><path class="cls-8" d="M313.78,256.79h-4.33v2.88l-4.12-4.1,4.12-4.1v2.87h4.33Zm-11.91,8.12-4.27-4.24h3v-2.95h2.53v2.95h3Zm-11.93-8.12v-2.45h4.34v-2.87l4.05,4-4.05,4v-2.8Zm7.73-6.32,4.2-4.18,4.18,4.18h-3v3h-2.53v-3Zm-2.31-7A9.11,9.11,0,0,1,297.1,238c1.08-1.22,3.39-1.79,4.91-1.86a7.35,7.35,0,0,1,4.91,1.86,6.87,6.87,0,0,1,1.73,4.6v1.59H295.36Zm19,.79V242.7a11.76,11.76,0,0,0-3.18-8.2c-1.88-2.16-6.07-3.52-9.17-3.52s-7.3,1.36-9.17,3.52a12.08,12.08,0,0,0-3.18,8.2v1.58c-2.82,0-3.83,1.65-3.83,3.81v15c0,1.86,1.15,3.81,3.32,3.81h25.72c2.45,0,3.31-1.95,3.31-3.81v-15C318.18,246.15,317.39,244.28,314.36,244.28Z"/><path class="cls-9" d="M388.73,195.38c-3.74,0-6.88-3.59-6.88-8.14,0-4,2.74-8.34,7.3-8.16,1.14-1.93,3.68-3.57,6.11-3,.19-3.6,2.41-7.6,6.41-8.62s7.08,1.63,8.62,4.71a6.83,6.83,0,0,1,8.56,1.69,10,10,0,0,1,2.3,7.51,7.82,7.82,0,0,1,3.36,7.77c-.47,3.08-2.48,5.76-5.7,6.19Z"/><text class="cls-10" transform="translate(389.94 189.01)">Private</text><text class="cls-10" transform="translate(416.79 189.01)"> </text><path class="cls-11" d="M286.64,151.16a6,6,0,0,1,.83-12,4.61,4.61,0,0,1,5.38-2.33,7.19,7.19,0,0,1,4.5-7,6.06,6.06,0,0,1,7.53,3.85,5.31,5.31,0,0,1,6.56.38,6.83,6.83,0,0,1,2.43,6.64,5.57,5.57,0,0,1-1.54,10.45Z"/><rect class="cls-5" x="278.48" y="393.12" width="222.91" height="53.93"/><rect class="cls-12" x="278.48" y="393.12" width="222.91" height="53.93"/><rect class="cls-5" x="278.48" y="393.12" width="222.91" height="17.98"/><rect class="cls-12" x="278.48" y="393.12" width="222.91" height="17.98"/><text class="cls-13" transform="translate(322.5 405.63)">ROUTE T</text><text class="cls-13" transform="translate(362.83 405.63)">ABLE (Public subnets)</text><rect class="cls-5" x="278.48" y="411.1" width="111.46" height="17.98"/><rect class="cls-12" x="278.48" y="411.1" width="111.46" height="17.98"/><text class="cls-13" transform="translate(326.1 423.62)">vpc</text><rect class="cls-5" x="389.94" y="411.1" width="111.46" height="17.98"/><rect class="cls-12" x="389.94" y="411.1" width="111.46" height="17.98"/><text class="cls-13" transform="translate(435.45 423.62)">local</text><rect class="cls-5" x="278.48" y="429.08" width="111.46" height="17.98"/><rect class="cls-12" x="278.48" y="429.08" width="111.46" height="17.98"/><text class="cls-13" transform="translate(315.3 441.6)">0.0.0.0/0</text><rect class="cls-5" x="389.94" y="429.08" width="111.46" height="17.98"/><rect class="cls-12" x="389.94" y="429.08" width="111.46" height="17.98"/><text class="cls-13" transform="translate(410.27 441.6)">Internet gateway</text><text class="cls-10" transform="translate(67.44 97.64)">A</text><text class="cls-10" transform="translate(73.04 97.64)">vailability Zone A</text><text class="cls-10" transform="translate(66 259.51)">A</text><text class="cls-10" transform="translate(71.6 259.51)">vailability Zone B</text><text class="cls-10" transform="translate(65.92 362.39)">Public  Subnet B</text><text class="cls-10" transform="translate(65.92 200.52)">Public  Subnet A</text><text class="cls-10" transform="translate(67.12 114.9)">Private  Subnet A</text><text class="cls-10" transform="translate(63.52 278.22)">Private  Subnet B</text><path class="cls-7" d="M231.17,322.3A24.76,24.76,0,0,1,256,346.74v2.88c0,13.45-11.31,24.45-24.9,24.45a24.8,24.8,0,0,1-24.72-24.51V347A24.84,24.84,0,0,1,231.17,322.3Z"/><path class="cls-4" d="M256,349.62a24.81,24.81,0,1,0-49.62-.06V347a24.81,24.81,0,0,1,49.62-.28Z"/><path class="cls-5" d="M252,341.94v14.52h-9v-5.82l-14.42,9.25.93,1.43-6.28.72,3.22-5.44,1,1.5,12.23-7.84H228.91V352l-5.66-2.8,5.66-2.81v1.71h10.75l-12.21-7.86-1,1.51-3.22-5.43,6.28.72-.92,1.42L243,347.76v-5.82ZM223.25,332v8.06h-8V332Zm0,13.15v8.06h-8v-8.06Zm0,13.14v8.07h-8v-8.07Z"/><text class="cls-14" transform="translate(248.38 114.9)">igw</text><text class="cls-14" transform="translate(247.09 219.22)">vgw</text><text class="cls-14" transform="translate(345.65 218.5)">cgw</text><text class="cls-15" transform="translate(362.27 218.5)"> </text><text class="cls-14" transform="translate(300.46 214.91)">VPN</text><text class="cls-15" transform="translate(319.67 214.91)"> </text><text class="cls-16" transform="translate(262.37 349.62)">Network Load Balancer (NLB)</text><text class="cls-15" transform="translate(264.48 318.51)"> </text><text class="cls-14" transform="translate(130.9 376.78)">nat</text><text class="cls-15" transform="translate(143.89 376.78)"> </text><text class="cls-14" transform="translate(130.9 214.91)">nat</text><text class="cls-15" transform="translate(143.89 214.91)"> </text><text class="cls-14" transform="translate(98.34 134.33)"><tspan xml:space="preserve">    worker</tspan></text><text class="cls-14" transform="translate(108.98 145.11)">nodes </text><text class="cls-15" transform="translate(137.04 145.11)"> </text><text class="cls-14" transform="translate(94.74 296.2)"><tspan xml:space="preserve">    worker</tspan></text><text class="cls-14" transform="translate(105.38 306.99)">nodes </text><text class="cls-15" transform="translate(133.44 306.99)"> </text><text class="cls-14" transform="translate(462.2 212.75)">On-prem k8s</text><text class="cls-14" transform="translate(475.44 223.53)">cluster</text><text class="cls-15" transform="translate(502.97 223.53)"> </text><rect class="cls-5" x="0.72" y="444.9" width="222.91" height="53.93"/><rect class="cls-12" x="0.72" y="444.9" width="222.91" height="53.93"/><rect class="cls-5" x="0.72" y="444.9" width="222.91" height="17.98"/><rect class="cls-12" x="0.72" y="444.9" width="222.91" height="17.98"/><text class="cls-13" transform="translate(6.48 457.36)">ROUTE T</text><text class="cls-13" transform="translate(46.81 457.36)">ABLE (Private subnets); proprogate=true</text><rect class="cls-5" x="0.72" y="462.88" width="111.46" height="17.98"/><rect class="cls-12" x="0.72" y="462.88" width="111.46" height="17.98"/><text class="cls-13" transform="translate(48.2 475.35)">vpc</text><rect class="cls-5" x="112.18" y="462.88" width="111.46" height="17.98"/><rect class="cls-12" x="112.18" y="462.88" width="111.46" height="17.98"/><text class="cls-13" transform="translate(157.56 475.35)">local</text><rect class="cls-5" x="0.72" y="480.85" width="111.46" height="17.98"/><rect class="cls-12" x="0.72" y="480.85" width="111.46" height="17.98"/><text class="cls-13" transform="translate(37.41 493.33)">0.0.0.0/0</text><rect class="cls-5" x="112.18" y="480.85" width="111.46" height="17.98"/><rect class="cls-12" x="112.18" y="480.85" width="111.46" height="17.98"/><text class="cls-13" transform="translate(138.13 493.33)"> NA</text><text class="cls-13" transform="translate(153.03 493.33)">T gateway</text><text class="cls-13" transform="translate(196.14 493.33)"> </text><rect class="cls-5" x="0.36" y="498.83" width="111.46" height="17.98"/><rect class="cls-12" x="0.36" y="498.83" width="111.46" height="17.98"/><text class="cls-13" transform="translate(8.63 511.32)">external access IPs (*)</text><rect class="cls-5" x="111.82" y="498.83" width="111.46" height="17.98"/><rect class="cls-12" x="111.82" y="498.83" width="111.46" height="17.98"/><text class="cls-13" transform="translate(132.38 511.32)">Internet gateway</text><text class="cls-13" transform="translate(201.49 511.32)"> </text><path class="cls-6" d="M278.48,441.6l-19.07-29.85q-1.8-2.82-9.29-3.66L124.34,394q-7.5-.84-11.45-3.33l-9.48-6"/><polygon points="101.49 381.43 106.21 384.5 103.41 384.69 101.87 387.05 101.49 381.43"/><polygon class="cls-6" points="101.49 381.43 106.21 384.5 103.41 384.69 101.87 387.05 101.49 381.43"/><path class="cls-6" d="M14,444.05l1-124.63q.06-7.19,6.9-9.4l17.23-5.57"/><polygon points="42.76 303.29 38.75 307.23 39.17 304.45 37.2 302.45 42.76 303.29"/><polygon class="cls-6" points="42.76 303.29 38.75 307.23 39.17 304.45 37.2 302.45 42.76 303.29"/><line class="cls-6" x1="285.98" y1="249.08" x2="255.76" y2="249.08"/><line class="cls-6" x1="318.36" y1="249.08" x2="350.01" y2="249.08"/><line class="cls-6" x1="283.82" y1="139.73" x2="255.76" y2="141.89"/><g class="cls-17"><text class="cls-18" transform="translate(246.05 19.93)">Calico Enterprise conﬁguration</text><path d="M267.62,37.91a1.44,1.44,0,1,1-1.44-1.44A1.27,1.27,0,0,1,267.62,37.91Z"/><text class="cls-19" transform="translate(274.81 40.06)">Remote cluster conﬁguration for the on-prem cluster</text><path d="M267.62,48.69a1.44,1.44,0,1,1-1.44-1.44A1.27,1.27,0,0,1,267.62,48.69Z"/><text class="cls-19" transform="translate(274.81 50.85)">No IP pool conﬁguration. SNAT performed by NAT gw</text><path d="M267.62,59.48A1.44,1.44,0,1,1,266.18,58,1.27,1.27,0,0,1,267.62,59.48Z"/><text class="cls-19" transform="translate(274.81 61.64)">No BGP mesh and no BGP conﬁguration</text></g><rect class="cls-20" x="435.04" y="94.35" width="237.29" height="75.5"/><g class="cls-21"><text class="cls-18" transform="translate(441.02 109.11)">Calico Enterprise conﬁguration</text><path d="M462.59,127.08a1.44,1.44,0,1,1-1.43-1.44A1.27,1.27,0,0,1,462.59,127.08Z"/><text class="cls-19" transform="translate(469.78 129.24)">Remote cluster conﬁguration for the AWS cluster</text><path d="M462.59,137.87a1.44,1.44,0,1,1-1.43-1.44A1.27,1.27,0,0,1,462.59,137.87Z"/><text class="cls-22" transform="translate(469.78 140.03)">IP pool conﬁgured for on-prem cluster</text><path d="M462.59,148.65a1.44,1.44,0,1,1-1.43-1.43A1.27,1.27,0,0,1,462.59,148.65Z"/><text class="cls-22" transform="translate(469.78 150.81)">IP pool conﬁgured for AWS (if using SNAT)</text><path d="M462.59,159.44a1.44,1.44,0,1,1-1.43-1.44A1.27,1.27,0,0,1,462.59,159.44Z"/><text class="cls-22" transform="translate(469.78 161.6)">Use appropriate BGP topology (e.g. peering with cgw as RR)</text></g><rect class="cls-5" x="265.2" y="476.26" width="222.91" height="53.93"/><rect class="cls-12" x="265.2" y="476.26" width="222.91" height="53.93"/><rect class="cls-5" x="265.2" y="476.26" width="222.91" height="17.98"/><rect class="cls-12" x="265.2" y="476.26" width="222.91" height="17.98"/><text class="cls-13" transform="translate(311.96 488.41)">Security Group (worker nodes)</text><text class="cls-13" transform="translate(439.24 488.41)"> </text><rect class="cls-5" x="265.2" y="512.21" width="222.91" height="17.98"/><rect class="cls-12" x="265.2" y="512.21" width="222.91" height="17.98"/><text class="cls-13" transform="translate(271.67 524.38)">Add rules according to A</text><text class="cls-13" transform="translate(373.17 524.38)">WS docs for VPN peering</text><text class="cls-13" transform="translate(479.67 524.38)"> </text><rect class="cls-5" x="265.2" y="494.24" width="222.91" height="17.98"/><rect class="cls-23" x="265.2" y="494.24" width="222.91" height="17.98"/><text class="cls-13" transform="translate(271.67 506.4)">Add rules to allow trafﬁc from the peered networks</text><text class="cls-13" transform="translate(479.49 506.4)"> </text><rect class="cls-5" x="265.2" y="528.39" width="222.91" height="17.98"/><rect class="cls-20" x="265.2" y="528.39" width="222.91" height="17.98"/><text class="cls-13" transform="translate(264.48 540.93)">Network Load Balancer rules are added automatically</text><text class="cls-13" transform="translate(486.34 540.93)"> </text><path class="cls-6" d="M242.81,39.73l-35,.28a23.09,23.09,0,0,0-13.13,4.11L177.52,55.85"/><polygon points="174.41 57.98 177.14 53.06 177.52 55.85 179.98 57.22 174.41 57.98"/><polygon class="cls-6" points="174.41 57.98 177.14 53.06 177.52 55.85 179.98 57.22 174.41 57.98"/><path class="cls-6" d="M586,170l-20.5,18.46a61,61,0,0,1-11.65,8.26L530.3,209.49"/><polygon points="526.98 211.29 530.2 206.67 530.3 209.49 532.61 211.09 526.98 211.29"/><polygon class="cls-6" points="526.98 211.29 530.2 206.67 530.3 209.49 532.61 211.09 526.98 211.29"/><rect class="cls-20" x="242.89" y="0.36" width="237.29" height="75.5"/></svg>