<?xml version="1.0" encoding="utf-8"?>
<!-- Generator: Adobe Illustrator 23.0.4, SVG Export Plug-In . SVG Version: 6.00 Build 0)  -->
<svg version="1.1" id="FxSymbol0-05e" focusable="false" xmlns:svg="http://www.w3.org/2000/svg"
	 xmlns="http://www.w3.org/2000/svg" xmlns:xlink="http://www.w3.org/1999/xlink" x="0px" y="0px" viewBox="0 0 50 50"
	 style="enable-background:new 0 0 50 50;" xml:space="preserve">
<style type="text/css">
	.st0{fill:#804998;}
	.st1{fill:#68217A;}
</style>
<g>
	<title></title>
	<path class="st0" d="M22.9,15.9l-7.6,2.9V6.5l7.6,2.7V15.9z"/>
	<path class="st1" d="M8.3,8.6v8.1l5.7,2.2V6.5L8.3,8.6z M8.9,16.1L8.6,16V9.3l0.3-0.1l0.3-0.1L9.6,9v7.3l-0.3-0.1
		C9.2,16.2,8.9,16.1,8.9,16.1z M10.4,16.5L10,16.4V8.9l0.4-0.1l0.4-0.1l0.4-0.1v8.2l-0.4-0.1C10.8,16.7,10.4,16.5,10.4,16.5z
		 M12.2,17.1l-0.5-0.2V8.4l0.5-0.1l0.5-0.2l0.6-0.2v9.5l-0.6-0.2C12.7,17.3,12.2,17.1,12.2,17.1z"/>
	<path class="st0" d="M40.8,15.9l-7.6,2.9V6.5l7.6,2.7V15.9z"/>
	<path class="st1" d="M26.2,8.6v8.1l5.7,2.2V6.5C31.9,6.5,26.2,8.6,26.2,8.6z M26.8,16.1L26.5,16V9.3l0.3-0.1l0.3-0.1L27.5,9v7.3
		l-0.3-0.1C27.1,16.2,26.8,16.1,26.8,16.1z M28.3,16.5l-0.4-0.1V8.9l0.4-0.1l0.4-0.1l0.4-0.1v8.2l-0.4-0.1
		C28.7,16.7,28.3,16.5,28.3,16.5z M30.1,17.1l-0.5-0.2V8.4l0.5-0.1l0.5-0.2l0.6-0.2v9.5l-0.6-0.2C30.6,17.3,30.1,17.1,30.1,17.1z"/>
	<path class="st0" d="M22.9,40.5l-7.6,2.9V31.1l7.6,2.7V40.5z"/>
	<path class="st1" d="M8.3,33.2v8.1l5.7,2.2V31.1L8.3,33.2z M8.9,40.7l-0.3-0.1v-6.7l0.3-0.1l0.3-0.1l0.3-0.1v7.3l-0.3-0.1
		C9.2,40.8,8.9,40.7,8.9,40.7z M10.4,41.1L10,41v-7.5l0.4-0.1l0.4-0.1l0.4-0.1v8.2l-0.4-0.1C10.8,41.2,10.4,41.1,10.4,41.1z
		 M12.2,41.7l-0.5-0.2V33l0.5-0.1l0.5-0.2l0.6-0.2V42l-0.6-0.2C12.7,41.9,12.2,41.7,12.2,41.7z"/>
	<path class="st0" d="M40.8,40.5l-7.6,2.9V31.1l7.6,2.7V40.5z"/>
	<path class="st1" d="M26.2,33.2v8.1l5.7,2.2V31.1L26.2,33.2z M26.8,40.7l-0.3-0.1v-6.7l0.3-0.1l0.3-0.1l0.3-0.1v7.3l-0.3-0.1
		C27.1,40.8,26.8,40.7,26.8,40.7z M28.3,41.1L27.9,41v-7.5l0.4-0.1l0.4-0.1l0.4-0.1v8.2l-0.4-0.1C28.7,41.2,28.3,41.1,28.3,41.1z
		 M30.1,41.7l-0.5-0.2V33l0.5-0.1l0.5-0.2l0.6-0.2V42l-0.6-0.2C30.6,41.9,30.1,41.7,30.1,41.7z"/>
	<path class="st0" d="M32.4,28.2l-7.6,2.9V18.8l7.6,2.7V28.2z"/>
	<path class="st1" d="M17.8,20.8v8.1l5.7,2.2V18.8L17.8,20.8z M18.4,28.3l-0.3-0.1v-6.7l0.3-0.1l0.3-0.1l0.3-0.1v7.3l-0.3-0.1
		C18.8,28.4,18.4,28.3,18.4,28.3z M19.9,28.8l-0.4-0.1v-7.5l0.4-0.1l0.4-0.1l0.4-0.1v8.2l-0.4-0.1C20.3,28.9,19.9,28.8,19.9,28.8z
		 M21.7,29.4l-0.5-0.2v-8.5l0.5-0.1l0.5-0.2l0.6-0.2v9.5l-0.6-0.2L21.7,29.4z"/>
	<path class="st0" d="M14.6,28.2L7,31.1V18.8l7.6,2.7V28.2z"/>
	<path class="st1" d="M0,20.8v8.1l5.7,2.2V18.8L0,20.8z M0.6,28.3l-0.3-0.1v-6.7l0.3-0.1L1,21.4l0.3-0.1v7.3L1,28.4
		C1,28.4,0.6,28.3,0.6,28.3z M2.1,28.8l-0.4-0.1v-7.5L2.1,21l0.4-0.1l0.4-0.1V29l-0.4-0.1C2.5,28.9,2.1,28.8,2.1,28.8z M3.9,29.4
		l-0.5-0.2v-8.5l0.5-0.1l0.5-0.2L5,20.2v9.5l-0.6-0.2C4.5,29.5,3.9,29.4,3.9,29.4z"/>
	<path class="st0" d="M50,28.2l-7.6,2.9V18.8l7.6,2.7V28.2z"/>
	<path class="st1" d="M35.4,20.8v8.1l5.7,2.2V18.8L35.4,20.8z M36,28.3l-0.3-0.1v-6.7l0.3-0.1l0.3-0.1l0.3-0.1v7.3l-0.3-0.1
		C36.4,28.4,36,28.3,36,28.3z M37.5,28.8l-0.4-0.1v-7.5l0.4-0.1l0.4-0.1l0.4-0.1v8.2l-0.4-0.1C37.9,28.9,37.5,28.8,37.5,28.8z
		 M39.3,29.4l-0.5-0.2v-8.5l0.5-0.1l0.5-0.2l0.6-0.2v9.5l-0.6-0.2L39.3,29.4z"/>
</g>
</svg>
