<?xml version="1.0" encoding="utf-8"?>
<!-- Generator: Adobe Illustrator 19.0.0, SVG Export Plug-In . SVG Version: 6.00 Build 0)  -->
<svg version="1.1" id="layer" xmlns="http://www.w3.org/2000/svg" xmlns:xlink="http://www.w3.org/1999/xlink" x="0px" y="0px"
	 viewBox="-153 -46 652 652" style="enable-background:new -153 -46 652 652;" xml:space="preserve">
<style type="text/css">
	.st0{fill:#404041;}
	.st1{fill:#EC1C24;}
</style>
<path class="st0" d="M338.9,423.3c6,0,9.5,3.3,9.5,9.4c0,6.1-3.5,9.4-9.5,9.4s-9.4-3.2-9.4-9.4C329.5,426.6,332.9,423.3,338.9,423.3
	z M375.2,343.1c4.9,0,8.3,2,8.3,7.5c0,5.6-3.3,7.6-8.3,7.6c-5.1,0-8.6-2-8.6-7.6C366.6,345.1,370.1,343.1,375.2,343.1z M368.1,370.5
	H382v69.9h-13.9V370.5z M436.6,368.7c21.9,0,37.4,15.8,37.4,37c0,21-15.5,36.6-37.4,36.6c-21.6,0-37.3-15.6-37.3-36.6
	C399.3,384.4,415,368.7,436.6,368.7z M436.6,429.4c14.3,0,24-10.3,24-23.8c0-13.8-9.8-24.2-24-24.2c-14.2,0-23.8,10.4-23.8,24.2
	C412.8,419.2,422.4,429.4,436.6,429.4z"/>
<path class="st1" d="M309.4,253.7c-0.6-5.1-10.4-9.8-10.4-9.8c-4.1-2.8-4.9-9.8-4.3-12.4c0.5-2.6,9.1-22.2,9.1-22.2
	c7-6.9,19.1-21.4,20.5-29.5c0.6-3.8-1.9-23.5,3.3-30.1c3.4-4.3,13.5-9.3,15.6-11c2.1-1.7,3.8-6.6,2.8-9c-0.9-2.3-16.6-2.4-16.6-2.4
	s-1.3-6.5-10.6-7.1c-3.7-0.1-6.2,0.8-6.2,0.8c1.1-0.5,2.8-1.3,4.1-1.9c-0.3-2.2-1.1-6.9-2-7.1c-0.9-0.2-2.9,3.2-3.8,4.4l0.2,2.1
	l-0.7-1.7l-1-2.5l0,0l0,0c-0.4-1.1-0.8-2-1.3-2.1c-0.9-0.2-23,30.7-25.7,34.7c-2.7,4-5.6,10.8-20.5,15.4c-10.5,3.3-32.3,3.8-49,9.2
	l0,0c-8.6,0.9-32.2,20.4-50.2,19.7c-12.1-0.5-21.5-3.8-23.9-9.2c0,0,2.5,25,15.5,26.4c0,0,8.2,1.4,16-5.6c0,0-2.2,4.4-5.1,5.7
	c0,0,10.9-2.8,17.6-7.8c2-4.3,5.6-10.5,10.6-15.2c0.3-0.3,0.5-0.5,0.5-0.5c-0.2,0.2-0.3,0.3-0.5,0.5c-1.6,1.6-6.5,6.9-7.2,14.9
	c-0.1,1.6-0.1,3.3,0.1,5.1c0,5.4,5.8,12.6,5.8,15.8c0,4.3-10.1,12.2-10.8,14.3c-0.4,1.2-1.4,10.2,0.4,18h-35.7
	c-34.3,0-47.5,34.3-47.5,34.3l-14.7,41.1h-6.4c-5,0-9,4-9,9c0,4.9,4,8.9,8.9,9l0,0h0.1H81c5,0,9,4,9,9c0,5-4,9-9,9H-9.1
	c-5,0-9,4-9,9s4,9,9,9h93.1c5,0,9,4,9,9c0,5-4,9-9,9H64.5H-39.6h-19.6c-5,0-9,4-9,9c0,5,4,9,9,9H51.4l-8.3,23.1h68.6l21.6-60.1h1
	c48.2,0,66.4-51.5,66.4-51.5h-49l9.2-25.7h53.7c34.3,0,50.6-51.5,50.6-51.5h-67.2c-1.5-2.9-3-5.7-3-7.9c0-11.2,30.2-18.5,29.2-36.5
	c-2.5-10.2,1.5-15.7,1.5-15.7c-2.5,5.6,0,12,1.3,14.5c0,0,0,0,0.1,0c8.4,0,25.3,9.3,35.8,9.3c6.9,0,12.3-1.4,15.2-2.4
	c0.4-2.4,0.5-8.6-8.7-12.7c0,0,11.1,0.1,11,11.8c0,0-1.3,19,0.4,32.8c0.3,2.7,1,4.9,1.9,6.7h-0.3c-8.3,33.3-33.4,51.5-33.4,51.5
	h36.7l-31.4,85.8l0,0h-73.9c-34.3,0-51.5,51.5-51.5,51.5h106.6c34.3,0,67.5,3.2,87.1-51.5l24.6-68.6
	C361.5,282.7,341.1,256.5,309.4,253.7z M-94.1,401.1H-117c-5,0-9,4-9,9c0,5,4,9,9,9h22.8c5,0,9-4,9-9
	C-85.1,405.1-89.2,401.1-94.1,401.1z M-24.6,346.9h72.8c5,0,9-4,9-9c0-5-4-9-9-9H-66.4c-5,0-9,4-9,9c0,5,4,9,9,9H-24.6z
	 M-18.9,310.8h98.4c5,0,9-4,9-9c0-5-4-9-9-9h-98.4c-5,0-9,4-9,9C-27.9,306.8-23.8,310.8-18.9,310.8z"/>
</svg>
