<svg xmlns="http://www.w3.org/2000/svg" xmlns:xlink="http://www.w3.org/1999/xlink" viewBox="0 0 127.87 125.17"><defs><style>.cls-1{fill:url(#linear-gradient);}.cls-2{fill:#242020;}.cls-3{fill:#194175;}.cls-4{fill:#15254b;}.cls-5{fill:#764e29;}.cls-6{fill:#603a17;}.cls-7{fill:#f69320;}.cls-8{fill:#f37828;}.cls-9{fill:#fff;}.cls-10{fill:#3c2517;}.cls-11{fill:none;}.cls-12{fill:#603e1b;}.cls-13{fill:#58391a;}.cls-14{fill:#533518;}.cls-15{fill:#e6e7e7;}.cls-16{fill:#a7a8ab;}.cls-17{fill:#0f90c5;}.cls-18{fill:#273981;}</style><linearGradient id="linear-gradient" x1="60.79" y1="-144.24" x2="60.79" y2="-21.46" gradientTransform="translate(0 142)" gradientUnits="userSpaceOnUse"><stop offset="0" stop-color="#fff"/><stop offset="1" stop-color="#0256a0"/></linearGradient></defs><g id="Layer_2" data-name="Layer 2"><g id="Layer_1-2" data-name="Layer 1"><circle class="cls-1" cx="60.79" cy="64.38" r="59.67"/><path class="cls-2" d="M60.79,125.17a60.8,60.8,0,1,1,60.8-60.79A60.86,60.86,0,0,1,60.79,125.17Zm0-118.77a58,58,0,1,0,58,58A58,58,0,0,0,60.79,6.4Z"/><path class="cls-3" d="M89.37,102.62c-2.61,4.15-14.32,7.28-28.38,7.28s-25.77-3.13-28.37-7.28c-3.37,1.3-5.34,2.85-5.34,4.51,0,4.62,15.09,8.36,33.71,8.36s33.71-3.74,33.71-8.36C94.7,105.47,92.74,103.92,89.37,102.62Z"/><path class="cls-4" d="M61,109.9c14.06,0,25.77-3.13,28.38-7.28-6-2.32-16.46-3.85-28.38-3.85s-22.38,1.53-28.37,3.85C35.22,106.77,46.93,109.9,61,109.9Z"/><path class="cls-5" d="M84.86,81.37A47.66,47.66,0,0,1,91,76.51c9.89-6.67,7.18-17.15,4.78-25.64-1.71-6.06,6.48-7.69,9.64,9.85,3.1,17.27-16,30.81-21.13,30.81"/><path class="cls-2" d="M84.3,92.41a.88.88,0,1,1,0-1.76c2.42,0,8.91-3.71,14-9.75,3.72-4.44,7.83-11.52,6.3-20-1.57-8.75-4.44-12.6-6.42-13.25a1.15,1.15,0,0,0-1.21.18c-.42.4-.71,1.35-.29,2.82,2.31,8.2,5.48,19.44-5.14,26.61a45.84,45.84,0,0,0-6,4.76.88.88,0,1,1-1.24-1.26,49,49,0,0,1,6.28-5c9.57-6.45,6.6-17,4.43-24.68-.53-1.88-.25-3.58.76-4.55a2.87,2.87,0,0,1,3-.59c3.32,1.08,6.16,6.54,7.61,14.61,1.65,9.16-2.72,16.73-6.68,21.46C94.42,88.24,87.5,92.41,84.3,92.41Z"/><path class="cls-6" d="M99.25,47.64c2.07,4.94,7.09,18.71.09,27.52s-11.69,8.37-11.69,8.37l.68,6.68c7.38-3.8,19.63-15.4,17.1-29.49C103.76,51.45,101.53,48.38,99.25,47.64Z"/><path class="cls-2" d="M84.3,92.41a.88.88,0,1,1,0-1.76c2.42,0,8.91-3.71,14-9.75,3.72-4.44,7.83-11.52,6.3-20-1.57-8.75-4.44-12.6-6.42-13.25a1.15,1.15,0,0,0-1.21.18c-.42.4-.71,1.35-.29,2.82,2.31,8.2,5.48,19.44-5.14,26.61a45.84,45.84,0,0,0-6,4.76.88.88,0,1,1-1.24-1.26,49,49,0,0,1,6.28-5c9.57-6.45,6.6-17,4.43-24.68-.53-1.88-.25-3.58.76-4.55a2.87,2.87,0,0,1,3-.59c3.32,1.08,6.16,6.54,7.61,14.61,1.65,9.16-2.72,16.73-6.68,21.46C94.42,88.24,87.5,92.41,84.3,92.41Z"/><path class="cls-7" d="M89.57,82c0,17.88-13,27.9-29,27.9s-29-10-29-27.9,13-45.78,29-45.78S89.57,64.11,89.57,82Z"/><path class="cls-2" d="M60.6,110.73c-17.82,0-29.8-11.54-29.8-28.73,0-18.41,13.35-46.62,29.8-46.62S90.4,63.59,90.4,82C90.4,99.19,78.43,110.73,60.6,110.73Zm0-73.68c-4,0-12,2.05-19.75,15.76C35.68,61.89,32.47,73.07,32.47,82c0,16.19,11.31,27.07,28.13,27.07S88.74,98.19,88.74,82c0-8.93-3.21-20.11-8.38-29.19C72.55,39.1,64.63,37.05,60.6,37.05Z"/><path class="cls-8" d="M60.6,36.22l-.57,0C72.47,36.91,87.36,65,87.36,81.31c0,16.52-12.44,25.78-27.78,25.78-5.74,0-11-.08-15.28-1.37a31.85,31.85,0,0,0,16.3,4.18c16,0,29-10,29-27.9S76.6,36.22,60.6,36.22Z"/><path class="cls-8" d="M83,60.62l-4.55,4.05s5.15-1.1,5.35-2S83,60.62,83,60.62Z"/><path class="cls-8" d="M84.17,64l-5.3,4s6-1.1,6.23-2S84.17,64,84.17,64Z"/><path class="cls-8" d="M85.4,67.54l-6.2,4.67s7-1.27,7.29-2.34S85.4,67.54,85.4,67.54Z"/><path class="cls-8" d="M85.14,95,78.5,91s3.77,6,4.87,5.9S85.14,95,85.14,95Z"/><path class="cls-8" d="M88.05,91.6l-7.39-2.4s5.06,5,6.1,4.63S88.05,91.6,88.05,91.6Z"/><path class="cls-8" d="M37,60.62l5.4,4.05s-6.1-1.1-6.34-2S37,60.62,37,60.62Z"/><path class="cls-8" d="M35.61,64l6.28,4s-7.09-1.1-7.38-2S35.61,64,35.61,64Z"/><path class="cls-8" d="M34.16,67.54l7.34,4.67s-8.3-1.27-8.63-2.34S34.16,67.54,34.16,67.54Z"/><path class="cls-9" d="M73.57,77.56c0,8.67-4.85,16.23-13.72,16.23S46.13,86.23,46.13,77.56s4.85-21,13.72-21S73.57,68.89,73.57,77.56Z"/><path class="cls-2" d="M59.85,94.6c-8.56,0-14.53-7-14.53-17A30.56,30.56,0,0,1,49,63.4c2.76-4.95,6.63-7.67,10.9-7.67S68,58.45,70.74,63.4a30.45,30.45,0,0,1,3.64,14.16C74.38,87.59,68.4,94.6,59.85,94.6Zm0-37.25c-8.31,0-12.91,11.95-12.91,20.21C46.94,88.21,53.42,93,59.85,93s12.91-4.77,12.91-15.42C72.76,69.3,68.16,57.35,59.85,57.35Z"/><path class="cls-5" d="M86.11,25.71c-.11,1.45-2.83-.45-3.75.6l-19-11.59a24.7,24.7,0,0,1,1.9-3.82C69.3,4.36,77.9-2.28,82.2,2.51,85.13,5.78,86.75,17.25,86.11,25.71Z"/><path class="cls-10" d="M82.53,3,78,7s5.15-1.1,5.36-2S82.53,3,82.53,3Z"/><path class="cls-2" d="M82.53,27.44l-.63-.38-19.58-12,.27-.69a25.08,25.08,0,0,1,2-4C67.65,5.38,73.6,0,78.52,0a5.6,5.6,0,0,1,4.33,1.92c3.23,3.6,4.77,15.46,4.13,23.85a1.45,1.45,0,0,1-1.57,1.39A6,6,0,0,1,84.25,27a5.72,5.72,0,0,0-1-.15c-.2,0-.25,0-.25,0Zm.74-2.34a6.37,6.37,0,0,1,1.33.18c.23,0,.47.09.65.11.61-8.7-1.17-19.47-3.71-22.29a3.86,3.86,0,0,0-3-1.34c-4.13,0-9.58,4.88-12.46,9.6a25.12,25.12,0,0,0-1.56,3L82.34,25.27A2.27,2.27,0,0,1,83.27,25.1Z"/><path class="cls-2" d="M80.1,20c0,.49-8-4.19-8-4.19a8.33,8.33,0,0,1,.63-1.27c1.33-2.17,4.13-5.56,5.63-3.59A26.68,26.68,0,0,1,80.1,20Z"/><path class="cls-2" d="M80,20.87c-.24,0-1,0-8.38-4.35L71,16.14l.27-.7A9.73,9.73,0,0,1,72,14c.66-1.08,3-4.6,5.28-4.6a2.2,2.2,0,0,1,1.8.94c.64.84,2.12,6.83,1.91,9.65A.93.93,0,0,1,80,20.87ZM73.23,15.4c2.29,1.33,4.68,2.67,6,3.32a29.71,29.71,0,0,0-1.57-7.32.43.43,0,0,0-.38-.21c-.83,0-2.49,1.65-3.78,3.76C73.4,15.1,73.31,15.25,73.23,15.4Z"/><path class="cls-7" d="M34.64,26.29c.11,1.45,2.82-.44,3.74.6l19-11.58a24.26,24.26,0,0,0-1.9-3.82C51.44,5,42.85-1.69,38.55,3.1,35.61,6.37,34,17.84,34.64,26.29Z"/><path class="cls-8" d="M37.62,5,43,9s-6.1-1.1-6.34-2S37.62,5,37.62,5Z"/><path class="cls-8" d="M35.72,8.68l4.11,2.91S35.18,10.8,35,10.14,35.72,8.68,35.72,8.68Z"/><path class="cls-2" d="M38.23,28l-.5-.55a.79.79,0,0,0-.25,0,5.59,5.59,0,0,0-1,.14,6,6,0,0,1-1.16.16h0a1.44,1.44,0,0,1-1.57-1.38c-.64-8.39.9-20.25,4.13-23.85A5.61,5.61,0,0,1,42.23.59C47.15.59,53.09,6,56.19,11a25.13,25.13,0,0,1,2,4l.27.68Zm4-25.68a3.87,3.87,0,0,0-3,1.34c-2.54,2.83-4.32,13.6-3.71,22.3l.65-.12a4.23,4.23,0,0,1,2.26,0L56.24,15a23,23,0,0,0-1.55-3C51.8,7.23,46.35,2.34,42.23,2.34Z"/><path class="cls-2" d="M40.64,20.54c0,.48,8-4.19,8-4.19A7.56,7.56,0,0,0,48,15.08c-1.33-2.18-4.12-5.56-5.63-3.59A26.93,26.93,0,0,0,40.64,20.54Z"/><path class="cls-2" d="M40.71,21.45h0a.91.91,0,0,1-.93-.84C39.55,17.79,41,11.8,41.67,11a2.21,2.21,0,0,1,1.8-.94c2.29,0,4.62,3.52,5.28,4.6a8.41,8.41,0,0,1,.7,1.41l.28.69-.65.38C41.71,21.44,41,21.45,40.71,21.45Zm2.76-9.68c-.07,0-.21,0-.4.25a30.63,30.63,0,0,0-1.55,7.28c1.32-.65,3.71-2,6-3.31a4.83,4.83,0,0,0-.26-.45C46,13.43,44.3,11.77,43.47,11.77Z"/><path class="cls-11" d="M60.6,24.89c-.36,15.76-5.72,29.21-13.78,34.5C54.88,54.1,60.6,40.66,60.6,24.89Z"/><path class="cls-12" d="M68.19,61A19.43,19.43,0,0,1,70.12,64c5.7-1.52,10.31-4.36,12.89-7.89-.19-.41-.39-.8-.59-1.2A34.92,34.92,0,0,1,68.2,61Z"/><path class="cls-12" d="M49.72,63.7a20.2,20.2,0,0,1,1.94-2.86,34.79,34.79,0,0,1-13-5.72c-.22.43-.43.87-.65,1.32C40.49,59.62,44.64,62.19,49.72,63.7Z"/><path class="cls-13" d="M60.37,61.79a39.88,39.88,0,0,1-8.71-.95h0a20.2,20.2,0,0,0-1.94,2.86h0a38.47,38.47,0,0,0,20.4.26h0A19.43,19.43,0,0,0,68.19,61,40.67,40.67,0,0,1,60.37,61.79Z"/><path class="cls-2" d="M59.85,94.6c-8.56,0-14.53-7-14.53-17A30.56,30.56,0,0,1,49,63.4c2.76-4.95,6.63-7.67,10.9-7.67S68,58.45,70.74,63.4a30.45,30.45,0,0,1,3.64,14.16C74.38,87.59,68.4,94.6,59.85,94.6Zm0-37.25c-8.31,0-12.91,11.95-12.91,20.21C46.94,88.21,53.42,93,59.85,93s12.91-4.77,12.91-15.42C72.76,69.3,68.16,57.35,59.85,57.35Z"/><path class="cls-14" d="M84.67,53c-.71.66-1.46,1.28-2.25,1.89.2.4.4.79.59,1.2A12,12,0,0,0,84.67,53Z"/><path class="cls-2" d="M60.6,110.73c-17.82,0-29.8-11.54-29.8-28.73,0-18.41,13.35-46.62,29.8-46.62S90.4,63.59,90.4,82C90.4,99.19,78.43,110.73,60.6,110.73Zm0-73.68c-4,0-12,2.05-19.75,15.76C35.68,61.89,32.47,73.07,32.47,82c0,16.19,11.31,27.07,28.13,27.07S88.74,98.19,88.74,82c0-8.93-3.21-20.11-8.38-29.19C72.55,39.1,64.63,37.05,60.6,37.05Z"/><path class="cls-7" d="M82.14,33.6a11.82,11.82,0,0,1,5-9.51c-5.69-6.61-15.46-11-26.58-11l-1.11,0A43.55,43.55,0,0,1,60.6,24.89c0,15.77-5.72,29.21-13.78,34.5a40.1,40.1,0,0,0,13.78,2.4c14.11,0,26.06-7,30.22-16.77C85.74,43.22,82.14,38.78,82.14,33.6Z"/><path class="cls-2" d="M60.6,62.66a40.48,40.48,0,0,1-14.08-2.45.88.88,0,0,1-.18-1.56c8-5.25,13.38-18.82,13.38-33.76a42.62,42.62,0,0,0-1.08-11.54.88.88,0,0,1,.15-.75.9.9,0,0,1,.68-.35h.16l1,0c11,0,21.17,4.22,27.24,11.29a.87.87,0,0,1,.21.67.89.89,0,0,1-.35.61A10.92,10.92,0,0,0,83,33.6c0,4.69,3.18,8.85,8.09,10.59a.84.84,0,0,1,.51.48.87.87,0,0,1,0,.69C87.2,55.71,74.74,62.66,60.6,62.66ZM48.71,59.11a39.31,39.31,0,0,0,11.89,1.8c13.06,0,24.58-6.16,29-15.41-5.12-2.17-8.38-6.75-8.38-11.9A12.54,12.54,0,0,1,85.9,24c-5.81-6.27-15.18-10-25.3-10h0a46.47,46.47,0,0,1,.88,10.92C61.48,39.77,56.52,52.93,48.71,59.11Z"/><path class="cls-5" d="M60.6,24.89a61.69,61.69,0,0,0-1.11-11.76c-17,.45-30.68,11.16-30.68,24.32,0,9.66,7.36,18,18,21.94C54.88,54.1,60.24,40.65,60.6,24.89Z"/><path class="cls-2" d="M46.82,60.26a.79.79,0,0,1-.3,0c-11.29-4.16-18.59-13.1-18.59-22.76,0-13.66,13.85-24.73,31.53-25.2a.89.89,0,0,1,.89.71,62.67,62.67,0,0,1,1.13,11.93c-.37,16-5.93,29.82-14.18,35.23A.82.82,0,0,1,46.82,60.26ZM58.76,14c-16.36.72-29.07,10.9-29.07,23.41,0,8.8,6.66,17,17,20.95,7.57-5.27,12.66-18.35,13-33.53A60.67,60.67,0,0,0,58.76,14Z"/><path class="cls-10" d="M31.39,28.59l5.39,4.05s-6.09-1.1-6.34-2S31.39,28.59,31.39,28.59Z"/><path class="cls-10" d="M30,32,36.28,36s-7.09-1.1-7.37-2S30,32,30,32Z"/><path class="cls-8" d="M80.15,44.17A6,6,0,0,0,74.41,38a5.7,5.7,0,0,0-5.15,3.49c5,1.37,8.37,4,8.37,7.44a3.41,3.41,0,0,1,0,.46A6.34,6.34,0,0,0,80.15,44.17Z"/><path class="cls-5" d="M59.49,13.13A61.69,61.69,0,0,1,60.6,24.89,43.55,43.55,0,0,0,59.49,13.13Z"/><path class="cls-2" d="M60.6,25.77h0a.89.89,0,0,1-.87-.88A61.62,61.62,0,0,0,58.63,13.3a.88.88,0,0,1,1.71-.39,44.45,44.45,0,0,1,1.14,12A.88.88,0,0,1,60.6,25.77Z"/><path class="cls-5" d="M87.18,24.09a11.82,11.82,0,0,0-5,9.51c0,5.18,3.6,9.62,8.68,11.42a19.18,19.18,0,0,0,1.57-7.57A20.43,20.43,0,0,0,87.18,24.09Z"/><path class="cls-2" d="M91.3,46.12l-.78-.27c-5.62-2-9.26-6.81-9.26-12.25a12.68,12.68,0,0,1,5.4-10.22l.65-.48.53.62a21.22,21.22,0,0,1,5.43,13.93,20.06,20.06,0,0,1-1.64,7.91ZM87.05,25.31a10.8,10.8,0,0,0-4,8.29C83,38,85.86,42,90.33,43.89a18.21,18.21,0,0,0,1.19-6.44A19.38,19.38,0,0,0,87.05,25.31Z"/><ellipse class="cls-2" cx="51.63" cy="29.68" rx="7.4" ry="6.38" transform="translate(-3.35 6.8) rotate(-7.3)"/><ellipse class="cls-9" cx="51.95" cy="30.62" rx="5.38" ry="4.64" transform="translate(-3.47 6.85) rotate(-7.3)"/><ellipse class="cls-2" cx="51.95" cy="30.86" rx="2.02" ry="1.78" transform="translate(-3.49 6.83) rotate(-7.28)"/><path class="cls-2" d="M45.89,25a.52.52,0,0,1-.21,0l-2-.8a.59.59,0,0,1,.43-1.09l2,.8A.59.59,0,0,1,45.89,25Z"/><path class="cls-2" d="M47.51,23.62a.59.59,0,0,1-.33-.11l-2.45-1.72a.59.59,0,0,1,.67-1l2.45,1.72a.59.59,0,0,1-.34,1.07Z"/><ellipse class="cls-2" cx="70.93" cy="29.68" rx="6.38" ry="7.4" transform="translate(32.47 96.27) rotate(-82.7)"/><ellipse class="cls-9" cx="70.6" cy="30.62" rx="4.64" ry="5.38" transform="translate(31.26 96.77) rotate(-82.7)"/><ellipse class="cls-2" cx="70.6" cy="30.86" rx="1.78" ry="2.02" transform="translate(31.05 96.98) rotate(-82.72)"/><path class="cls-2" d="M76.67,25a.59.59,0,0,1-.22-1.13l2-.8a.58.58,0,0,1,.76.33.59.59,0,0,1-.33.76l-2,.8A.52.52,0,0,1,76.67,25Z"/><path class="cls-2" d="M75,23.62a.61.61,0,0,1-.48-.25.6.6,0,0,1,.14-.82l2.45-1.72a.59.59,0,1,1,.68,1l-2.45,1.72A.6.6,0,0,1,75,23.62Z"/><path class="cls-9" d="M77.63,48.89c0,5.23-7.66,9.47-17.1,9.47s-17.1-4.24-17.1-9.47,7.65-8.53,17.1-8.53S77.63,43.66,77.63,48.89Z"/><path class="cls-15" d="M60.62,56.54c-6.2,0-12-1.57-17.19-7.65.42,6.38,8.21,9.19,17,9.19,9.44,0,16.27-3.59,17.09-9.19C72.62,54.21,69.38,56.49,60.62,56.54Z"/><path class="cls-2" d="M60.83,55.56a13.56,13.56,0,0,1-12.15-7,.59.59,0,0,1,.26-.79.59.59,0,0,1,.79.26,12.36,12.36,0,0,0,11.1,6.33H61a12.41,12.41,0,0,0,10.87-6.22.59.59,0,1,1,1,.54A13.41,13.41,0,0,1,61,55.56Z"/><path class="cls-2" d="M60.53,59.23c-10.08,0-18-4.54-18-10.34,0-5.54,7.39-9.41,18-9.41s18,3.87,18,9.41C78.5,54.69,70.61,59.23,60.53,59.23Zm0-18c-9.4,0-16.22,3.22-16.22,7.65,0,4.65,7.42,8.59,16.22,8.59s16.22-3.94,16.22-8.59C76.75,44.46,69.93,41.24,60.53,41.24Z"/><rect class="cls-2" x="60.11" y="43.93" width="1.37" height="11.34"/><path class="cls-2" d="M65.8,40.93c0,2.77-5,4.47-5,4.47s-5-1.7-5-4.47,2.24-2.45,5-2.45S65.8,38.16,65.8,40.93Z"/><ellipse class="cls-16" cx="60.79" cy="40.29" rx="3.26" ry="0.56"/><path class="cls-8" d="M77.74,98.77c0,2.46-1.12,12.93-7.4,12.16-3.39-.42-8.22-5.72-6.18-7.1s-2.17-9,.75-7.08S77.74,96.31,77.74,98.77Z"/><path class="cls-9" d="M74.37,108c0,2.46-2.32,3.33-6,3.33s-6.59-2-6.59-4.45,1.64-4.51,4.74-2.6S74.37,105.58,74.37,108Z"/><path class="cls-15" d="M68,109a16.84,16.84,0,0,1-6-3.77,3.5,3.5,0,0,0-.24,1.24c0,2.69,3.19,4.87,7.13,4.87a9.08,9.08,0,0,0,4.84-1.31A17,17,0,0,1,68,109Z"/><path class="cls-2" d="M68.94,112.1c-4.34,0-7.86-2.51-7.86-5.6,0-2,1.39-3.74,3.68-4.76a29.14,29.14,0,0,1-.59-5,.74.74,0,1,1,1.47,0,26.48,26.48,0,0,0,.69,5.31l.15.63-.62.22c-2,.74-3.32,2.13-3.32,3.62,0,2.28,2.87,4.14,6.4,4.14,2.81,0,5.34-1.23,6.14-3A46.15,46.15,0,0,0,78.15,96.5a.73.73,0,1,1,1.45.21,48.29,48.29,0,0,1-3.17,11.52C75.37,110.56,72.36,112.1,68.94,112.1Z"/><path class="cls-5" d="M43,98.77c0,2.46,1.12,12.93,7.4,12.16,3.39-.42,8.22-5.72,6.18-7.1s1.33-9-1.58-7.08S43,96.31,43,98.77Z"/><path class="cls-9" d="M46.35,108c0,2.46,2.32,3.33,6,3.33s6.6-2,6.6-4.45-1.64-4.51-4.75-2.6S46.35,105.58,46.35,108Z"/><path class="cls-15" d="M53.34,109.26a16.8,16.8,0,0,0,5.76-4.07,3.42,3.42,0,0,1,.3,1.22c.14,2.69-2.93,5-6.87,5.23a9.07,9.07,0,0,1-4.9-1.06A17.17,17.17,0,0,0,53.34,109.26Z"/><path class="cls-2" d="M51.78,112.1c-3.42,0-6.43-1.54-7.48-3.85a48.26,48.26,0,0,1-3.18-11.54.73.73,0,0,1,1.45-.21,46.32,46.32,0,0,0,3.08,11.17c.79,1.74,3.31,3,6.13,3,3.53,0,6.4-1.86,6.4-4.14,0-1.49-1.28-2.88-3.32-3.62l-.62-.22.15-.64a27.8,27.8,0,0,0,.69-5.3.74.74,0,0,1,.76-.71.73.73,0,0,1,.7.76,28.17,28.17,0,0,1-.59,5c2.29,1,3.69,2.8,3.69,4.76C59.64,109.59,56.11,112.1,51.78,112.1Z"/><circle class="cls-15" cx="71.04" cy="45.74" r="0.85"/><circle class="cls-15" cx="69.37" cy="43.65" r="0.85"/><circle class="cls-15" cx="68.82" cy="46.65" r="0.85"/><circle class="cls-15" cx="50.74" cy="45.81" r="0.85"/><circle class="cls-15" cx="52.98" cy="46.65" r="0.85"/><circle class="cls-15" cx="52.62" cy="43.93" r="0.85"/><path class="cls-2" d="M83.81,46.47h0l-12.17-.14a.6.6,0,0,1-.58-.6.59.59,0,0,1,.59-.58l12.17.15a.59.59,0,0,1,0,1.17Z"/><path class="cls-2" d="M70,44.19a.59.59,0,0,1-.21-1.13l11.45-4.5a.58.58,0,1,1,.42,1.09l-11.44,4.5A.54.54,0,0,1,70,44.19Z"/><path class="cls-2" d="M38.16,46.47a.6.6,0,0,1-.59-.58.59.59,0,0,1,.58-.59l12.17-.15h0a.59.59,0,0,1,0,1.18l-12.16.14Z"/><path class="cls-2" d="M52,44.19a.52.52,0,0,1-.21,0l-11.45-4.5a.59.59,0,0,1,.43-1.09l11.44,4.5A.59.59,0,0,1,52,44.19Z"/><path class="cls-17" d="M109.53,84.11,92.46,94s-1.43,23.29,17.07,28.8C128,117.56,126.6,94,126.6,94Z"/><path class="cls-18" d="M109.53,84.11v38.66C128,117.56,126.6,94,126.6,94Z"/><path class="cls-2" d="M109.52,124.07l-.34-.1c-19.23-5.73-18-29.84-18-30.08l0-.67,18.28-10.55,18.28,10.55,0,.68c0,.24,1.19,24.65-18,30.07ZM93.69,94.7c0,3.71.57,21.94,15.85,26.77,15.21-4.58,15.86-23,15.83-26.77l-15.84-9.15Z"/><polygon class="cls-9" points="115.99 95.73 106.61 105.11 103.07 101.57 100.05 104.59 103.59 108.13 106.61 111.15 109.63 108.13 119.01 98.75 115.99 95.73"/></g></g></svg>