<svg xmlns="http://www.w3.org/2000/svg" xmlns:xlink="http://www.w3.org/1999/xlink" viewBox="0 0 500 459.76"><defs><style>.cls-1{fill:url(#linear-gradient);}.cls-2{fill:#23201f;}.cls-3{fill:#1a4074;}.cls-4{fill:#13244b;}.cls-5{fill:#764d2a;}.cls-6{fill:#231f20;}.cls-7{fill:#603b17;}.cls-8{fill:#f89521;}.cls-9{fill:#f4782a;}.cls-10{fill:#fff;}.cls-11{fill:#3c2517;}.cls-12{fill:none;}.cls-13{fill:#603e1b;}.cls-14{fill:#57391b;}.cls-15{fill:#533618;}.cls-16{fill:#e6e7e7;}.cls-17{fill:#a8aaad;}.cls-18{fill:#0c8fc5;}</style><linearGradient id="linear-gradient" x1="223.71" y1="-149.42" x2="223.71" y2="300.43" gradientTransform="translate(0 142)" gradientUnits="userSpaceOnUse"><stop offset="0" stop-color="#fff"/><stop offset="1" stop-color="#02559f"/></linearGradient></defs><g id="Layer_2" data-name="Layer 2"><g id="Layer_1-2" data-name="Layer 1"><circle class="cls-1" cx="223.71" cy="236.66" r="218.61"/><path class="cls-2" d="M223.4,459.76C100.22,459.76,0,359.54,0,236.36S100.22,13,223.4,13,446.81,113.17,446.81,236.36,346.59,459.76,223.4,459.76Zm0-436.45c-117.47,0-213,95.57-213,213.05s95.57,213,213,213,213.05-95.57,213.05-213S340.88,23.31,223.4,23.31Z"/><path class="cls-3" d="M328.91,377.53c-9.52,15.28-52.71,26.8-104.54,26.8s-94.8-11.52-104.54-26.8c-12.41,4.87-19.72,10.41-19.72,16.61,0,17.05,55.6,30.79,124,30.79s124-13.74,124-30.79C348.63,387.94,341.32,382.18,328.91,377.53Z"/><path class="cls-4" d="M224.59,404.33c51.83,0,94.8-11.52,104.55-26.8-22.15-8.42-60.47-14.18-104.55-14.18s-82.39,5.76-104.54,14.18C129.57,392.59,172.76,404.33,224.59,404.33Z"/><path class="cls-5" d="M312.3,299.12a187.86,187.86,0,0,1,22.59-17.94c36.33-24.59,26.36-63.13,17.5-94.36-6.2-22.37,23.92-28.35,35.44,36.33,11.52,63.57-58.92,113.4-77.74,113.4"/><path class="cls-6" d="M310.09,339.87a3.32,3.32,0,1,1,0-6.64c8.86,0,32.78-13.73,51.6-35.88,13.74-16.39,28.8-42.31,23-73.54-5.76-32.33-16.17-46.51-23.48-48.95a4,4,0,0,0-4.43.67c-1.55,1.55-2.66,4.87-1.11,10.41,8,28.35,20.38,71.54-18.82,97.9a204.76,204.76,0,0,0-22.15,17.49,3.21,3.21,0,0,1-4.65,0,3.41,3.41,0,0,1,0-4.65,212.91,212.91,0,0,1,23-18.38c35.22-23.92,24.14-62.46,16.17-90.81-2-7.09-.89-13.29,2.88-16.84A10.69,10.69,0,0,1,363,168.44c12.19,4,22.6,24.14,27.91,53.82,6.2,33.67-10,61.58-24.36,78.85C347.52,324.37,321.83,339.87,310.09,339.87Z"/><path class="cls-7" d="M365.24,175.08c7.53,18.17,26.13,68.89.44,101.23-25.47,32.11-43,30.78-43,30.78l2.44,24.59c27.24-14,72.2-56.7,62.9-108.53C381.85,189,373.65,177.74,365.24,175.08Z"/><path class="cls-6" d="M310.09,339.87a3.32,3.32,0,1,1,0-6.64c8.86,0,32.78-13.73,51.6-35.88,13.74-16.39,28.8-42.31,23-73.54-5.76-32.33-16.17-46.51-23.48-48.95a4,4,0,0,0-4.43.67c-1.55,1.55-2.66,4.87-1.11,10.41,8,28.35,20.38,71.54-18.82,97.9a204.76,204.76,0,0,0-22.15,17.49,3.21,3.21,0,0,1-4.65,0,3.41,3.41,0,0,1,0-4.65,212.91,212.91,0,0,1,23-18.38c35.22-23.92,24.14-62.46,16.17-90.81-2-7.09-.89-13.29,2.88-16.84A10.69,10.69,0,0,1,363,168.44c12.19,4,22.6,24.14,27.91,53.82,6.2,33.67-10,61.58-24.36,78.85C347.52,324.37,321.83,339.87,310.09,339.87Z"/><path class="cls-8" d="M329.58,301.56c0,65.78-47.84,102.77-106.54,102.77s-106.54-37-106.54-102.77S164.35,133,223,133,329.58,235.77,329.58,301.56Z"/><path class="cls-6" d="M223,407.43c-30.34,0-57.81-9.75-77.3-27.47-21-19-32.34-46.29-32.34-78.4,0-67.78,49.17-171.66,109.64-171.66S332.68,233.78,332.68,301.56c0,32.11-11.08,59.13-32.34,78.4C280.85,397.68,253.39,407.43,223,407.43Zm0-271.33c-14.84,0-43.85,7.53-72.65,58-19,33.45-30.79,74.65-30.79,107.43,0,49.61,31.9,99.67,103.44,99.67,51.61,0,103.44-30.79,103.44-99.67,0-32.78-11.74-74-30.79-107.43C266.9,143.63,237.88,136.1,223,136.1Z"/><path class="cls-9" d="M223,133a8.32,8.32,0,0,0-2.21.22c45.84,2.44,100.55,105.88,100.55,165.9,0,60.91-45.85,94.8-102.33,94.8-21,0-40.31-.22-56.25-5.1,17,10.19,37.65,15.51,60,15.51,58.92,0,106.54-37,106.54-102.77C329.58,235.77,282,133,223,133Z"/><path class="cls-9" d="M305.44,222.93,288.6,237.77s19-4,19.71-7.53C309.2,226.91,305.44,222.93,305.44,222.93Z"/><path class="cls-9" d="M309.87,235.33l-19.5,14.84s21.93-4,22.82-7.53C314.07,239.32,309.87,235.33,309.87,235.33Z"/><path class="cls-9" d="M314.3,248.4l-22.82,17.27s25.69-4.65,26.8-8.63S314.3,248.4,314.3,248.4Z"/><path class="cls-9" d="M313.41,349.4l-24.36-14.84S303,356.71,307,356.26,313.41,349.4,313.41,349.4Z"/><path class="cls-9" d="M324,336.77l-27.24-8.86S315.4,346.3,319.17,345C323.15,343.64,324,336.77,324,336.77Z"/><path class="cls-9" d="M136.22,222.93l19.93,14.84s-22.37-4-23.26-7.53C131.79,226.91,136.22,222.93,136.22,222.93Z"/><path class="cls-9" d="M131.12,235.33l23,14.84s-26.14-4-27.25-7.53S131.12,235.33,131.12,235.33Z"/><path class="cls-9" d="M125.81,248.4l27,17.27S122.26,261,121.16,257C119.83,253.05,125.81,248.4,125.81,248.4Z"/><path class="cls-10" d="M270.88,285.17c0,31.89-17.94,59.8-50.5,59.8s-50.5-27.91-50.5-59.8,17.94-77.3,50.5-77.3S270.88,253.27,270.88,285.17Z"/><path class="cls-6" d="M220.38,347.85c-31.45,0-53.38-25.92-53.38-62.68a111.76,111.76,0,0,1,13.51-52.05C190.7,215,204.88,205,220.6,205s29.91,10,40.09,28.13a111.65,111.65,0,0,1,13.52,52.05C273.76,322.15,251.83,347.85,220.38,347.85Zm0-137.11c-30.56,0-47.62,43.86-47.62,74.43,0,27.46,14.84,56.92,47.62,56.92,32.56,0,47.62-29.46,47.62-56.92C268,254.82,251,210.74,220.38,210.74Z"/><path class="cls-5" d="M317,94.24c-.44,5.32-10.41-1.55-13.73,2.22L233.45,53.93a68.88,68.88,0,0,1,7.09-14c14.62-24.15,46.29-48.51,62.24-30.79C313.41,20.93,319.39,63.23,317,94.24Z"/><path class="cls-6" d="M303.89,100.66l-2.22-1.33-72-43.85.88-2.44a75.31,75.31,0,0,1,7.31-14.62c10.63-17.71,31-36.54,48.73-38.31a21.66,21.66,0,0,1,18.6,7.08c9.53,10.41,17.94,49,15.07,87.49h0a5.23,5.23,0,0,1-2,4c-2.21,1.77-5.09,1.11-8,.44-1.33-.22-3.77-.66-4.43-.44ZM313.63,94h0l3.32.22Zm-7.09-2a32.5,32.5,0,0,1,4.88.66,9.43,9.43,0,0,0,2.43.44c2.44-31.89-4.21-71.54-13.51-81.73a14.71,14.71,0,0,0-13.29-4.87c-15.5,1.55-34.11,19.27-43.85,35.22a57.39,57.39,0,0,0-5.76,10.85l65.78,40.09A8.17,8.17,0,0,1,306.54,92Z"/><path class="cls-6" d="M294.8,73.2c-.22,1.77-29.45-15.51-29.45-15.51A23.06,23.06,0,0,1,267.78,53c4.88-8,15.29-20.37,20.82-13.29C289.93,41.75,295.69,62.79,294.8,73.2Z"/><path class="cls-6" d="M294.8,76.52c-2.21,0-8-2.44-31-16.17l-2.44-1.55,1.11-2.66a22.68,22.68,0,0,1,2.65-5.09c1.78-2.88,10.41-16.39,19.05-16.83a7.63,7.63,0,0,1,7.09,3.32l.22.22c1.77,2.66,7.75,24.36,6.65,35.44L297.9,75l-1.55.89C295.69,76.3,295.47,76.52,294.8,76.52ZM269.55,56.37c8.42,4.87,17.28,10,22.15,12.18-.44-10.19-4.65-24.81-5.76-27a1.7,1.7,0,0,0-1.32-.67c-3.11.22-9.31,6.2-14,14l-.22.22A4.76,4.76,0,0,0,269.55,56.37Z"/><path class="cls-11" d="M303.66,10.74,286.83,25.58s19.05-4,19.71-7.53S303.66,10.74,303.66,10.74Z"/><path class="cls-8" d="M127.58,96.46c.44,5.31,10.41-1.55,13.73,2.21l69.77-42.53a68.88,68.88,0,0,0-7.09-14c-14.62-24.36-46.29-48.73-62-31C131.12,23.14,125.14,65.45,127.58,96.46Z"/><path class="cls-9" d="M138.43,18.05l19.94,14.84s-22.37-4-23.26-7.53C134,22,138.43,18.05,138.43,18.05Z"/><path class="cls-9" d="M131.57,31.78l15.06,10.63s-17.06-2.88-17.72-5.31S131.57,31.78,131.57,31.78Z"/><path class="cls-6" d="M140.65,102.88l-1.78-2c-.66-.45-3.1.22-4.43.44-2.87.66-5.75,1.11-8-.44a5.27,5.27,0,0,1-2-4h0C122,66.11,127.8,22.48,139.76,9.19A21,21,0,0,1,158.14,2.1c18,1.55,38.1,20.6,48.73,38.54a75,75,0,0,1,7.31,14.62l.89,2.43ZM155.49,8.3a14,14,0,0,0-11.08,4.88c-9.52,10.41-15.95,50.05-13.73,81.95a9.19,9.19,0,0,0,2.44-.45c2.43-.44,5.53-1.1,8.19,0l65.78-40.09a86.27,86.27,0,0,0-5.75-10.85c-10-16.17-29-33.89-44.08-35.22A4.34,4.34,0,0,0,155.49,8.3Z"/><path class="cls-6" d="M149.51,75.41c.22,1.78,29.45-15.5,29.45-15.5a23.06,23.06,0,0,0-2.43-4.65c-4.87-8-15.28-20.38-20.82-13.29C154.38,44,148.84,65,149.51,75.41Z"/><path class="cls-6" d="M149.51,78.74a2.37,2.37,0,0,1-1.33-.45l-1.55-.66-.22-2c-.67-10.64,4.87-32.56,6.64-35.44l.22-.22a7.64,7.64,0,0,1,7.09-3.33c8.42.45,17.28,14,19,16.84a22.75,22.75,0,0,1,2.66,5.09l1.1,2.66-2.43,1.55C157.48,76.3,151.72,78.74,149.51,78.74Zm8.86-35c-1.11,2.22-4.88,17.06-5.54,27,4.87-2.43,13.73-7.31,21.93-12.18a9,9,0,0,1-.89-1.55l-.22-.22c-4.65-7.53-10.85-13.73-14-14C159.47,43.08,159,43.08,158.37,43.74Z"/><path class="cls-12" d="M223,91.36c-1.33,58-21,107.42-50.72,126.92C202,198.78,223,149.39,223,91.36Z"/><path class="cls-13" d="M251,224.26A61.1,61.1,0,0,1,258,235.11c21-5.54,37.87-16,47.4-29-.67-1.55-1.55-2.88-2.22-4.43-14.17,10.86-32.12,18.83-52.27,22.6Z"/><path class="cls-13" d="M183,234.22A72,72,0,0,1,190,223.81c-18.16-4-34.55-11.29-47.84-21-.89,1.55-1.55,3.32-2.44,4.87C149.06,219.16,164.35,228.69,183,234.22Z"/><path class="cls-14" d="M222.16,227.13A138.42,138.42,0,0,1,190,223.59h0A57.32,57.32,0,0,0,183,234h0a138.34,138.34,0,0,0,39.21,5.54A132.72,132.72,0,0,0,258,234.89h0A92.18,92.18,0,0,0,251,224,121.84,121.84,0,0,1,222.16,227.13Z"/><path class="cls-6" d="M220.38,347.85c-31.45,0-53.38-25.92-53.38-62.68a111.76,111.76,0,0,1,13.51-52.05C190.7,215,204.88,205,220.6,205s29.91,10,40.09,28.13a111.65,111.65,0,0,1,13.52,52.05C273.76,322.15,251.83,347.85,220.38,347.85Zm0-137.11c-30.56,0-47.62,43.86-47.62,74.43,0,27.46,14.84,56.92,47.62,56.92,32.56,0,47.62-29.46,47.62-56.92C268,254.82,251,210.74,220.38,210.74Z"/><path class="cls-15" d="M311.64,194.8a87.74,87.74,0,0,1-8.42,6.86c.67,1.55,1.55,2.88,2.22,4.43A44,44,0,0,0,311.64,194.8Z"/><path class="cls-6" d="M223,407.43c-30.34,0-57.81-9.75-77.3-27.47-21-19-32.34-46.29-32.34-78.4,0-67.78,49.17-171.66,109.64-171.66S332.68,233.78,332.68,301.56c0,32.11-11.08,59.13-32.34,78.4C280.85,397.68,253.39,407.43,223,407.43Zm0-271.33c-14.84,0-43.85,7.53-72.65,58-19,33.45-30.79,74.65-30.79,107.43,0,49.61,31.9,99.67,103.44,99.67,51.61,0,103.44-30.79,103.44-99.67,0-32.78-11.74-74-30.79-107.43C266.9,143.63,237.88,136.1,223,136.1Z"/><path class="cls-8" d="M302.33,123.48c0-14.18,7.31-26.8,18.61-35C300.12,64.12,264,48,223,48h-4.21c3.33,12.85,4.43,27.69,4.21,43.19,0,58-21,107.42-50.72,126.91A144.28,144.28,0,0,0,223,226.91c51.83,0,95.91-25.91,111.19-61.79C315.62,158.69,302.33,142.53,302.33,123.48Z"/><path class="cls-6" d="M223,230.24a147.41,147.41,0,0,1-51.83-9.09,3.09,3.09,0,0,1-2-2.65,4,4,0,0,1,1.33-3.1c29.46-19.27,49.17-69.33,49.17-124.26.22-16.61-1.11-31-4.21-42.3a3.54,3.54,0,0,1,.66-2.88,3.17,3.17,0,0,1,2.66-1.33H223c40.53,0,78,15.5,100.34,41.64A2.5,2.5,0,0,1,324,88.7a3.73,3.73,0,0,1-1.33,2.22c-11.07,8-17.27,19.71-17.27,32.34,0,17.27,11.73,32.33,29.68,38.54a3.13,3.13,0,0,1,2,1.77,2.85,2.85,0,0,1,0,2.66C320.94,204.54,275.09,230.24,223,230.24ZM179.19,217A142,142,0,0,0,223,223.59c48.06,0,90.37-22.59,106.76-56.7C311.19,159.14,299,142.08,299,123.48c0-13.51,6.2-26.36,17.06-35.44-21.27-23-55.82-36.77-93.25-36.77h-.22c2.43,11.3,3.54,24.37,3.32,40.09C226.36,145.85,208,194.35,179.19,217Z"/><path class="cls-5" d="M223,91.36a224.77,224.77,0,0,0-4.21-43.19c-62.68,1.55-113,41-113,89.48,0,35.66,27,66.23,66.23,80.85C202,198.78,221.71,149.39,223,91.36Z"/><path class="cls-6" d="M172.1,221.82a2,2,0,0,1-1.11-.22c-42.08-15.73-68.22-47.84-68.22-83.95,0-50.28,50.94-91,116.06-92.8a3.55,3.55,0,0,1,3.33,2.66,225.22,225.22,0,0,1,4.2,43.85h0c-1.33,59.58-21.48,109.42-52.49,129.79A2.49,2.49,0,0,1,172.1,221.82ZM216.17,51.49c-60.24,2.66-107,40.09-107,86.16,0,32.78,23.93,62.24,62.47,77.3,27.9-19.49,47-67.77,48.06-123.59A218.46,218.46,0,0,0,216.17,51.49Z"/><path class="cls-9" d="M295,162.24c0-12.63-9.53-22.82-21-22.82-8.41,0-15.5,5.32-19,12.85,18.38,5.1,30.78,14.62,30.78,27.47a4.92,4.92,0,0,1-.22,1.77A23.82,23.82,0,0,0,295,162.24Z"/><path class="cls-5" d="M219.05,48a224.77,224.77,0,0,1,4.21,43.19C223.48,75.86,222.38,61,219.05,48Z"/><path class="cls-6" d="M223.26,94.46h0a3.4,3.4,0,0,1-3.32-3.32,211.38,211.38,0,0,0-4.21-42.53,3.17,3.17,0,0,1,6.2-1.33c3.1,12.19,4.65,27,4.21,44.08A2.84,2.84,0,0,1,223.26,94.46Z"/><path class="cls-5" d="M320.94,88.48c-11.3,8.2-18.61,20.82-18.61,35,0,19,13.29,35.44,31.9,42.08A70.82,70.82,0,0,0,340,137.65C340,119.49,332.9,102.44,320.94,88.48Z"/><path class="cls-6" d="M336,169.55l-2.88-1.11C312.74,161.13,299,143,299,123.26c0-14.62,7.31-28.35,19.94-37.66l2.43-1.77,2,2.22c13.06,15.06,19.93,32.78,19.93,51.16a75,75,0,0,1-6,29.24ZM320.5,92.91c-9.53,8-14.84,18.83-14.84,30.57,0,15.94,10.63,31,26.8,37.87a68,68,0,0,0,4.43-23.7C336.67,121.71,331.13,106.42,320.5,92.91Z"/><path class="cls-11" d="M115.62,104.87l19.93,14.84s-22.37-4-23.25-7.53C111.19,109.08,115.62,104.87,115.62,104.87Z"/><path class="cls-11" d="M110.52,117.5l23,14.84s-26.14-4-27.24-7.53C105.43,121.48,110.52,117.5,110.52,117.5Z"/><ellipse class="cls-6" cx="190.04" cy="109.08" rx="27.24" ry="23.48" transform="translate(-12.31 25.02) rotate(-7.3)"/><ellipse class="cls-10" cx="191.14" cy="112.4" rx="19.71" ry="17.05" transform="translate(-12.73 25.19) rotate(-7.3)"/><ellipse class="cls-6" cx="191.14" cy="113.28" rx="7.53" ry="6.64" transform="translate(-12.81 25.13) rotate(-7.28)"/><path class="cls-6" d="M169,91.8a.83.83,0,0,1-.67-.22L160.8,88.7a2.24,2.24,0,1,1,1.55-4.2l7.53,2.87a2.3,2.3,0,0,1,1.33,2.88A2.66,2.66,0,0,1,169,91.8Z"/><path class="cls-6" d="M175,86.71a3.12,3.12,0,0,1-1.33-.44l-9.08-6.43a2.34,2.34,0,0,1-.45-3.1,2.37,2.37,0,0,1,3.11-.44l9.08,6.42a2.35,2.35,0,0,1,.44,3.1A2.71,2.71,0,0,1,175,86.71Z"/><ellipse class="cls-6" cx="261.11" cy="108.96" rx="23.48" ry="27.24" transform="translate(119.88 354.12) rotate(-82.7)"/><ellipse class="cls-10" cx="259.75" cy="112.53" rx="17.05" ry="19.71" transform="translate(115.15 355.88) rotate(-82.7)"/><ellipse class="cls-6" cx="259.78" cy="113.44" rx="6.64" ry="7.53" transform="translate(114.33 356.75) rotate(-82.72)"/><path class="cls-6" d="M282.18,91.8a1.93,1.93,0,0,1-2-1.32,2.3,2.3,0,0,1,1.32-2.88l7.54-2.88a2.24,2.24,0,0,1,1.55,4.2l-7.53,2.88Z"/><path class="cls-6" d="M276.2,86.71a2,2,0,0,1-1.77-.89,2.4,2.4,0,0,1,.44-3.1L284,76.3a2.21,2.21,0,1,1,2.66,3.54l-9.08,6.43A3.21,3.21,0,0,1,276.2,86.71Z"/><path class="cls-10" d="M285.72,179.74c0,19.27-28.13,34.77-62.9,34.77s-62.9-15.5-62.9-34.77,28.13-31.46,62.9-31.46S285.72,160.47,285.72,179.74Z"/><path class="cls-16" d="M223,207.87c-22.81,0-44.08-5.76-63.12-28.13,1.55,23.47,30.12,33.88,62.46,33.88,34.77,0,59.8-13.29,62.9-33.88C267.34,199.23,255.38,207.64,223,207.87Z"/><path class="cls-6" d="M223.93,204.1c-19.27,0-36.77-10-44.74-25.47a2.13,2.13,0,1,1,3.76-2c7.31,14.39,23.7,23.47,41.42,23.25,17.5-.22,32.78-9.08,39.87-23a2.13,2.13,0,1,1,3.76,2c-8,15.28-24.8,25-43.85,25.25Z"/><path class="cls-6" d="M222.82,217.83c-37,0-66.23-16.61-66.23-38.09,0-20.38,27.25-34.78,66.23-34.78s66.23,14.18,66.23,34.78C289.05,201,259.81,217.83,222.82,217.83Zm0-66.22c-34.55,0-59.58,12-59.58,28.13,0,17.49,26.8,31.45,59.58,31.45,33,0,59.58-14.18,59.58-31.45C282.4,163.35,257.37,151.61,222.82,151.61Z"/><rect class="cls-6" x="221.27" y="161.35" width="5.09" height="41.86"/><path class="cls-6" d="M242.31,150.28c0,10.19-18.38,16.39-18.38,16.39s-18.39-6.2-18.39-16.39,8.2-9.08,18.39-9.08S242.31,140.09,242.31,150.28Z"/><ellipse class="cls-17" cx="223.71" cy="148.06" rx="11.96" ry="1.99"/><path class="cls-9" d="M286.17,363.35c0,9.08-4.21,47.62-27.25,44.74-12.4-1.55-30.34-21-22.81-26.13,8-5.32-8-33,2.66-26.14S286.17,354.27,286.17,363.35Z"/><path class="cls-10" d="M273.76,397.46c0,9.08-8.64,12.18-21.93,12.18s-24.36-7.31-24.36-16.39,6-16.61,17.5-9.52C256,390.6,273.76,388.38,273.76,397.46Z"/><path class="cls-16" d="M250.28,401a61.1,61.1,0,0,1-21.92-14,10.81,10.81,0,0,0-.89,4.65c0,10,11.74,17.94,26.14,17.94a32.1,32.1,0,0,0,17.72-4.87A59.75,59.75,0,0,1,250.28,401Z"/><path class="cls-6" d="M253.83,412.3c-16.17,0-28.8-9.08-28.8-20.6,0-7.31,5.1-13.73,13.52-17.5A92.27,92.27,0,0,1,236.33,356a2.77,2.77,0,1,1,5.54-.22,82.53,82.53,0,0,0,2.66,19.27l.66,2.44-2.21.88c-7.54,2.88-12.19,8-12.19,13.51,0,8.42,10.41,15.29,23.48,15.29,10.41,0,19.71-4.43,22.59-11.08a174.53,174.53,0,0,0,11.3-41,2.7,2.7,0,1,1,5.32.88,179,179,0,0,1-11.74,42.31C277.53,406.54,266.45,412.3,253.83,412.3Z"/><path class="cls-5" d="M158.14,363.35c0,9.08,4.21,47.62,27.25,44.74,12.4-1.55,30.34-21,22.81-26.13-8-5.32,4.87-33-5.76-26.14S158.14,354.27,158.14,363.35Z"/><path class="cls-10" d="M170.55,397.46c0,9.08,8.64,12.18,21.93,12.18,13.51,0,24.36-7.31,24.36-16.39s-6-16.61-17.5-9.52C188.27,390.6,170.55,388.38,170.55,397.46Z"/><path class="cls-16" d="M196.24,401.89a61.6,61.6,0,0,0,21.26-15.06,10,10,0,0,1,1.11,4.43c.44,10-10.85,18.6-25.25,19.27-6.86.44-13.29-1.11-17.94-4A58.9,58.9,0,0,0,196.24,401.89Z"/><path class="cls-6" d="M190.7,412.3c-12.62,0-23.7-5.76-27.46-14.17a178.16,178.16,0,0,1-11.74-42.31,2.7,2.7,0,1,1,5.32-.88,177.79,177.79,0,0,0,11.29,41c2.88,6.42,12.18,10.85,22.59,10.85,12.85,0,23.48-6.86,23.48-15.28,0-5.54-4.65-10.63-12.18-13.51l-2.22-.89.67-2.43a84.33,84.33,0,0,0,2.66-19.27,2.77,2.77,0,1,1,5.53.22,92.48,92.48,0,0,1-2.21,18.16c8.42,3.77,13.51,10.41,13.51,17.5C219.5,403.22,206.87,412.3,190.7,412.3Z"/><circle class="cls-16" cx="261.58" cy="168" r="3.1" transform="translate(53.85 399.29) rotate(-80.78)"/><circle class="cls-16" cx="255.38" cy="160.47" r="3.1"/><circle class="cls-16" cx="253.39" cy="171.32" r="3.1"/><circle class="cls-16" cx="186.72" cy="168.44" r="3.1"/><circle class="cls-16" cx="195.13" cy="171.32" r="3.1"/><circle class="cls-16" cx="193.8" cy="161.35" r="3.1"/><path class="cls-6" d="M308.54,170.88h0l-44.74-.67a2.39,2.39,0,0,1-2.22-2.21,2.59,2.59,0,0,1,2.22-2.22l44.74.67a2.22,2.22,0,0,1,0,4.43Z"/><path class="cls-6" d="M257.59,162.46a1.93,1.93,0,0,1-2-1.33,2.2,2.2,0,0,1,1.11-2.88l42.08-16.61a2.18,2.18,0,0,1,1.77,4l-42.08,16.61A1.67,1.67,0,0,1,257.59,162.46Z"/><path class="cls-6" d="M140.43,170.88a2.22,2.22,0,1,1,0-4.43l44.74-.67a2.22,2.22,0,0,1,0,4.43l-44.74.67Z"/><path class="cls-6" d="M191.37,162.46a1.69,1.69,0,0,1-.89-.22L148.4,145.63a2.18,2.18,0,1,1,1.77-4l42.08,16.61a2.2,2.2,0,0,1,1.11,2.88A2.24,2.24,0,0,1,191.37,162.46Z"/><path class="cls-10" d="M468.12,354.83c0-1,.05-1.95.05-2.68a45.87,45.87,0,0,0-45.88-45.88,45,45,0,0,0-27,9.34A50.92,50.92,0,0,0,381.64,331a26,26,0,0,0-12.07-2.94c-6.81,0-13.35,3.16-18.43,8.9a31.56,31.56,0,0,0-7,13.32,33.86,33.86,0,0,0-14.58,11.14,33.47,33.47,0,0,0,26.84,53.46v-.07H465v0a30.06,30.06,0,0,0,30-30A30.38,30.38,0,0,0,468.12,354.83Z"/><path class="cls-2" d="M356.43,419.89A38.45,38.45,0,0,1,340,346.67a36.37,36.37,0,0,1,7.39-13c6-6.82,13.91-10.57,22.16-10.57a30.94,30.94,0,0,1,10.11,1.67,56.28,56.28,0,0,1,12.62-13.15,49.94,49.94,0,0,1,30-10.34,50.86,50.86,0,0,1,50.84,49.38A35.08,35.08,0,0,1,465,419.85Zm13.14-86.82c-5.36,0-10.58,2.56-14.7,7.21A26.33,26.33,0,0,0,349,351.47l-.61,2.51-2.4.95a29,29,0,0,0-12.42,9.49,28.49,28.49,0,0,0,21.1,45.45l1.74,0H466.51a25.08,25.08,0,0,0,23.52-25,25.51,25.51,0,0,0-22.46-25.06l-4.59-.51.16-4.61c0-1,.05-1.83.05-2.51a40.9,40.9,0,0,0-40.9-40.9,40.06,40.06,0,0,0-24,8.35A46.18,46.18,0,0,0,386,333.49l-2.38,4.16-4.25-2.21A20.82,20.82,0,0,0,369.57,333.07Z"/><path class="cls-18" d="M364.12,392.47h0a2.76,2.76,0,0,1-2.73-2.8l.38-30a2.75,2.75,0,0,1,.84-2,2.67,2.67,0,0,1,2-.78l12,.15a2.77,2.77,0,0,1,0,5.54h0l-9.24-.12-.35,27.24A2.76,2.76,0,0,1,364.12,392.47Z"/><path class="cls-18" d="M373.31,377.59h0l-9-.12a2.77,2.77,0,0,1,0-5.54h0l9,.12a2.77,2.77,0,0,1,0,5.54Z"/><path class="cls-18" d="M427.14,393.28h0l-12-.15a2.78,2.78,0,0,1-2.74-2.8l.39-30a2.77,2.77,0,0,1,2.77-2.74h0l12,.16a2.77,2.77,0,0,1,2.73,2.8,2.83,2.83,0,0,1-2.8,2.73l-9.24-.11-.31,24.47,9.23.12a2.77,2.77,0,0,1,0,5.53Z"/><path class="cls-18" d="M424.33,378.24h0l-9-.11a2.77,2.77,0,0,1,.07-5.54l9,.11a2.77,2.77,0,0,1,0,5.54Z"/><path class="cls-18" d="M451.14,393.59h0l-12-.15a2.78,2.78,0,0,1-2.73-2.8l.39-30a2.77,2.77,0,0,1,2.76-2.74h0l12,.16a2.77,2.77,0,0,1,0,5.53h0l-9.23-.11-.32,24.47,9.24.12a2.77,2.77,0,0,1,0,5.53Z"/><path class="cls-18" d="M448.34,378.55h0l-9-.11a2.78,2.78,0,0,1-2.74-2.81,2.72,2.72,0,0,1,2.81-2.73l9,.11a2.77,2.77,0,0,1,0,5.54Z"/><path class="cls-18" d="M388.12,392.78h0a2.77,2.77,0,0,1-2.74-2.8l.2-15v-.11l.19-14.95a2.75,2.75,0,0,1,.84-2,3.16,3.16,0,0,1,2-.78l7.51.09a10.27,10.27,0,1,1-.27,20.54l-4.73-.06-.16,12.24A2.76,2.76,0,0,1,388.12,392.78Zm3-20.5,4.73.06h.06a4.74,4.74,0,0,0,.06-9.47l-4.73-.06Z"/><path class="cls-18" d="M403.13,393a2.77,2.77,0,0,1-2.59-1.77l-5.81-15.08a2.77,2.77,0,0,1,5.17-2l5.81,15.08a2.77,2.77,0,0,1-1.59,3.58A2.63,2.63,0,0,1,403.13,393Z"/></g></g></svg>