<?xml version="1.0" encoding="utf-8"?>
<!-- Generator: Adobe Illustrator 22.1.0, SVG Export Plug-In . SVG Version: 6.00 Build 0)  -->
<svg version="1.1" id="Layer_1" xmlns="http://www.w3.org/2000/svg" xmlns:xlink="http://www.w3.org/1999/xlink" x="0px" y="0px"
	 viewBox="0 0 309.3 50.4" style="enable-background:new 0 0 309.3 50.4;" xml:space="preserve">
<style type="text/css">
	.st0{fill:#B4E9FC;stroke:#000000;stroke-miterlimit:10;}
	.st1{fill:none;stroke:#000000;stroke-miterlimit:10;}
	.st2{fill:none;stroke:#000000;stroke-miterlimit:10;stroke-dasharray:2.03,2.03;}
	.st3{fill:none;stroke:#000000;stroke-miterlimit:10;stroke-dasharray:2.12,2.12;}
	.st4{fill:#B4E9FC;stroke:#000000;stroke-width:1.01;stroke-miterlimit:10;}
	.st5{fill:none;stroke:#000000;stroke-miterlimit:10;stroke-dasharray:2.07,2.07;}
	.st6{fill:#FF9E19;stroke:#000000;stroke-miterlimit:10;}
	.st7{fill:none;stroke:#000000;stroke-width:1.13;}
	.st8{fill:#FFB900;stroke:#000000;stroke-width:1.02;}
	.st9{fill:#B4E9FC;}
</style>
<title>Artboard 1</title>
<rect x="118" y="0.5" class="st0" width="72.9" height="49.4"/>
<polyline class="st1" points="191,48.9 191,49.9 190,49.9 "/>
<line class="st2" x1="188" y1="49.9" x2="120" y2="49.9"/>
<polyline class="st1" points="119,49.9 118,49.9 118,48.9 "/>
<line class="st3" x1="118" y1="46.8" x2="118" y2="30.9"/>
<polyline class="st1" points="118,29.9 118,28.9 119,28.9 "/>
<line class="st2" x1="121" y1="28.9" x2="189" y2="28.9"/>
<polyline class="st1" points="190,28.9 191,28.9 191,29.9 "/>
<line class="st3" x1="191" y1="32" x2="191" y2="47.9"/>
<rect x="0.5" y="0.5" class="st4" width="67" height="49.4"/>
<path d="M23.8,17.1h1l1.2,4.3l1.6-4.3h0.8l1.3,4.3l1.5-4.3h1l-2.1,5.5h-0.9L28,18.5l-1.5,4.1h-0.9L23.8,17.1z"/>
<path d="M35.5,17c1.2,0,2.2,0.9,2.2,2.1c0,0.1,0,0.2,0,0.3l-0.6,0.2L33.9,20c0,1,0.7,1.8,1.7,1.9c0,0,0.1,0,0.1,0
	c0.6,0,1.2-0.3,1.7-0.7l0.3,0.7c-0.6,0.5-1.3,0.8-2.1,0.8c-1.4,0.1-2.6-1-2.7-2.4c0-0.1,0-0.2,0-0.3c-0.2-1.5,0.9-2.8,2.4-3
	C35.4,17,35.5,17,35.5,17z M33.9,19.3l2.7-0.4c0,0-0.1-1.1-1.2-1.1C34.6,17.8,34,18.4,33.9,19.3L33.9,19.3z"/>
<path d="M39.1,14.1l0.9-0.2v3.7c0.4-0.4,1-0.7,1.5-0.7c1.3,0,2.4,1.1,2.3,2.5c0,0.1,0,0.1,0,0.2c0.1,1.6-1.1,2.9-2.7,3
	c-0.1,0-0.2,0-0.3,0c-0.6,0-1.2-0.1-1.8-0.2L39.1,14.1z M40,18.5v3.2c0.3,0.1,0.6,0.1,0.9,0.1c1.1,0,2-0.8,2-1.9c0-0.1,0-0.2,0-0.3
	c0-1.2-0.6-1.9-1.5-1.9C40.9,17.8,40.4,18.1,40,18.5z"/>
<path d="M14.9,28.5l0.9-0.2v3.7c0.4-0.5,1-0.7,1.6-0.7c1.3,0,2.4,1.1,2.3,2.5c0,0.1,0,0.1,0,0.2c0.1,1.6-1.1,2.9-2.7,3
	c-0.1,0-0.2,0-0.3,0c-0.6,0-1.2-0.1-1.8-0.2L14.9,28.5z M15.8,32.9v3.2c0.3,0.1,0.6,0.1,0.9,0.1c1.1,0,2-0.8,2-1.9
	c0-0.1,0-0.2,0-0.3c0-1.2-0.6-1.9-1.5-1.9C16.7,32.2,16.2,32.5,15.8,32.9L15.8,32.9z"/>
<path d="M21.1,31.6l0.9-0.2v1.1c0.3-0.6,0.9-1,1.6-1.1c0.2,0,0.3,0,0.5,0.1l-0.2,1c-0.1-0.1-0.3-0.1-0.5-0.1c-0.6,0-1.1,0.7-1.3,1.1
	v3.4h-0.9V31.6z"/>
<path d="M27.4,31.4c1.5,0,2.6,1.2,2.6,2.6c0,0,0,0.1,0,0.1c0.1,1.5-1.1,2.9-2.6,3c0,0-0.1,0-0.1,0c-1.5,0-2.7-1.2-2.6-2.7
	c0,0,0-0.1,0-0.1c-0.1-1.5,1-2.8,2.5-2.9C27.3,31.4,27.3,31.4,27.4,31.4z M27.4,36.2c1,0,1.7-0.8,1.7-1.8c0-0.1,0-0.1,0-0.2
	c0-1-0.5-2.1-1.7-2.1c-0.9,0-1.7,0.8-1.7,1.7c0,0.1,0,0.1,0,0.2C25.7,35.2,26.2,36.2,27.4,36.2L27.4,36.2z"/>
<path d="M30.8,31.5h1l1.3,4.3l1.5-4.3h0.8l1.3,4.3l1.5-4.3h1L37.2,37h-0.9L35,32.9L33.4,37h-0.9L30.8,31.5z"/>
<path d="M40.2,35.7c0.5,0.3,1,0.5,1.5,0.5c0.7,0,1-0.3,1-0.7c0-1.2-2.7-1-2.7-2.7c0-0.8,0.6-1.5,2-1.5c0.5,0,1,0.1,1.5,0.3l-0.2,0.8
	c-0.4-0.2-0.9-0.3-1.3-0.3c-0.7,0-1,0.3-1,0.6c0,1.1,2.7,0.9,2.7,2.7c0,1-0.8,1.6-2,1.6c-0.6,0-1.2-0.1-1.7-0.5L40.2,35.7z"/>
<path d="M47.3,31.4c1.2,0,2.2,0.9,2.2,2.1c0,0.1,0,0.2,0,0.3l-0.6,0.2l-3.2,0.4c0,1,0.7,1.8,1.7,1.9c0,0,0.1,0,0.1,0
	c0.6,0,1.2-0.3,1.7-0.7l0.3,0.7c-0.6,0.5-1.3,0.8-2.1,0.8c-1.4,0.1-2.6-1-2.7-2.4c0-0.1,0-0.2,0-0.3c-0.2-1.5,0.9-2.8,2.4-3
	C47.2,31.4,47.2,31.4,47.3,31.4z M45.7,33.6l2.7-0.3c0,0-0.1-1.2-1.2-1.2C46.4,32.2,45.8,32.8,45.7,33.6z"/>
<path d="M50.9,31.6l0.9-0.2v1.1c0.3-0.6,0.9-1,1.6-1.1c0.2,0,0.3,0,0.5,0.1l-0.2,1c-0.1-0.1-0.3-0.1-0.5-0.1c-0.6,0-1.1,0.7-1.3,1.1
	v3.4h-0.9V31.6z"/>
<polyline class="st1" points="191,20.1 191,21.1 190,21.1 "/>
<line class="st2" x1="188" y1="21.1" x2="120.1" y2="21.1"/>
<polyline class="st1" points="119,21.1 118,21.1 118,20.1 "/>
<line class="st5" x1="118" y1="18.1" x2="118" y2="2.5"/>
<polyline class="st1" points="118,1.5 118,0.5 119,0.5 "/>
<line class="st2" x1="121.1" y1="0.5" x2="189" y2="0.5"/>
<polyline class="st1" points="190,0.5 191,0.5 191,1.5 "/>
<line class="st5" x1="191" y1="3.6" x2="191" y2="19.1"/>
<path d="M131.6,8.3h1l4.7,6.5V8.3h1v8h-1l-4.7-6.4v6.4h-1V8.3z"/>
<path d="M142.5,10.8c1.5,0,2.6,1.2,2.7,2.6c0,0,0,0.1,0,0.1c0.1,1.5-1.1,2.9-2.6,3c0,0-0.1,0-0.1,0c-1.5,0-2.7-1.2-2.6-2.7
	c0,0,0-0.1,0-0.1c-0.1-1.5,1-2.8,2.5-2.9C142.4,10.8,142.4,10.8,142.5,10.8z M142.5,15.7c1,0,1.7-0.8,1.7-1.8c0-0.1,0-0.1,0-0.2
	c0-1-0.5-2.1-1.7-2.1c-0.9,0-1.7,0.8-1.7,1.7c0,0.1,0,0.1,0,0.2C140.8,14.6,141.3,15.7,142.5,15.7L142.5,15.7z"/>
<path d="M149.1,10.8c0.3,0,0.7,0.1,1,0.2V8l0.9-0.2v6.9c0,0.6,0.1,1.1,0.2,1.7l-0.9,0.1c0,0-0.1-0.5-0.2-0.9c-0.4,0.6-1,0.9-1.8,0.9
	c-1.3-0.1-2.4-1.2-2.3-2.5c0,0,0-0.1,0-0.1c-0.1-1.6,1.1-2.9,2.6-3.1C148.9,10.8,149,10.8,149.1,10.8z M150.1,14.7v-2.3
	c0-0.6-0.5-0.8-1-0.8c-1.1,0-2,0.8-2,1.8c0,0.1,0,0.2,0,0.3c0,1.2,0.6,1.9,1.4,1.9C149.2,15.6,149.8,15.3,150.1,14.7L150.1,14.7z"/>
<path d="M155.2,10.8c1.2,0,2.2,0.9,2.2,2.1c0,0.1,0,0.2,0,0.3l-0.6,0.2l-3.2,0.4c0,1,0.7,1.8,1.7,1.9c0,0,0.1,0,0.1,0
	c0.6,0,1.2-0.3,1.7-0.7l0.3,0.7c-0.6,0.5-1.3,0.8-2.1,0.8c-1.4,0.1-2.6-1-2.7-2.4c0-0.1,0-0.2,0-0.3c-0.2-1.5,0.9-2.8,2.4-3
	C155.1,10.8,155.1,10.8,155.2,10.8z M153.6,13.1l2.7-0.4c0,0-0.1-1.1-1.2-1.1C154.3,11.6,153.6,12.3,153.6,13.1z"/>
<path d="M158.8,8.3h2.3c2.1,0,2.9,1.1,2.9,2.4c0,1.4-1.1,2.6-2.5,2.6c-0.1,0-0.2,0-0.3,0h-1.3v3.1h-1L158.8,8.3z M160.9,12.4
	c1.4,0,2-0.6,2-1.6s-0.5-1.6-2-1.6h-1.1v3.3H160.9z"/>
<path d="M167.4,10.8c1.5,0,2.6,1.2,2.7,2.6c0,0,0,0.1,0,0.1c0.1,1.5-1.1,2.9-2.6,3c0,0-0.1,0-0.1,0c-1.5,0-2.7-1.2-2.6-2.7
	c0,0,0-0.1,0-0.1c-0.1-1.5,1-2.8,2.5-2.9C167.3,10.8,167.3,10.8,167.4,10.8z M167.4,15.7c1,0,1.7-0.8,1.7-1.8c0-0.1,0-0.1,0-0.2
	c0-1-0.5-2.1-1.7-2.1c-0.9,0-1.7,0.8-1.7,1.7c0,0.1,0,0.1,0,0.2C165.7,14.6,166.2,15.7,167.4,15.7L167.4,15.7z"/>
<path d="M171.4,11l0.9-0.2v1.1c0.3-0.6,0.9-1,1.6-1.1c0.2,0,0.3,0,0.5,0.1l-0.2,1c-0.1-0.1-0.3-0.1-0.5-0.1c-0.6,0-1.1,0.7-1.3,1.1
	v3.4h-0.9V11z"/>
<path d="M175.7,11.7h-0.8v-0.5l0.8-0.3V9.7l0.9-0.2v1.5h1.8v0.8h-1.8v3c0,0.7,0.2,1,0.7,1c0.4,0,0.8-0.2,1.1-0.5l0.2,0.8
	c-0.4,0.3-1,0.5-1.6,0.5c-0.9,0-1.4-0.5-1.4-1.6L175.7,11.7z"/>
<rect x="241.8" y="0.5" class="st6" width="67" height="49.3"/>
<path d="M268.2,13.9c0.9,0,1.8,0.2,2.6,0.7l-0.4,0.9c-0.7-0.5-1.5-0.7-2.3-0.7c-1.7,0-3.1,1.3-3.2,3c0,0.1,0,0.2,0,0.3
	c-0.1,1.8,1.3,3.2,3.1,3.3c0,0,0.1,0,0.1,0c0.9,0,1.7-0.3,2.4-0.8l0.4,0.7c-0.8,0.6-1.8,0.9-2.9,0.9c-2.2,0.1-4.1-1.6-4.2-3.8
	c0-0.1,0-0.2,0-0.3c-0.1-2.3,1.7-4.1,4-4.2C267.9,13.9,268.1,13.9,268.2,13.9z"/>
<path d="M272.5,14h1l4.7,6.5V14h1v8h-1l-4.7-6.4V22h-1V14z"/>
<path d="M283.3,18l-2.7-4h1.2l2.1,3.2L286,14h1.1l-2.7,4l2.7,4H286l-2.1-3.2l-2.1,3.2h-1.1L283.3,18z"/>
<path d="M254.8,28.4h1.4l2.4,6.6l2.5-6.6h1.4l0.3,8h-1l-0.2-6.8l-2.6,6.8h-0.7l-2.6-6.9l-0.2,6.9h-1L254.8,28.4z"/>
<path d="M267.4,33.1v-0.2c0-0.6,0-1.2-0.9-1.2c-0.6,0-1.2,0.2-1.7,0.6l-0.3-0.8c0.7-0.4,1.4-0.7,2.2-0.7c1.2,0,1.6,0.5,1.6,1.7V35
	c0,0.4,0.2,0.7,0.6,0.7c0,0,0,0,0,0l-0.3,0.8c-0.5,0-1-0.4-1.2-0.9c-0.4,0.6-1.1,0.9-1.8,0.9c-0.7,0.1-1.4-0.5-1.5-1.2
	c0-0.1,0-0.1,0-0.2C264.2,34.1,265.4,33.4,267.4,33.1z M267.4,34.8v-1c-1.5,0.2-2.2,0.6-2.2,1.3c0,0.4,0.3,0.6,0.7,0.6
	C266.5,35.7,267.1,35.3,267.4,34.8z"/>
<path d="M270.3,31.1l0.9-0.2V32c0.6-0.6,1.4-1,2.2-1.1c0.8,0,1.4,0.5,1.4,1.6v3.9h-0.9v-3.7c0-0.8-0.3-1.1-0.7-1.1
	c-0.8,0.2-1.5,0.6-2,1.2v3.6h-0.9L270.3,31.1z"/>
<path d="M279.4,33.1v-0.2c0-0.6,0-1.2-0.9-1.2c-0.6,0-1.2,0.2-1.7,0.6l-0.3-0.8c0.7-0.4,1.4-0.7,2.2-0.7c1.2,0,1.6,0.5,1.6,1.7V35
	c0,0.4,0.2,0.7,0.6,0.7c0,0,0,0,0,0l-0.3,0.8c-0.5,0-1-0.4-1.2-0.9c-0.4,0.6-1.1,0.9-1.8,0.9c-0.7,0.1-1.4-0.5-1.5-1.2
	c0-0.1,0-0.1,0-0.2C276.1,34.1,277.3,33.4,279.4,33.1z M279.4,34.8v-1c-1.5,0.2-2.2,0.6-2.2,1.3c0,0.4,0.3,0.6,0.7,0.6
	C278.5,35.7,279,35.3,279.4,34.8z"/>
<path d="M283,34.5c-0.6-0.3-1-1-1-1.7c0.1-1.1,1-1.9,2.1-1.9c0,0,0.1,0,0.1,0c0.6,0,1,0.2,1.5,0.2h0.6c0.2,0,0.4,0,0.6-0.1l0.1,0.8
	h-0.7H286c0.3,0.3,0.4,0.7,0.4,1.1c-0.1,1.1-1.1,2-2.2,1.9c0,0,0,0,0,0c-0.1,0-0.3,0-0.4,0c-0.2,0.2-0.5,0.3-0.5,0.5
	s0.6,0.3,1.6,0.6s2.1,0.5,2.1,1.5s-1.3,2-2.9,2c-1.2,0-2.3-0.5-2.3-1.4s0.8-1.3,1.4-1.6c-0.5-0.2-0.9-0.4-0.9-0.7
	S282.6,34.7,283,34.5z M284,38.5c1,0,1.9-0.5,1.9-1.1s-0.6-0.7-1.4-0.9l-0.6-0.1c-0.6,0.3-1.3,0.7-1.3,1.3S283.4,38.5,284,38.5z
	 M285.4,32.9c0-0.7-0.5-1.3-1.2-1.3c0,0,0,0-0.1,0c-0.6,0-1.2,0.5-1.2,1.1c0,0,0,0.1,0,0.1c0,0.6,0.5,1.2,1.1,1.2c0.1,0,0.1,0,0.2,0
	c0.6,0.1,1.2-0.4,1.2-1C285.4,33,285.4,32.9,285.4,32.9L285.4,32.9z"/>
<path d="M290.5,30.9c1.2,0,2.2,0.9,2.2,2.1c0,0.1,0,0.2,0,0.3l-0.6,0.2l-3.2,0.4c0,1,0.7,1.8,1.7,1.9c0,0,0.1,0,0.1,0
	c0.6,0,1.2-0.3,1.7-0.7l0.3,0.7c-0.6,0.5-1.3,0.8-2.1,0.8c-1.4,0.1-2.6-1-2.7-2.4c0-0.1,0-0.2,0-0.3c-0.2-1.5,0.9-2.8,2.4-3
	C290.3,30.9,290.4,30.9,290.5,30.9z M288.9,33.1l2.7-0.3c0,0-0.1-1.2-1.2-1.2C289.6,31.7,288.9,32.3,288.9,33.1z"/>
<path d="M294.1,31.1l0.9-0.2V32c0.3-0.6,0.9-1,1.6-1.1c0.2,0,0.3,0.1,0.4,0.1l-0.2,1c-0.1-0.1-0.3-0.1-0.5-0.1
	c-0.6,0-1.1,0.7-1.3,1.1v3.4H294L294.1,31.1z"/>
<path d="M136.9,41.7c0.5,0.3,1,0.5,1.6,0.5c0.7,0,1-0.3,1-0.7c0-1.2-2.6-1-2.6-2.7c0-0.8,0.6-1.5,2-1.5c0.5,0,1,0.1,1.5,0.3
	l-0.2,0.8c-0.4-0.2-0.9-0.3-1.3-0.3c-0.6,0-0.9,0.3-0.9,0.6c0,1.1,2.6,0.9,2.6,2.7c0,1-0.8,1.6-2,1.6c-0.6,0-1.2-0.1-1.7-0.5
	L136.9,41.7z"/>
<path d="M144.1,37.3c1.2,0,2.2,0.9,2.2,2.1c0,0.1,0,0.2,0,0.3l-0.6,0.2l-3.2,0.4c0,1,0.7,1.8,1.7,1.9c0,0,0.1,0,0.1,0
	c0.6,0,1.2-0.3,1.7-0.7l0.3,0.7c-0.6,0.5-1.3,0.8-2.1,0.8c-1.4,0.1-2.6-1-2.7-2.4c0-0.1,0-0.2,0-0.3c-0.2-1.5,0.9-2.8,2.4-3
	C144,37.3,144,37.3,144.1,37.3z M142.5,39.6l2.7-0.3c0,0-0.1-1.2-1.2-1.2C143.2,38.1,142.5,38.8,142.5,39.6L142.5,39.6z"/>
<path d="M147.7,37.5l0.9-0.2v1.1c0.3-0.6,0.9-1,1.6-1.1c0.2,0,0.3,0,0.5,0.1l-0.2,1c-0.1-0.1-0.3-0.1-0.5-0.1
	c-0.6,0-1.1,0.7-1.3,1.1v3.4h-0.9V37.5z"/>
<path d="M151,37.4h1l1.4,4.2l1.7-4.2h1l-2.3,5.5H153L151,37.4z"/>
<path d="M157,35.4c0-0.4,0.3-0.6,0.7-0.6c0.4,0,0.6,0.3,0.6,0.7s-0.3,0.6-0.7,0.6l0,0C157.3,36.1,157,35.8,157,35.4
	C157,35.4,157,35.4,157,35.4z M157.2,37.4h0.9v5.4h-0.9V37.4z"/>
<path d="M162.3,37.3c0.6,0,1.3,0.2,1.8,0.6l-0.4,0.7c-0.4-0.3-0.9-0.5-1.4-0.5c-1,0.1-1.8,0.9-1.7,1.9c0,0,0,0,0,0.1
	c-0.1,1,0.6,1.9,1.6,2c0,0,0.1,0,0.1,0c0.5,0,1.1-0.2,1.5-0.6l0.3,0.7c-1.1,1-2.8,0.9-3.8-0.2c-0.5-0.5-0.7-1.2-0.7-1.9
	C159.5,38.6,160.7,37.3,162.3,37.3C162.3,37.3,162.3,37.3,162.3,37.3z"/>
<path d="M167.6,37.3c1.2,0,2.2,0.9,2.2,2.1c0,0.1,0,0.2,0,0.3l-0.6,0.2l-3.2,0.4c0,1,0.7,1.8,1.7,1.9c0,0,0.1,0,0.1,0
	c0.6,0,1.2-0.3,1.7-0.7l0.3,0.7c-0.6,0.5-1.3,0.8-2.1,0.8c-1.4,0-2.6-1.1-2.6-2.5c0-0.1,0-0.2,0-0.2c-0.2-1.5,0.9-2.8,2.4-3
	C167.5,37.3,167.5,37.3,167.6,37.3z M166,39.6l2.7-0.3c0-0.6-0.6-1.1-1.2-1.2C166.7,38.1,166,38.8,166,39.6z"/>
<g id="shackle">
	<path id="svg_1" class="st7" d="M204.9,28.2l0.9-3.8c0.4-1.7,2.1-2.7,3.8-2.3c1.7,0.4,2.7,2.1,2.3,3.8l-0.9,3.8"/>
</g>
<path class="st8" d="M204.3,26.8l7.9,2c0.1,0,0.1,0.1,0.1,0.2l-1.8,7.1c0,0.1-0.1,0.1-0.2,0.1l-7.9-2c-0.1,0-0.1-0.1-0.1-0.2
	l1.8-7.1C204.1,26.9,204.2,26.8,204.3,26.8z"/>
<g id="shackle-3">
	<path id="svg_1-3" class="st7" d="M90.9,27.8l0.9-3.8c0.4-1.7,2.1-2.7,3.8-2.3c1.7,0.4,2.7,2.1,2.3,3.8l-1,3.8"/>
</g>
<path class="st8" d="M90.3,26.5l7.9,2c0.1,0,0.1,0.1,0.1,0.2l-1.8,7.1c0,0.1-0.1,0.1-0.2,0.1l-7.9-2c-0.1,0-0.1-0.1-0.1-0.2l1.8-7.1
	C90.1,26.5,90.2,26.4,90.3,26.5z"/>
<rect x="117.5" y="21.7" class="st9" width="2.7" height="6.6"/>
<rect x="188.8" y="21.6" class="st9" width="2.7" height="6.7"/>
<line class="st1" x1="72.7" y1="25.1" x2="236.2" y2="25.7"/>
<polygon points="73.8,28.8 67.3,25 73.8,21.3 "/>
<polygon points="235.1,29.4 241.6,25.7 235.1,22 "/>
</svg>
